<?xml version="1.0" encoding="UTF-8" standalone="no"?>
<!DOCTYPE svg PUBLIC "-//W3C//DTD SVG 1.1//EN" "http://www.w3.org/Graphics/SVG/1.1/DTD/svg11.dtd">
<svg xmlns="http://www.w3.org/2000/svg" version="1.1" viewBox="0.00 0.00 1614.00 1948.00">
<g stroke-width="2.00" fill="none" stroke-linecap="butt">
<path stroke="#80f7ff" vector-effect="non-scaling-stroke" d="
  M 1.90 190.46
  L 1.92 437.79"
/>
<path stroke="#80f2ff" vector-effect="non-scaling-stroke" d="
  M 1.92 437.79
  L 1.98 712.04"
/>
<path stroke="#80ebff" vector-effect="non-scaling-stroke" d="
  M 1.98 712.04
  L 1.94 869.29"
/>
<path stroke="#80e3fd" vector-effect="non-scaling-stroke" d="
  M 1.94 869.29
  L 1.95 1212.99"
/>
<path stroke="#808080" vector-effect="non-scaling-stroke" d="
  M 1.95 1212.99
  L 1.98 1219.06"
/>
<path stroke="#f4fdff" vector-effect="non-scaling-stroke" d="
  M 1.98 1219.06
  L 1.94 1370.71"
/>
<path stroke="#bef0fa" vector-effect="non-scaling-stroke" d="
  M 1.94 1370.71
  L 1.95 1946.82
  A 0.76 0.75 -0.0 0 0 2.71 1947.57
  L 1611.47 1947.54
  A 0.59 0.58 90.0 0 0 1612.05 1946.95
  L 1612.03 1370.31"
/>
<path stroke="#f4fdff" vector-effect="non-scaling-stroke" d="
  M 1612.03 1370.31
  L 1612.04 1214.20"
/>
<path stroke="#80e3fd" vector-effect="non-scaling-stroke" d="
  M 1612.04 1214.20
  L 1612.02 827.71"
/>
<path stroke="#80ebff" vector-effect="non-scaling-stroke" d="
  M 1612.02 827.71
  L 1611.98 676.79"
/>
<path stroke="#80f2ff" vector-effect="non-scaling-stroke" d="
  M 1611.98 676.79
  L 1612.03 473.73"
/>
<path stroke="#80f7ff" vector-effect="non-scaling-stroke" d="
  M 1612.03 473.73
  L 1612.02 238.28"
/>
<path stroke="#91fbff" vector-effect="non-scaling-stroke" d="
  M 1612.02 238.28
  L 1611.99 0.95
  A 0.54 0.53 -90.0 0 0 1611.46 0.41
  L 2.52 0.45
  A 0.61 0.61 0.0 0 0 1.91 1.06
  L 1.90 190.46"
/>
<path stroke="#12f3ff" vector-effect="non-scaling-stroke" d="
  M 1612.02 238.28
  Q 1607.98 236.81 1602.50 237.07
  C 1596.42 237.36 1590.74 239.22 1585.21 241.27
  Q 1559.46 250.84 1533.31 259.74
  Q 1522.68 263.36 1509.02 269.06
  C 1502.84 271.65 1496.83 273.79 1490.57 276.26
  Q 1484.45 278.67 1476.53 281.04
  Q 1461.94 285.41 1446.23 291.52
  Q 1433.80 296.35 1427.44 298.37
  Q 1414.89 302.38 1403.33 305.83
  Q 1385.63 311.11 1364.43 317.62
  Q 1337.37 325.93 1302.44 333.16
  C 1286.14 336.53 1270.09 340.37 1253.76 343.02
  Q 1223.82 347.89 1198.02 352.03
  C 1166.41 357.11 1136.45 359.86 1104.53 362.78
  Q 1094.59 363.69 1084.58 364.41
  C 1053.72 366.64 1022.87 368.58 992.09 369.19
  C 971.73 369.60 948.93 370.89 931.22 372.26
  Q 924.43 372.79 916.46 374.20
  C 906.87 375.90 898.71 376.16 889.58 376.02
  Q 873.83 375.79 828.73 375.50
  Q 819.36 375.44 808.45 374.74
  Q 768.17 372.17 710.37 367.62
  Q 671.23 364.53 638.30 360.88
  Q 632.27 360.21 626.18 359.80
  C 609.84 358.72 592.73 359.62 575.99 359.09
  Q 560.20 358.60 537.21 358.03
  Q 521.50 357.65 502.53 353.67
  Q 463.42 345.48 429.34 337.88
  C 417.81 335.32 406.09 332.48 394.53 329.11
  C 383.85 325.98 373.55 322.98 362.49 320.13
  Q 351.77 317.38 343.96 314.82
  C 332.30 311.00 320.73 306.48 308.54 302.65
  Q 295.27 298.49 281.89 293.16
  C 268.59 287.85 255.35 283.32 242.19 277.56
  Q 207.06 262.19 177.22 248.97
  C 159.62 241.17 141.61 233.58 124.40 225.56
  C 110.28 218.98 94.90 212.85 80.51 208.06
  Q 58.79 200.83 37.78 191.67
  Q 30.44 188.47 20.96 185.77
  Q 11.78 183.17 2.58 187.91
  Q 2.08 188.17 2.03 188.73
  L 1.90 190.46"
/>
<path stroke="#01eaff" vector-effect="non-scaling-stroke" d="
  M 1612.03 473.73
  C 1605.75 472.70 1599.92 470.76 1593.20 471.10
  Q 1589.71 471.28 1586.20 471.84
  Q 1570.81 474.30 1542.20 477.64
  Q 1519.60 480.28 1486.02 487.25
  Q 1466.79 491.25 1439.40 494.48
  Q 1428.91 495.72 1419.57 497.24
  C 1400.52 500.34 1381.26 502.34 1362.05 504.82
  C 1343.40 507.24 1325.30 507.84 1307.03 509.58
  C 1287.07 511.48 1267.10 513.06 1247.10 514.81
  C 1234.87 515.88 1220.61 515.39 1207.75 516.03
  C 1192.14 516.81 1175.46 516.63 1159.41 517.63
  Q 1136.49 519.07 1113.63 520.18
  Q 1103.39 520.68 1093.87 520.85
  Q 1069.52 521.28 1036.49 522.49
  Q 1028.84 522.77 1021.54 522.47
  Q 992.92 521.30 966.77 521.87
  C 951.31 522.20 936.46 521.93 921.46 522.08
  C 898.50 522.32 875.37 520.96 851.95 520.84
  C 826.62 520.71 803.32 520.79 778.60 519.01
  C 758.11 517.53 733.31 516.66 710.07 517.04
  Q 690.59 517.36 660.72 515.98
  Q 650.42 515.51 639.40 515.39
  C 626.11 515.25 612.99 513.93 599.70 513.36
  Q 575.23 512.30 550.05 510.29
  C 537.73 509.31 525.50 508.96 513.45 508.43
  C 494.14 507.58 474.82 505.03 455.49 503.65
  Q 436.27 502.28 417.06 500.70
  C 410.48 500.16 403.64 500.02 396.97 499.62
  Q 390.34 499.21 382.02 498.03
  Q 352.53 493.84 321.83 491.49
  Q 315.67 491.02 306.51 489.27
  C 296.33 487.33 285.94 486.75 275.80 485.28
  C 265.12 483.72 253.10 484.00 243.57 482.42
  Q 222.18 478.87 200.46 474.57
  Q 191.17 472.73 180.75 471.24
  Q 163.13 468.72 147.21 465.41
  C 136.59 463.20 125.29 462.15 115.49 460.30
  Q 88.76 455.25 62.34 449.75
  C 42.16 445.55 20.89 445.22 1.92 437.79"
/>
<path stroke="#01deff" vector-effect="non-scaling-stroke" d="
  M 1611.98 676.79
  C 1607.65 679.00 1601.83 676.77 1597.15 676.41
  Q 1569.20 674.29 1544.73 675.61
  Q 1528.57 676.47 1502.27 678.91
  C 1484.50 680.55 1463.51 680.94 1444.24 680.64
  Q 1380.74 679.66 1317.32 679.91
  C 1291.53 680.01 1265.67 679.08 1239.72 679.20
  Q 1197.69 679.40 1155.75 679.00
  Q 1138.62 678.84 1117.03 678.97
  Q 1048.72 679.38 980.79 680.04
  Q 944.53 680.40 900.41 682.46
  Q 889.99 682.95 880.43 682.94
  C 852.87 682.90 825.67 682.22 798.45 682.22
  Q 741.03 682.21 685.81 682.59
  Q 668.11 682.72 644.00 682.13
  Q 634.09 681.88 623.99 682.11
  C 597.68 682.70 571.50 682.43 545.30 682.98
  Q 508.49 683.75 474.28 683.60
  Q 464.98 683.56 454.75 683.91
  Q 422.26 685.02 387.14 684.08
  C 380.62 683.91 374.09 683.99 367.60 684.33
  Q 329.31 686.31 295.88 687.32
  C 268.06 688.17 240.26 689.77 212.03 690.89
  C 199.86 691.38 187.62 691.11 175.47 691.76
  Q 155.53 692.82 136.22 693.59
  Q 125.57 694.02 116.00 694.74
  Q 80.51 697.41 44.93 701.66
  Q 26.60 703.85 9.42 710.41
  Q 7.13 711.29 1.98 712.04"
/>
<path stroke="#01cffc" vector-effect="non-scaling-stroke" d="
  M 1612.02 827.71
  Q 1607.96 826.74 1606.43 826.07
  Q 1586.10 817.07 1564.60 816.47
  Q 1545.54 815.93 1538.24 816.37
  Q 1512.42 817.90 1488.77 814.92
  Q 1471.51 812.75 1452.38 810.01
  C 1427.45 806.44 1402.34 804.53 1376.13 802.68
  C 1360.48 801.57 1342.43 802.36 1327.73 800.45
  C 1305.50 797.56 1284.51 794.20 1262.03 793.18
  Q 1207.46 790.70 1151.54 789.07
  Q 1145.26 788.89 1128.04 789.43
  C 1101.89 790.26 1075.76 789.44 1049.64 790.17
  Q 1019.27 791.01 988.79 791.47
  Q 978.74 791.61 968.79 791.52
  Q 936.00 791.21 894.50 791.81
  C 885.70 791.93 876.90 792.01 868.03 791.58
  Q 827.91 789.60 797.37 790.22
  Q 753.08 791.11 708.72 791.82
  C 692.13 792.08 675.63 792.76 659.32 793.11
  Q 648.95 793.32 639.36 793.70
  C 601.95 795.16 565.65 795.81 528.39 798.47
  C 509.60 799.81 491.33 801.52 472.73 802.06
  Q 456.84 802.53 448.43 803.30
  Q 411.66 806.67 365.10 809.61
  Q 354.21 810.29 345.73 811.14
  Q 278.21 817.85 210.31 826.85
  C 194.65 828.93 179.56 832.67 163.83 835.06
  Q 148.42 837.40 133.26 840.13
  C 118.77 842.74 104.96 846.62 90.87 850.30
  C 84.99 851.83 78.77 852.96 72.83 853.25
  Q 49.96 854.37 29.92 855.50
  C 23.06 855.88 15.63 857.16 10.54 862.21
  Q 7.95 864.78 5.40 867.59
  Q 4.42 868.67 1.94 869.29"
/>
<path stroke="#74e1fd" vector-effect="non-scaling-stroke" d="
  M 1612.04 1214.20
  Q 1612.75 1215.06 1611.09 1215.44"
/>
<path stroke="#00647d" vector-effect="non-scaling-stroke" d="
  M 1611.09 1215.44
  Q 1611.12 1213.95 1610.32 1212.48
  A 2.01 2.00 -20.5 0 0 1608.12 1211.48
  Q 1580.48 1217.69 1553.67 1221.02
  Q 1551.95 1221.23 1550.19 1221.33
  A 1.87 1.86 -9.6 0 1 1548.28 1219.98
  Q 1528.29 1150.65 1499.45 1085.23
  C 1482.58 1046.96 1464.12 1010.62 1439.58 977.61
  C 1418.82 949.69 1389.40 921.67 1353.03 919.71
  C 1317.28 917.79 1285.93 936.84 1263.53 963.47
  Q 1249.54 980.10 1239.25 998.58
  Q 1235.89 1004.61 1232.77 1010.44
  Q 1229.43 1016.68 1226.76 1022.42
  Q 1204.90 1069.34 1188.94 1119.51
  A 0.60 0.60 0.0 0 1 1188.14 1119.88
  C 1157.07 1106.82 1126.09 1095.06 1092.88 1085.05
  Q 1027.21 1065.25 960.08 1060.90
  A 1.34 1.33 -12.3 0 1 959.00 1060.21
  C 943.94 1032.61 927.19 1006.39 907.24 982.58
  Q 896.90 970.22 885.33 962.84
  Q 874.53 955.95 862.42 954.47
  Q 858.59 954.01 854.79 954.46
  C 833.17 957.04 815.46 976.41 803.23 994.31
  Q 793.84 1008.04 786.28 1024.19
  A 0.51 0.50 43.1 0 1 785.38 1024.22
  Q 755.41 969.22 719.09 921.07
  Q 704.00 901.06 686.87 883.75
  C 663.61 860.25 631.41 836.75 596.84 840.73
  C 571.96 843.59 548.09 857.52 527.58 872.92
  Q 494.89 897.47 465.23 932.57
  Q 438.20 964.55 412.00 1001.56
  A 0.58 0.57 40.7 0 1 411.11 1001.62
  Q 391.12 980.86 370.18 964.09
  Q 355.23 952.13 335.06 941.95
  Q 316.90 932.78 297.63 930.90"
/>
<path stroke="#1a86ae" vector-effect="non-scaling-stroke" d="
  M 297.63 930.90
  Q 290.04 929.00 281.94 930.50"
/>
<path stroke="#00647d" vector-effect="non-scaling-stroke" d="
  M 281.94 930.50
  C 255.82 932.06 231.45 942.82 211.76 960.08
  Q 197.72 972.38 186.35 986.56
  C 163.74 1014.74 147.22 1043.00 127.12 1078.65
  Q 108.44 1111.76 97.87 1131.64
  Q 83.39 1158.86 68.27 1187.54
  C 67.07 1189.83 66.39 1192.30 64.81 1194.29
  A 1.60 1.59 -76.6 0 1 63.92 1194.84
  C 62.10 1195.23 60.15 1195.27 58.35 1195.76
  Q 30.05 1203.37 1.95 1212.99"
/>
<path stroke="#b2eefa" vector-effect="non-scaling-stroke" d="
  M 1612.03 1370.31
  L 1439.06 1370.37
  A 0.78 0.78 0.0 0 0 1438.29 1371.28
  C 1441.13 1388.13 1439.51 1408.13 1426.75 1420.22
  C 1412.00 1434.20 1390.76 1432.02 1378.35 1416.52
  A 1.85 1.84 -30.1 0 0 1376.23 1415.96
  Q 1347.17 1427.45 1318.36 1433.94
  Q 1279.93 1442.59 1244.03 1444.16
  C 1178.15 1447.06 1111.51 1440.73 1050.13 1421.35
  Q 1021.44 1412.29 998.42 1397.33
  A 1.87 1.85 -43.9 0 0 996.45 1397.30
  Q 983.96 1404.86 970.13 1411.54
  Q 950.18 1421.17 929.02 1429.22
  Q 914.66 1434.69 884.81 1444.09
  Q 878.01 1446.23 869.31 1448.36
  Q 861.13 1450.37 853.52 1452.56
  Q 827.39 1460.11 798.60 1465.06
  Q 786.82 1467.08 774.89 1469.04
  Q 769.82 1469.87 764.48 1470.43
  Q 760.18 1470.87 754.01 1471.66
  Q 737.93 1473.71 720.25 1474.35
  C 668.45 1476.22 616.52 1472.46 566.05 1463.88
  Q 527.29 1457.30 488.78 1446.29
  Q 459.67 1437.97 433.21 1426.52
  Q 403.21 1413.54 379.90 1393.64
  A 0.73 0.73 0.0 0 0 378.71 1394.02
  C 375.54 1406.94 366.29 1419.33 353.01 1422.88
  Q 339.27 1426.56 327.57 1418.11
  C 313.51 1407.96 311.42 1387.24 311.99 1371.71
  A 1.21 1.21 0.0 0 0 310.77 1370.46
  Q 287.61 1370.66 264.73 1370.52
  C 263.53 1370.52 262.55 1370.98 262.00 1372.10
  Q 251.07 1394.07 232.49 1410.69
  C 225.87 1416.62 217.47 1421.64 209.05 1422.77
  C 185.44 1425.93 170.04 1405.71 176.67 1383.17
  Q 178.40 1377.30 181.22 1371.80
  A 0.79 0.79 0.0 0 0 180.51 1370.65
  L 1.94 1370.71"
/>
<path stroke="#b2eefa" vector-effect="non-scaling-stroke" d="
  M 801.29 1244.13
  Q 805.96 1249.19 812.29 1248.85"
/>
<path stroke="#747e80" vector-effect="non-scaling-stroke" d="
  M 1611.09 1215.44
  Q 1610.36 1216.85 1608.90 1217.19
  C 1589.89 1221.68 1569.87 1225.01 1550.20 1227.42
  Q 1488.98 1234.92 1428.46 1221.88"
/>
<path stroke="#3e707b" vector-effect="non-scaling-stroke" d="
  M 1428.46 1221.88
  C 1423.68 1220.53 1418.78 1219.75 1413.97 1218.61
  C 1376.64 1209.74 1339.67 1196.37 1303.59 1181.08
  Q 1294.48 1177.22 1285.62 1173.10
  C 1259.09 1160.76 1231.95 1147.18 1206.90 1134.93
  Q 1198.45 1130.81 1188.71 1126.53
  Q 1147.11 1108.25 1102.14 1093.84
  C 1038.23 1073.35 970.49 1062.65 903.43 1066.96
  C 845.10 1070.72 785.46 1084.45 730.33 1104.39
  Q 660.26 1129.73 588.77 1164.99
  Q 587.88 1165.43 588.85 1165.66
  Q 625.80 1174.31 662.35 1185.71
  Q 754.50 1214.45 842.17 1256.21"
/>
<path stroke="#747e80" vector-effect="non-scaling-stroke" d="
  M 842.17 1256.21
  Q 852.85 1261.28 863.99 1266.73
  Q 888.00 1278.49 911.55 1291.75
  Q 913.75 1292.99 913.34 1295.48
  Q 913.19 1296.41 912.23 1296.86
  Q 910.59 1297.63 909.01 1296.75
  Q 861.78 1270.54 812.29 1248.85"
/>
<path stroke="#3e707b" vector-effect="non-scaling-stroke" d="
  M 812.29 1248.85
  L 801.29 1244.13"
/>
<path stroke="#747e80" vector-effect="non-scaling-stroke" d="
  M 801.29 1244.13
  Q 799.42 1242.98 795.85 1241.42
  Q 709.94 1204.04 620.57 1179.51
  C 608.44 1176.17 596.15 1173.45 583.98 1170.54
  Q 506.44 1151.99 426.59 1149.42
  C 343.89 1146.76 258.82 1156.21 176.84 1173.31
  Q 88.35 1191.77 1.98 1219.06"
/>
<path stroke="#1a2331" vector-effect="non-scaling-stroke" d="
  M 281.94 930.50
  L 297.63 930.90"
/>
<path stroke="#b2eefa" vector-effect="non-scaling-stroke" d="
  M 1428.46 1221.88
  L 1407.13 1222.72
  A 0.90 0.90 0.0 0 0 1406.33 1223.95
  C 1408.59 1229.63 1407.26 1236.40 1400.82 1238.36
  C 1391.04 1241.34 1386.97 1230.31 1385.03 1223.34
  A 1.50 1.49 89.6 0 0 1383.98 1222.30
  L 1361.67 1216.36
  Q 1361.10 1216.20 1360.93 1216.77
  Q 1359.10 1222.94 1355.48 1228.42
  Q 1353.48 1231.45 1351.56 1232.52
  C 1345.45 1235.91 1337.38 1231.51 1337.21 1224.42
  C 1337.10 1219.92 1339.52 1215.55 1341.85 1211.84
  A 0.67 0.67 0.0 0 0 1341.45 1210.83
  Q 1325.01 1206.55 1308.61 1201.94
  Q 1305.58 1201.09 1302.86 1199.87
  Q 1255.89 1178.69 1209.25 1156.68
  Q 1175.16 1140.60 1146.22 1127.55
  C 1120.66 1116.01 1093.34 1105.67 1065.75 1098.30
  Q 984.79 1076.65 901.45 1100.11
  A 0.49 0.48 -33.8 0 0 901.28 1100.96
  C 904.06 1103.13 907.01 1106.31 907.17 1109.99
  C 907.59 1119.87 895.72 1123.11 889.22 1116.73
  C 885.85 1113.42 882.38 1110.93 877.94 1108.88
  Q 876.47 1108.21 875.01 1108.85
  Q 870.85 1110.67 866.94 1112.32
  A 0.78 0.78 0.0 0 0 866.75 1113.65
  C 871.32 1117.32 875.96 1121.98 873.30 1128.30
  Q 871.09 1133.54 864.91 1134.07
  C 859.18 1134.56 854.92 1129.92 851.31 1126.03
  A 1.16 1.16 0.0 0 0 849.80 1125.86
  C 827.63 1141.04 813.61 1160.77 813.19 1188.77
  A 1.11 1.10 87.7 0 1 812.19 1189.86
  Q 807.46 1190.30 802.88 1189.94
  C 789.16 1188.86 787.82 1208.50 801.28 1210.16
  Q 807.35 1210.91 814.47 1209.48
  A 1.28 1.27 -12.8 0 1 815.95 1210.41
  Q 819.88 1225.71 828.87 1238.88
  Q 834.05 1246.46 842.17 1256.21"
/>
<path stroke="#777b80" vector-effect="non-scaling-stroke" d="
  M 675.14 938.19
  C 677.06 935.68 680.02 936.97 681.02 939.46
  Q 684.21 947.36 688.06 954.50
  C 695.93 969.06 712.46 984.50 730.51 980.76
  C 738.30 979.15 742.84 972.56 742.59 964.72
  Q 742.57 964.20 742.29 963.77
  Q 724.55 936.85 705.90 913.71
  Q 691.28 895.56 675.84 881.17
  C 660.19 866.59 643.26 854.51 623.37 848.80
  Q 600.68 842.28 577.37 851.30
  Q 565.16 856.03 559.50 859.17
  C 525.99 877.74 497.46 903.56 472.40 933.22
  A 1.07 1.07 0.0 0 0 472.45 934.65
  C 481.04 943.37 490.01 948.74 502.83 944.67
  Q 511.18 942.02 517.37 938.66
  C 520.35 937.04 527.57 935.11 527.49 940.73
  Q 527.45 944.06 525.99 947.25
  Q 516.84 967.11 522.22 987.77
  C 526.99 1006.13 541.85 1019.56 561.04 1020.84
  C 580.14 1022.11 596.33 1012.92 603.66 995.23
  C 609.02 982.31 610.11 968.47 610.32 953.96
  Q 610.35 951.82 612.22 950.77
  Q 612.76 950.46 613.33 950.60
  Q 616.13 951.32 616.38 954.21
  Q 616.81 959.18 618.44 964.01
  C 622.99 977.45 637.83 983.52 651.02 981.25
  Q 660.79 979.57 667.98 971.95
  C 676.16 963.28 676.22 951.66 674.69 939.85
  A 2.26 2.23 -30.1 0 1 675.14 938.19"
/>
<path stroke="#777b80" vector-effect="non-scaling-stroke" d="
  M 1302.61 975.13
  C 1304.84 971.80 1310.16 972.03 1309.42 977.01
  C 1308.06 986.16 1306.91 994.75 1308.43 1004.02
  C 1310.09 1014.16 1315.50 1022.43 1326.07 1024.25
  C 1348.02 1028.02 1351.97 999.87 1352.31 984.57
  C 1352.42 979.40 1357.96 978.72 1359.09 984.08
  C 1360.87 992.48 1364.10 1001.06 1370.89 1006.33
  C 1381.18 1014.32 1395.98 1010.95 1400.82 998.85
  C 1403.41 992.37 1402.28 984.01 1400.73 976.97
  C 1399.76 972.58 1404.70 969.93 1407.04 974.10
  C 1412.09 983.11 1417.42 992.04 1425.04 999.32
  C 1432.69 1006.63 1441.08 1009.21 1451.15 1005.62
  A 0.44 0.43 64.1 0 0 1451.37 1004.97
  C 1433.92 977.69 1413.48 950.09 1384.33 934.41
  Q 1364.80 923.91 1342.03 925.54
  C 1306.97 928.07 1279.36 950.88 1259.08 978.33
  Q 1257.46 980.52 1256.46 983.06
  C 1254.48 988.10 1252.07 993.53 1255.52 998.48
  Q 1259.02 1003.49 1265.42 1003.95
  C 1280.82 1005.04 1295.08 986.38 1302.61 975.13"
/>
<path stroke="#777b80" vector-effect="non-scaling-stroke" d="
  M 198.82 1015.56
  Q 203.40 1015.81 202.88 1020.21
  Q 202.42 1024.07 201.06 1028.57
  C 198.20 1038.02 199.02 1048.04 203.37 1056.90
  C 209.72 1069.82 222.65 1075.48 236.19 1070.69
  Q 256.62 1063.48 266.29 1042.42
  Q 270.34 1033.62 273.94 1020.13
  C 275.13 1015.67 280.22 1017.69 280.59 1021.71
  C 281.58 1032.57 285.33 1041.82 293.75 1048.58
  C 301.68 1054.95 312.28 1056.58 320.63 1050.38
  C 332.27 1041.74 336.58 1026.57 334.86 1012.01
  C 334.64 1010.20 335.35 1008.20 337.30 1007.73
  A 2.61 2.60 75.2 0 1 340.42 1009.55
  C 343.28 1019.57 347.03 1029.73 354.16 1036.87
  C 358.80 1041.52 365.40 1043.88 371.48 1041.02
  C 383.06 1035.58 386.24 1023.24 383.64 1011.56
  Q 382.89 1008.18 381.92 1004.94
  C 380.70 1000.89 385.93 999.00 387.73 1003.47
  C 390.05 1009.24 393.91 1014.07 400.96 1010.97
  C 403.04 1010.05 404.74 1008.16 406.12 1006.38
  Q 406.86 1005.43 406.01 1004.57
  Q 391.95 990.24 377.28 977.46
  C 358.12 960.75 335.58 945.62 312.11 939.25
  Q 287.24 932.49 261.38 939.53
  C 218.52 951.18 190.47 987.54 166.87 1023.24
  C 166.07 1024.46 165.31 1025.06 165.81 1026.64
  C 166.75 1029.56 169.15 1034.74 172.94 1033.65
  Q 178.83 1031.96 183.97 1027.24
  Q 189.74 1021.95 196.43 1016.35
  Q 197.47 1015.48 198.82 1015.56"
/>
<path stroke="#0a1323" vector-effect="non-scaling-stroke" d="
  M 452.88 956.59
  Q 440.18 972.59 431.82 984.09
  Q 373.34 1064.59 315.38 1146.12
  A 0.60 0.59 14.6 0 0 315.93 1147.05
  Q 327.41 1145.94 339.31 1144.96
  Q 349.24 1144.14 358.93 1143.86
  C 374.13 1143.42 389.98 1142.96 405.87 1143.20
  C 449.32 1143.89 492.57 1147.46 535.47 1154.69
  Q 556.84 1158.29 576.72 1163.00
  Q 578.76 1163.48 580.67 1162.55
  Q 616.52 1144.99 651.87 1129.25
  C 657.42 1126.78 663.34 1124.59 668.89 1122.08
  C 672.80 1120.30 676.86 1118.98 680.75 1117.21
  C 689.36 1113.29 698.59 1110.10 707.27 1106.78
  Q 754.85 1088.57 804.64 1076.26
  A 0.86 0.86 0.0 0 0 805.20 1075.04
  L 788.47 1042.24"
/>
<path stroke="#1a2331" vector-effect="non-scaling-stroke" d="
  M 788.47 1042.24
  Q 788.44 1041.81 788.26 1041.47
  Q 769.47 1006.08 747.84 972.23
  A 0.43 0.43 0.0 0 0 747.07 972.34
  C 743.97 982.64 735.14 987.11 724.99 987.03
  Q 717.57 986.98 711.03 984.31"
/>
<path stroke="#0a1323" vector-effect="non-scaling-stroke" d="
  M 711.03 984.31
  Q 691.92 974.79 682.66 956.14
  Q 681.36 953.51 680.96 956.42
  C 680.54 959.55 679.93 963.15 678.52 966.25
  Q 677.52 968.44 676.73 970.06"
/>
<path stroke="#1a2331" vector-effect="non-scaling-stroke" d="
  M 676.73 970.06
  Q 666.29 985.63 648.20 987.45"
/>
<path stroke="#0a1323" vector-effect="non-scaling-stroke" d="
  M 648.20 987.45
  Q 627.78 988.60 615.88 972.34
  A 0.46 0.46 0.0 0 0 615.05 972.53
  L 612.38 987.58"
/>
<path stroke="#1a2331" vector-effect="non-scaling-stroke" d="
  M 612.38 987.58
  Q 611.31 991.55 609.80 995.54
  Q 603.09 1013.26 587.21 1021.41
  C 577.62 1026.33 564.25 1028.13 553.98 1025.95
  Q 543.46 1023.72 535.50 1017.51
  Q 529.76 1013.03 524.25 1006.79"
/>
<path stroke="#0a1323" vector-effect="non-scaling-stroke" d="
  M 524.25 1006.79
  Q 522.92 1003.85 521.51 1001.23
  C 512.07 983.80 512.87 963.17 520.38 945.17
  Q 521.18 943.25 519.31 944.16
  C 510.58 948.40 501.91 951.91 492.07 951.90
  Q 489.88 951.90 483.46 950.02"
/>
<path stroke="#1a2331" vector-effect="non-scaling-stroke" d="
  M 483.46 950.02
  Q 475.15 945.67 468.76 938.91
  A 0.87 0.86 -46.9 0 0 467.46 938.96
  L 452.88 956.59"
/>
<path stroke="#243654" vector-effect="non-scaling-stroke" d="
  M 483.46 950.02
  C 487.62 955.61 494.93 957.53 501.40 957.54
  A 0.79 0.78 3.5 0 1 502.18 958.42
  Q 500.72 970.13 504.43 981.61
  Q 509.70 997.93 524.25 1006.79"
/>
<path stroke="#243654" vector-effect="non-scaling-stroke" d="
  M 612.38 987.58
  Q 613.71 986.49 614.58 986.89
  C 621.00 989.81 625.76 992.26 633.42 991.67
  C 638.72 991.26 643.79 990.27 648.20 987.45"
/>
<path stroke="#243654" vector-effect="non-scaling-stroke" d="
  M 676.73 970.06
  Q 690.54 985.53 711.03 984.31"
/>
<path stroke="#243654" vector-effect="non-scaling-stroke" d="
  M 788.47 1042.24
  Q 788.15 1042.64 787.46 1042.65
  Q 786.92 1042.66 786.40 1042.75
  Q 766.28 1046.43 747.51 1051.47
  Q 706.94 1062.37 668.31 1076.32
  C 664.74 1077.61 661.67 1079.42 658.86 1081.99
  C 643.91 1095.70 627.71 1108.68 610.57 1118.34
  Q 602.36 1122.96 594.11 1126.18
  Q 557.77 1140.33 525.39 1117.80
  C 478.46 1085.13 460.63 1023.14 453.84 968.46
  C 453.38 964.78 453.28 960.60 452.88 956.59"
/>
<path stroke="#777b80" vector-effect="non-scaling-stroke" d="
  M 887.67 996.03
  C 889.46 994.20 892.16 995.16 892.91 997.49
  C 895.12 1004.34 898.25 1010.10 905.47 1012.54
  C 911.53 1014.58 915.33 1010.65 917.19 1005.53
  A 1.20 1.19 37.1 0 0 917.03 1004.41
  Q 910.63 995.95 904.43 988.14
  C 891.55 971.94 870.04 954.13 847.57 961.93
  C 832.62 967.13 819.93 980.60 810.62 993.90
  Q 810.06 994.69 809.97 995.58
  C 809.55 999.63 808.72 1004.78 810.37 1008.63
  C 812.79 1014.33 819.52 1016.22 825.22 1014.99
  C 832.90 1013.34 836.86 1006.20 839.85 999.32
  Q 840.54 997.71 841.69 996.42
  C 843.23 994.69 846.07 995.17 847.16 997.07
  Q 847.96 998.47 848.09 1000.14
  C 848.94 1010.66 852.46 1024.16 864.45 1025.64
  C 875.76 1027.04 884.85 1019.53 886.52 1008.53
  Q 887.29 1003.44 886.92 998.07
  A 2.67 2.66 65.3 0 1 887.67 996.03"
/>
<path stroke="#1a2331" vector-effect="non-scaling-stroke" d="
  M 1235.99 1017.17
  L 1231.57 1025.26"
/>
<path stroke="#0a1323" vector-effect="non-scaling-stroke" d="
  M 1231.57 1025.26
  Q 1210.06 1072.86 1194.24 1121.58
  A 1.14 1.13 21.7 0 0 1194.84 1122.96
  C 1216.78 1133.33 1238.82 1143.85 1260.59 1154.80
  C 1304.16 1176.72 1351.63 1195.75 1397.97 1208.67
  Q 1431.10 1217.91 1466.11 1222.22
  Q 1476.30 1223.48 1486.49 1223.99
  Q 1513.34 1225.33 1541.82 1222.69
  A 0.94 0.94 0.0 0 0 1542.63 1221.47
  L 1528.90 1177.45"
/>
<path stroke="#1a2331" vector-effect="non-scaling-stroke" d="
  M 1528.90 1177.45
  Q 1512.41 1127.48 1488.99 1076.24
  Q 1473.25 1041.81 1456.49 1013.15"
/>
<path stroke="#0a1323" vector-effect="non-scaling-stroke" d="
  M 1456.49 1013.15
  C 1455.83 1011.84 1454.74 1010.39 1453.17 1010.94
  Q 1437.10 1016.51 1424.76 1006.51
  C 1418.19 1001.19 1413.18 995.03 1408.72 987.89
  Q 1408.23 987.12 1408.14 988.03
  C 1407.68 992.49 1407.85 995.75 1406.30 1000.93"
/>
<path stroke="#1a2331" vector-effect="non-scaling-stroke" d="
  M 1406.30 1000.93
  C 1400.28 1014.68 1386.01 1019.32 1372.25 1014.65"
/>
<path stroke="#0a1323" vector-effect="non-scaling-stroke" d="
  M 1372.25 1014.65
  Q 1369.79 1012.97 1367.13 1011.43
  C 1365.86 1010.70 1365.07 1009.46 1363.91 1008.52
  C 1361.24 1006.34 1359.27 1002.24 1357.83 999.13
  Q 1357.18 997.72 1356.86 999.24
  L 1355.39 1006.19"
/>
<path stroke="#1a2331" vector-effect="non-scaling-stroke" d="
  M 1355.39 1006.19
  Q 1353.93 1010.07 1353.03 1012.59
  C 1349.14 1023.38 1340.15 1031.04 1328.21 1030.17
  C 1310.07 1028.85 1302.93 1014.68 1302.00 998.19"
/>
<path stroke="#0a1323" vector-effect="non-scaling-stroke" d="
  M 1302.00 998.19
  L 1302.40 987.37
  Q 1302.48 985.23 1301.00 986.77
  C 1299.77 988.05 1298.66 990.06 1297.59 991.35
  Q 1290.89 999.48 1281.88 1005.09
  C 1270.85 1011.97 1257.05 1012.12 1249.69 999.97
  C 1248.98 998.78 1248.90 997.32 1248.44 996.02
  A 0.60 0.60 0.0 0 0 1247.34 995.94
  L 1235.99 1017.17"
/>
<path stroke="#243654" vector-effect="non-scaling-stroke" d="
  M 1302.00 998.19
  Q 1291.84 1009.73 1280.14 1014.64
  Q 1268.19 1019.66 1256.47 1014.46
  A 0.63 0.63 0.0 0 0 1255.59 1015.14
  C 1258.03 1029.54 1261.41 1043.30 1265.88 1056.97
  Q 1287.58 1123.25 1346.76 1160.20
  Q 1359.02 1167.86 1372.77 1174.16
  Q 1415.14 1193.61 1461.11 1198.37
  Q 1464.81 1198.75 1468.15 1198.35
  Q 1484.78 1196.36 1504.92 1189.66
  Q 1518.40 1185.17 1528.90 1177.45"
/>
<path stroke="#243654" vector-effect="non-scaling-stroke" d="
  M 1231.57 1025.26
  Q 1232.49 1028.67 1234.39 1040.38
  Q 1240.58 1078.38 1267.59 1110.00
  A 0.59 0.59 0.0 0 0 1268.26 1110.16
  L 1268.57 1110.04
  A 0.29 0.29 0.0 0 0 1268.70 1109.62
  Q 1256.31 1089.87 1248.49 1067.03
  Q 1240.16 1042.67 1235.99 1017.17"
/>
<path stroke="#243654" vector-effect="non-scaling-stroke" d="
  M 1456.49 1013.15
  Q 1444.04 1020.28 1430.71 1017.09
  Q 1419.04 1014.29 1411.28 1005.97
  Q 1407.77 1002.20 1406.30 1000.93"
/>
<path stroke="#243654" vector-effect="non-scaling-stroke" d="
  M 1372.25 1014.65
  Q 1362.74 1015.66 1355.39 1006.19"
/>
<path stroke="#1f1c2d" vector-effect="non-scaling-stroke" d="
  M 863.41 1065.25
  L 867.63 1064.57"
/>
<path stroke="#0a1323" vector-effect="non-scaling-stroke" d="
  M 867.63 1064.57
  L 902.00 1060.88"
/>
<path stroke="#1f1c2d" vector-effect="non-scaling-stroke" d="
  M 902.00 1060.88
  L 945.72 1060.47"
/>
<path stroke="#263142" vector-effect="non-scaling-stroke" d="
  M 945.72 1060.47
  L 952.14 1060.53
  A 0.28 0.28 0.0 0 0 952.38 1060.12
  Q 939.65 1037.22 924.81 1015.58"
/>
<path stroke="#1f1c2d" vector-effect="non-scaling-stroke" d="
  M 924.81 1015.58
  L 921.71 1010.90
  A 0.49 0.49 0.0 0 0 920.86 1010.95
  Q 917.43 1017.87 909.84 1018.93"
/>
<path stroke="#0a1323" vector-effect="non-scaling-stroke" d="
  M 909.84 1018.93
  Q 898.83 1018.35 892.62 1010.08
  A 0.26 0.26 0.0 0 0 892.16 1010.18
  Q 891.14 1015.50 888.02 1019.82
  Q 886.49 1021.93 885.40 1023.54"
/>
<path stroke="#1f1c2d" vector-effect="non-scaling-stroke" d="
  M 885.40 1023.54
  Q 878.17 1031.56 866.37 1031.51"
/>
<path stroke="#0a1323" vector-effect="non-scaling-stroke" d="
  M 866.37 1031.51
  Q 854.31 1031.40 848.04 1020.52
  Q 844.41 1014.21 843.53 1007.86
  Q 843.17 1005.29 842.00 1007.60
  C 836.49 1018.47 825.01 1024.16 813.37 1019.17
  C 807.86 1016.81 804.33 1011.71 803.93 1005.63
  A 0.50 0.49 70.9 0 0 803.16 1005.25
  Q 802.73 1005.55 802.47 1006.00
  Q 795.77 1017.50 790.25 1029.17
  Q 789.21 1031.37 790.36 1033.46
  Q 800.43 1051.77 809.71 1071.54
  C 810.43 1073.07 811.00 1074.94 813.23 1074.41
  C 829.76 1070.48 846.53 1067.88 863.41 1065.25"
/>
<path stroke="#292f50" vector-effect="non-scaling-stroke" d="
  M 866.37 1031.51
  Q 866.53 1033.97 869.19 1037.33
  Q 876.94 1047.09 886.02 1053.41
  Q 888.69 1055.26 893.58 1057.17
  Q 897.63 1058.74 902.00 1060.88"
/>
<path stroke="#292f50" vector-effect="non-scaling-stroke" d="
  M 867.63 1064.57
  Q 856.93 1053.72 852.51 1047.99
  Q 850.63 1045.54 846.34 1037.94
  Q 845.52 1036.48 844.03 1035.09
  Q 843.58 1034.67 843.63 1035.28
  Q 844.01 1039.89 846.50 1045.52
  Q 852.07 1058.10 863.41 1065.25"
/>
<path stroke="#454d6f" vector-effect="non-scaling-stroke" d="
  M 924.81 1015.58
  C 922.10 1028.56 925.43 1043.80 934.97 1053.46
  Q 936.69 1055.21 940.20 1057.15
  Q 942.89 1058.65 945.72 1060.47"
/>
<path stroke="#292f50" vector-effect="non-scaling-stroke" d="
  M 909.84 1018.93
  Q 905.33 1023.18 899.21 1023.70
  Q 892.25 1024.29 885.40 1023.54"
/>
<path stroke="#1f1c2d" vector-effect="non-scaling-stroke" d="
  M 214.65 1076.20
  Q 196.76 1066.25 193.90 1045.20"
/>
<path stroke="#0a1323" vector-effect="non-scaling-stroke" d="
  M 193.90 1045.20
  Q 193.24 1035.28 195.90 1025.49
  Q 195.97 1025.24 195.89 1024.97
  Q 195.78 1024.62 195.35 1024.60
  A 0.52 0.51 23.3 0 0 194.96 1024.75
  C 189.79 1030.06 182.71 1036.33 175.97 1038.75
  Q 170.64 1040.66 164.57 1037.05"
/>
<path stroke="#1f1c2d" vector-effect="non-scaling-stroke" d="
  M 164.57 1037.05
  L 162.13 1032.47
  A 0.81 0.81 0.0 0 0 160.72 1032.43
  Q 142.23 1062.92 125.32 1093.80
  C 115.76 1111.27 106.13 1128.37 96.46 1146.13"
/>
<path stroke="#0a1323" vector-effect="non-scaling-stroke" d="
  M 96.46 1146.13
  L 72.75 1190.57
  A 0.79 0.74 69.6 0 0 72.65 1190.81
  Q 72.12 1192.50 73.21 1192.22
  Q 122.37 1179.36 160.98 1170.97
  Q 177.55 1167.36 183.29 1165.81"
/>
<path stroke="#1f1c2d" vector-effect="non-scaling-stroke" d="
  M 183.29 1165.81
  Q 198.98 1163.59 214.18 1159.89"
/>
<path stroke="#0a1323" vector-effect="non-scaling-stroke" d="
  M 214.18 1159.89
  Q 216.43 1160.13 219.00 1158.88
  C 220.91 1157.96 223.60 1158.79 225.65 1158.47
  C 252.03 1154.30 278.85 1150.15 305.60 1147.89
  A 3.26 3.23 -74.2 0 0 307.97 1146.55
  L 399.68 1018.72
  Q 400.74 1017.23 398.93 1017.50
  C 395.95 1017.94 393.57 1017.22 390.87 1016.07
  A 0.56 0.55 12.5 0 0 390.10 1016.56
  Q 390.02 1019.00 389.88 1021.45
  Q 389.14 1034.57 379.79 1042.36
  C 363.53 1055.89 347.79 1042.83 340.95 1027.55
  Q 340.86 1027.37 340.67 1027.40
  Q 340.53 1027.42 340.38 1027.41
  Q 340.16 1027.40 340.13 1027.61
  Q 337.52 1044.20 325.27 1053.85
  Q 311.16 1064.97 294.77 1056.13
  C 286.05 1051.42 280.20 1043.23 277.07 1033.58
  Q 276.50 1031.83 275.94 1033.59
  C 271.70 1047.02 265.07 1058.79 253.92 1067.30
  C 245.45 1073.76 237.40 1077.32 227.92 1078.08
  C 222.91 1078.48 219.16 1076.92 214.65 1076.20"
/>
<path stroke="#292f50" vector-effect="non-scaling-stroke" d="
  M 214.18 1159.89
  Q 224.87 1156.53 235.41 1153.22
  C 237.29 1152.63 239.36 1151.21 241.60 1150.55
  C 249.98 1148.07 257.92 1142.50 265.16 1137.32
  Q 298.45 1113.53 323.22 1085.25
  C 328.57 1079.15 333.42 1072.63 338.48 1066.11
  A 1.69 1.69 0.0 0 0 338.16 1063.72
  L 335.84 1061.98
  A 1.72 1.71 44.1 0 0 333.73 1062.01
  C 326.73 1067.61 318.94 1071.48 309.99 1073.06
  C 298.27 1075.12 285.83 1070.95 277.72 1062.57
  A 1.50 1.50 0.0 0 0 275.39 1062.80
  C 269.62 1071.72 260.79 1078.38 251.00 1082.64
  C 243.93 1085.71 237.28 1086.31 229.86 1085.76
  C 224.39 1085.36 216.63 1081.73 214.65 1076.20"
/>
<path stroke="#292f50" vector-effect="non-scaling-stroke" d="
  M 183.29 1165.81
  Q 175.43 1165.82 167.59 1166.27
  Q 157.03 1166.86 151.91 1166.52
  Q 139.00 1165.66 126.90 1162.35
  Q 109.52 1157.61 96.46 1146.13"
/>
<path stroke="#292f50" vector-effect="non-scaling-stroke" d="
  M 193.90 1045.20
  Q 187.55 1047.09 185.75 1047.30
  Q 171.10 1048.99 164.57 1037.05"
/>
<path stroke="#f6fbff" vector-effect="non-scaling-stroke" d="
  M 594.94 876.45
  C 593.40 867.56 584.12 866.16 577.33 869.88
  C 568.25 874.85 556.59 885.47 555.70 896.39
  C 554.91 905.95 561.76 911.09 570.81 909.28
  C 583.00 906.83 597.09 888.81 594.94 876.45"
/>
<path stroke="#f6fbff" vector-effect="non-scaling-stroke" d="
  M 623.7630 900.7972
  A 11.25 9.97 52.6 0 0 624.8503 885.8045
  A 11.25 9.97 52.6 0 0 610.0970 882.9228
  A 11.25 9.97 52.6 0 0 609.0097 897.9155
  A 11.25 9.97 52.6 0 0 623.7630 900.7972"
/>
<path stroke="#f6fbff" vector-effect="non-scaling-stroke" d="
  M 1380.4179 956.6007
  A 13.46 10.35 49.8 0 0 1379.6353 939.6395
  A 13.46 10.35 49.8 0 0 1363.0421 936.0393
  A 13.46 10.35 49.8 0 0 1363.8247 953.0005
  A 13.46 10.35 49.8 0 0 1380.4179 956.6007"
/>
<path stroke="#f6fbff" vector-effect="non-scaling-stroke" d="
  M 1331.4979 963.0876
  A 11.29 10.27 120.1 0 0 1346.0451 958.4705
  A 11.29 10.27 120.1 0 0 1342.8221 943.5524
  A 11.29 10.27 120.1 0 0 1328.2749 948.1695
  A 11.29 10.27 120.1 0 0 1331.4979 963.0876"
/>
<path stroke="#f6fbff" vector-effect="non-scaling-stroke" d="
  M 254.31 956.32
  Q 251.31 956.29 248.38 957.89
  C 240.31 962.30 229.43 971.14 229.87 981.25
  Q 230.14 987.36 234.84 989.97
  C 245.49 995.88 257.71 983.81 262.21 975.07
  C 266.16 967.41 265.13 956.43 254.31 956.32"
/>
<path stroke="#f6fbff" vector-effect="non-scaling-stroke" d="
  M 285.2210 988.8033
  A 12.21 10.10 93.0 0 0 295.9462 977.1386
  A 12.21 10.10 93.0 0 0 286.4990 964.4167
  A 12.21 10.10 93.0 0 0 275.7738 976.0814
  A 12.21 10.10 93.0 0 0 285.2210 988.8033"
/>
<path stroke="#405473" vector-effect="non-scaling-stroke" d="
  M 508.60 1080.21
  C 511.75 1088.93 518.60 1097.49 527.56 1100.76
  C 539.66 1105.19 551.92 1096.79 549.50 1083.54
  Q 545.91 1063.90 532.37 1048.68
  C 522.98 1038.13 508.71 1041.66 506.72 1056.23
  Q 504.86 1069.83 508.60 1080.21"
/>
<path stroke="#405473" vector-effect="non-scaling-stroke" d="
  M 613.35 1093.82
  C 621.20 1099.09 628.90 1093.71 634.39 1087.61
  Q 640.10 1081.24 644.25 1073.99
  C 647.24 1068.76 649.67 1062.91 646.63 1057.31
  C 642.57 1049.82 636.72 1044.68 627.82 1049.74
  C 619.47 1054.48 613.35 1063.16 609.39 1072.20
  C 606.19 1079.46 606.22 1089.03 613.35 1093.82"
/>
<path stroke="#405473" vector-effect="non-scaling-stroke" d="
  M 575.2679 1081.7162
  A 14.35 11.46 55.5 0 0 576.5845 1063.3990
  A 14.35 11.46 55.5 0 0 559.0121 1058.0638
  A 14.35 11.46 55.5 0 0 557.6955 1076.3810
  A 14.35 11.46 55.5 0 0 575.2679 1081.7162"
/>
<path stroke="#243654" vector-effect="non-scaling-stroke" d="
  M 437.50 1116.22
  C 442.10 1111.60 442.06 1104.85 440.71 1098.77
  Q 438.32 1088.02 433.88 1080.74
  C 425.63 1067.21 408.14 1072.51 409.39 1088.45
  C 410.02 1096.59 413.71 1110.07 420.53 1116.23
  C 425.46 1120.69 432.71 1121.04 437.50 1116.22"
/>
<path stroke="#f6fbff" vector-effect="non-scaling-stroke" d="
  M 884.2569 986.6014
  A 11.43 10.15 29.0 0 0 879.1808 972.1826
  A 11.43 10.15 29.0 0 0 864.2631 975.5186
  A 11.43 10.15 29.0 0 0 869.3392 989.9374
  A 11.43 10.15 29.0 0 0 884.2569 986.6014"
/>
<path stroke="#243654" vector-effect="non-scaling-stroke" d="
  M 1279.4042 1146.8252
  A 11.78 10.68 44.9 0 0 1278.5987 1130.9449
  A 11.78 10.68 44.9 0 0 1262.7158 1130.1948
  A 11.78 10.68 44.9 0 0 1263.5213 1146.0751
  A 11.78 10.68 44.9 0 0 1279.4042 1146.8252"
/>
<path stroke="#405473" vector-effect="non-scaling-stroke" d="
  M 1338.57 1114.65
  C 1344.30 1126.23 1354.25 1135.91 1366.90 1138.32
  C 1375.46 1139.96 1383.69 1136.63 1385.44 1127.49
  C 1387.83 1115.04 1368.97 1096.68 1360.37 1090.42
  C 1355.22 1086.66 1347.43 1085.13 1342.10 1089.23
  C 1334.41 1095.14 1334.67 1106.76 1338.57 1114.65"
/>
<path stroke="#405473" vector-effect="non-scaling-stroke" d="
  M 1402.80 1115.29
  C 1405.04 1122.83 1410.56 1131.08 1419.17 1130.43
  C 1437.42 1129.03 1432.11 1101.29 1419.71 1095.77
  C 1412.19 1092.43 1404.88 1097.97 1402.33 1104.98
  C 1401.06 1108.47 1401.78 1111.87 1402.80 1115.29"
/>
<path stroke="#454d6f" vector-effect="non-scaling-stroke" d="
  M 905.5813 1054.7346
  A 12.18 10.42 88.3 0 0 915.6354 1042.2509
  A 12.18 10.42 88.3 0 0 904.8587 1030.3854
  A 12.18 10.42 88.3 0 0 894.8046 1042.8691
  A 12.18 10.42 88.3 0 0 905.5813 1054.7346"
/>
<path stroke="#454d6f" vector-effect="non-scaling-stroke" d="
  M 141.06 1099.77
  C 135.17 1108.47 121.34 1133.20 136.01 1140.78
  C 141.86 1143.79 148.72 1141.11 153.35 1136.82
  Q 165.56 1125.50 169.78 1108.48
  C 171.95 1099.74 166.68 1090.08 156.89 1090.56
  Q 146.97 1091.04 141.06 1099.77"
/>
<path stroke="#454d6f" vector-effect="non-scaling-stroke" d="
  M 186.3356 1142.0914
  A 14.44 11.73 98.5 0 0 200.0712 1129.5438
  A 14.44 11.73 98.5 0 0 190.6044 1113.5286
  A 14.44 11.73 98.5 0 0 176.8688 1126.0762
  A 14.44 11.73 98.5 0 0 186.3356 1142.0914"
/>
<path stroke="#b2eefa" vector-effect="non-scaling-stroke" d="
  M 749.33 1155.01
  C 760.26 1157.81 779.09 1145.50 781.91 1134.93
  Q 783.79 1127.90 779.92 1123.19
  C 770.11 1111.23 751.10 1126.41 744.37 1134.48
  C 738.46 1141.58 739.37 1152.45 749.33 1155.01"
/>
<path stroke="#b2eefa" vector-effect="non-scaling-stroke" d="
  M 778.9156 1166.1922
  A 11.39 9.97 116.4 0 0 792.9102 1160.4230
  A 11.39 9.97 116.4 0 0 789.0444 1145.7878
  A 11.39 9.97 116.4 0 0 775.0498 1151.5570
  A 11.39 9.97 116.4 0 0 778.9156 1166.1922"
/>
<path stroke="#f4fdff" vector-effect="non-scaling-stroke" d="
  M 972.82 1144.16
  C 953.70 1129.84 924.90 1150.13 915.01 1166.57
  C 907.77 1178.61 908.31 1196.01 919.73 1205.01
  C 931.08 1213.96 946.49 1213.09 958.74 1206.18
  Q 974.97 1197.02 981.85 1178.69
  C 986.37 1166.62 983.17 1151.92 972.82 1144.16"
/>
<path stroke="#f4fdff" vector-effect="non-scaling-stroke" d="
  M 1006.17 1190.40
  C 1004.93 1202.85 1008.35 1215.69 1019.62 1222.08
  Q 1026.18 1225.80 1034.93 1224.66
  C 1045.50 1223.28 1054.99 1214.81 1056.51 1203.70
  C 1058.07 1192.21 1055.39 1179.44 1045.64 1172.36
  C 1035.81 1165.22 1022.63 1167.05 1013.60 1175.23
  Q 1007.08 1181.14 1006.17 1190.40"
/>
<path stroke="#f4fdff" vector-effect="non-scaling-stroke" d="
  M 236.12 1227.60
  Q 226.42 1232.88 216.89 1239.74
  Q 212.09 1243.20 208.61 1246.92
  C 191.42 1265.26 201.99 1292.83 227.81 1292.81
  Q 234.36 1292.80 238.67 1291.59
  Q 273.25 1281.95 300.59 1259.35
  C 308.78 1252.58 314.20 1241.78 312.41 1231.04
  Q 309.88 1215.78 296.80 1210.60
  C 288.53 1207.32 279.39 1208.63 270.98 1211.31
  C 258.44 1215.30 247.43 1221.47 236.12 1227.60"
/>
<path stroke="#f4fdff" vector-effect="non-scaling-stroke" d="
  M 365.09 1235.44
  C 352.06 1236.74 342.82 1248.62 336.24 1259.82
  C 326.66 1276.11 334.30 1297.24 354.18 1299.44
  C 363.24 1300.44 370.70 1297.28 377.45 1291.20
  Q 384.12 1285.19 387.79 1279.07
  C 398.81 1260.69 390.31 1232.91 365.09 1235.44"
/>
</g>
<path fill="#ffffff" d="
  M 1614.00 0.00
  L 1614.00 1948.00
  L 0.00 1948.00
  L 0.00 0.00
  L 1614.00 0.00
  Z
  M 1.90 190.46
  L 1.92 437.79
  L 1.98 712.04
  L 1.94 869.29
  L 1.95 1212.99
  L 1.98 1219.06
  L 1.94 1370.71
  L 1.95 1946.82
  A 0.76 0.75 -0.0 0 0 2.71 1947.57
  L 1611.47 1947.54
  A 0.59 0.58 90.0 0 0 1612.05 1946.95
  L 1612.03 1370.31
  L 1612.04 1214.20
  L 1612.02 827.71
  L 1611.98 676.79
  L 1612.03 473.73
  L 1612.02 238.28
  L 1611.99 0.95
  A 0.54 0.53 -90.0 0 0 1611.46 0.41
  L 2.52 0.45
  A 0.61 0.61 0.0 0 0 1.91 1.06
  L 1.90 190.46
  Z"
/>
<path fill="#23f7ff" d="
  M 1612.02 238.28
  Q 1607.98 236.81 1602.50 237.07
  C 1596.42 237.36 1590.74 239.22 1585.21 241.27
  Q 1559.46 250.84 1533.31 259.74
  Q 1522.68 263.36 1509.02 269.06
  C 1502.84 271.65 1496.83 273.79 1490.57 276.26
  Q 1484.45 278.67 1476.53 281.04
  Q 1461.94 285.41 1446.23 291.52
  Q 1433.80 296.35 1427.44 298.37
  Q 1414.89 302.38 1403.33 305.83
  Q 1385.63 311.11 1364.43 317.62
  Q 1337.37 325.93 1302.44 333.16
  C 1286.14 336.53 1270.09 340.37 1253.76 343.02
  Q 1223.82 347.89 1198.02 352.03
  C 1166.41 357.11 1136.45 359.86 1104.53 362.78
  Q 1094.59 363.69 1084.58 364.41
  C 1053.72 366.64 1022.87 368.58 992.09 369.19
  C 971.73 369.60 948.93 370.89 931.22 372.26
  Q 924.43 372.79 916.46 374.20
  C 906.87 375.90 898.71 376.16 889.58 376.02
  Q 873.83 375.79 828.73 375.50
  Q 819.36 375.44 808.45 374.74
  Q 768.17 372.17 710.37 367.62
  Q 671.23 364.53 638.30 360.88
  Q 632.27 360.21 626.18 359.80
  C 609.84 358.72 592.73 359.62 575.99 359.09
  Q 560.20 358.60 537.21 358.03
  Q 521.50 357.65 502.53 353.67
  Q 463.42 345.48 429.34 337.88
  C 417.81 335.32 406.09 332.48 394.53 329.11
  C 383.85 325.98 373.55 322.98 362.49 320.13
  Q 351.77 317.38 343.96 314.82
  C 332.30 311.00 320.73 306.48 308.54 302.65
  Q 295.27 298.49 281.89 293.16
  C 268.59 287.85 255.35 283.32 242.19 277.56
  Q 207.06 262.19 177.22 248.97
  C 159.62 241.17 141.61 233.58 124.40 225.56
  C 110.28 218.98 94.90 212.85 80.51 208.06
  Q 58.79 200.83 37.78 191.67
  Q 30.44 188.47 20.96 185.77
  Q 11.78 183.17 2.58 187.91
  Q 2.08 188.17 2.03 188.73
  L 1.90 190.46
  L 1.91 1.06
  A 0.61 0.61 0.0 0 1 2.52 0.45
  L 1611.46 0.41
  A 0.54 0.53 90.0 0 1 1611.99 0.95
  L 1612.02 238.28
  Z"
/>
<path fill="#01efff" d="
  M 1612.02 238.28
  L 1612.03 473.73
  C 1605.75 472.70 1599.92 470.76 1593.20 471.10
  Q 1589.71 471.28 1586.20 471.84
  Q 1570.81 474.30 1542.20 477.64
  Q 1519.60 480.28 1486.02 487.25
  Q 1466.79 491.25 1439.40 494.48
  Q 1428.91 495.72 1419.57 497.24
  C 1400.52 500.34 1381.26 502.34 1362.05 504.82
  C 1343.40 507.24 1325.30 507.84 1307.03 509.58
  C 1287.07 511.48 1267.10 513.06 1247.10 514.81
  C 1234.87 515.88 1220.61 515.39 1207.75 516.03
  C 1192.14 516.81 1175.46 516.63 1159.41 517.63
  Q 1136.49 519.07 1113.63 520.18
  Q 1103.39 520.68 1093.87 520.85
  Q 1069.52 521.28 1036.49 522.49
  Q 1028.84 522.77 1021.54 522.47
  Q 992.92 521.30 966.77 521.87
  C 951.31 522.20 936.46 521.93 921.46 522.08
  C 898.50 522.32 875.37 520.96 851.95 520.84
  C 826.62 520.71 803.32 520.79 778.60 519.01
  C 758.11 517.53 733.31 516.66 710.07 517.04
  Q 690.59 517.36 660.72 515.98
  Q 650.42 515.51 639.40 515.39
  C 626.11 515.25 612.99 513.93 599.70 513.36
  Q 575.23 512.30 550.05 510.29
  C 537.73 509.31 525.50 508.96 513.45 508.43
  C 494.14 507.58 474.82 505.03 455.49 503.65
  Q 436.27 502.28 417.06 500.70
  C 410.48 500.16 403.64 500.02 396.97 499.62
  Q 390.34 499.21 382.02 498.03
  Q 352.53 493.84 321.83 491.49
  Q 315.67 491.02 306.51 489.27
  C 296.33 487.33 285.94 486.75 275.80 485.28
  C 265.12 483.72 253.10 484.00 243.57 482.42
  Q 222.18 478.87 200.46 474.57
  Q 191.17 472.73 180.75 471.24
  Q 163.13 468.72 147.21 465.41
  C 136.59 463.20 125.29 462.15 115.49 460.30
  Q 88.76 455.25 62.34 449.75
  C 42.16 445.55 20.89 445.22 1.92 437.79
  L 1.90 190.46
  L 2.03 188.73
  Q 2.08 188.17 2.58 187.91
  Q 11.78 183.17 20.96 185.77
  Q 30.44 188.47 37.78 191.67
  Q 58.79 200.83 80.51 208.06
  C 94.90 212.85 110.28 218.98 124.40 225.56
  C 141.61 233.58 159.62 241.17 177.22 248.97
  Q 207.06 262.19 242.19 277.56
  C 255.35 283.32 268.59 287.85 281.89 293.16
  Q 295.27 298.49 308.54 302.65
  C 320.73 306.48 332.30 311.00 343.96 314.82
  Q 351.77 317.38 362.49 320.13
  C 373.55 322.98 383.85 325.98 394.53 329.11
  C 406.09 332.48 417.81 335.32 429.34 337.88
  Q 463.42 345.48 502.53 353.67
  Q 521.50 357.65 537.21 358.03
  Q 560.20 358.60 575.99 359.09
  C 592.73 359.62 609.84 358.72 626.18 359.80
  Q 632.27 360.21 638.30 360.88
  Q 671.23 364.53 710.37 367.62
  Q 768.17 372.17 808.45 374.74
  Q 819.36 375.44 828.73 375.50
  Q 873.83 375.79 889.58 376.02
  C 898.71 376.16 906.87 375.90 916.46 374.20
  Q 924.43 372.79 931.22 372.26
  C 948.93 370.89 971.73 369.60 992.09 369.19
  C 1022.87 368.58 1053.72 366.64 1084.58 364.41
  Q 1094.59 363.69 1104.53 362.78
  C 1136.45 359.86 1166.41 357.11 1198.02 352.03
  Q 1223.82 347.89 1253.76 343.02
  C 1270.09 340.37 1286.14 336.53 1302.44 333.16
  Q 1337.37 325.93 1364.43 317.62
  Q 1385.63 311.11 1403.33 305.83
  Q 1414.89 302.38 1427.44 298.37
  Q 1433.80 296.35 1446.23 291.52
  Q 1461.94 285.41 1476.53 281.04
  Q 1484.45 278.67 1490.57 276.26
  C 1496.83 273.79 1502.84 271.65 1509.02 269.06
  Q 1522.68 263.36 1533.31 259.74
  Q 1559.46 250.84 1585.21 241.27
  C 1590.74 239.22 1596.42 237.36 1602.50 237.07
  Q 1607.98 236.81 1612.02 238.28
  Z"
/>
<path fill="#00e4ff" d="
  M 1612.03 473.73
  L 1611.98 676.79
  C 1607.65 679.00 1601.83 676.77 1597.15 676.41
  Q 1569.20 674.29 1544.73 675.61
  Q 1528.57 676.47 1502.27 678.91
  C 1484.50 680.55 1463.51 680.94 1444.24 680.64
  Q 1380.74 679.66 1317.32 679.91
  C 1291.53 680.01 1265.67 679.08 1239.72 679.20
  Q 1197.69 679.40 1155.75 679.00
  Q 1138.62 678.84 1117.03 678.97
  Q 1048.72 679.38 980.79 680.04
  Q 944.53 680.40 900.41 682.46
  Q 889.99 682.95 880.43 682.94
  C 852.87 682.90 825.67 682.22 798.45 682.22
  Q 741.03 682.21 685.81 682.59
  Q 668.11 682.72 644.00 682.13
  Q 634.09 681.88 623.99 682.11
  C 597.68 682.70 571.50 682.43 545.30 682.98
  Q 508.49 683.75 474.28 683.60
  Q 464.98 683.56 454.75 683.91
  Q 422.26 685.02 387.14 684.08
  C 380.62 683.91 374.09 683.99 367.60 684.33
  Q 329.31 686.31 295.88 687.32
  C 268.06 688.17 240.26 689.77 212.03 690.89
  C 199.86 691.38 187.62 691.11 175.47 691.76
  Q 155.53 692.82 136.22 693.59
  Q 125.57 694.02 116.00 694.74
  Q 80.51 697.41 44.93 701.66
  Q 26.60 703.85 9.42 710.41
  Q 7.13 711.29 1.98 712.04
  L 1.92 437.79
  C 20.89 445.22 42.16 445.55 62.34 449.75
  Q 88.76 455.25 115.49 460.30
  C 125.29 462.15 136.59 463.20 147.21 465.41
  Q 163.13 468.72 180.75 471.24
  Q 191.17 472.73 200.46 474.57
  Q 222.18 478.87 243.57 482.42
  C 253.10 484.00 265.12 483.72 275.80 485.28
  C 285.94 486.75 296.33 487.33 306.51 489.27
  Q 315.67 491.02 321.83 491.49
  Q 352.53 493.84 382.02 498.03
  Q 390.34 499.21 396.97 499.62
  C 403.64 500.02 410.48 500.16 417.06 500.70
  Q 436.27 502.28 455.49 503.65
  C 474.82 505.03 494.14 507.58 513.45 508.43
  C 525.50 508.96 537.73 509.31 550.05 510.29
  Q 575.23 512.30 599.70 513.36
  C 612.99 513.93 626.11 515.25 639.40 515.39
  Q 650.42 515.51 660.72 515.98
  Q 690.59 517.36 710.07 517.04
  C 733.31 516.66 758.11 517.53 778.60 519.01
  C 803.32 520.79 826.62 520.71 851.95 520.84
  C 875.37 520.96 898.50 522.32 921.46 522.08
  C 936.46 521.93 951.31 522.20 966.77 521.87
  Q 992.92 521.30 1021.54 522.47
  Q 1028.84 522.77 1036.49 522.49
  Q 1069.52 521.28 1093.87 520.85
  Q 1103.39 520.68 1113.63 520.18
  Q 1136.49 519.07 1159.41 517.63
  C 1175.46 516.63 1192.14 516.81 1207.75 516.03
  C 1220.61 515.39 1234.87 515.88 1247.10 514.81
  C 1267.10 513.06 1287.07 511.48 1307.03 509.58
  C 1325.30 507.84 1343.40 507.24 1362.05 504.82
  C 1381.26 502.34 1400.52 500.34 1419.57 497.24
  Q 1428.91 495.72 1439.40 494.48
  Q 1466.79 491.25 1486.02 487.25
  Q 1519.60 480.28 1542.20 477.64
  Q 1570.81 474.30 1586.20 471.84
  Q 1589.71 471.28 1593.20 471.10
  C 1599.92 470.76 1605.75 472.70 1612.03 473.73
  Z"
/>
<path fill="#01d7fe" d="
  M 1611.98 676.79
  L 1612.02 827.71
  Q 1607.96 826.74 1606.43 826.07
  Q 1586.10 817.07 1564.60 816.47
  Q 1545.54 815.93 1538.24 816.37
  Q 1512.42 817.90 1488.77 814.92
  Q 1471.51 812.75 1452.38 810.01
  C 1427.45 806.44 1402.34 804.53 1376.13 802.68
  C 1360.48 801.57 1342.43 802.36 1327.73 800.45
  C 1305.50 797.56 1284.51 794.20 1262.03 793.18
  Q 1207.46 790.70 1151.54 789.07
  Q 1145.26 788.89 1128.04 789.43
  C 1101.89 790.26 1075.76 789.44 1049.64 790.17
  Q 1019.27 791.01 988.79 791.47
  Q 978.74 791.61 968.79 791.52
  Q 936.00 791.21 894.50 791.81
  C 885.70 791.93 876.90 792.01 868.03 791.58
  Q 827.91 789.60 797.37 790.22
  Q 753.08 791.11 708.72 791.82
  C 692.13 792.08 675.63 792.76 659.32 793.11
  Q 648.95 793.32 639.36 793.70
  C 601.95 795.16 565.65 795.81 528.39 798.47
  C 509.60 799.81 491.33 801.52 472.73 802.06
  Q 456.84 802.53 448.43 803.30
  Q 411.66 806.67 365.10 809.61
  Q 354.21 810.29 345.73 811.14
  Q 278.21 817.85 210.31 826.85
  C 194.65 828.93 179.56 832.67 163.83 835.06
  Q 148.42 837.40 133.26 840.13
  C 118.77 842.74 104.96 846.62 90.87 850.30
  C 84.99 851.83 78.77 852.96 72.83 853.25
  Q 49.96 854.37 29.92 855.50
  C 23.06 855.88 15.63 857.16 10.54 862.21
  Q 7.95 864.78 5.40 867.59
  Q 4.42 868.67 1.94 869.29
  L 1.98 712.04
  Q 7.13 711.29 9.42 710.41
  Q 26.60 703.85 44.93 701.66
  Q 80.51 697.41 116.00 694.74
  Q 125.57 694.02 136.22 693.59
  Q 155.53 692.82 175.47 691.76
  C 187.62 691.11 199.86 691.38 212.03 690.89
  C 240.26 689.77 268.06 688.17 295.88 687.32
  Q 329.31 686.31 367.60 684.33
  C 374.09 683.99 380.62 683.91 387.14 684.08
  Q 422.26 685.02 454.75 683.91
  Q 464.98 683.56 474.28 683.60
  Q 508.49 683.75 545.30 682.98
  C 571.50 682.43 597.68 682.70 623.99 682.11
  Q 634.09 681.88 644.00 682.13
  Q 668.11 682.72 685.81 682.59
  Q 741.03 682.21 798.45 682.22
  C 825.67 682.22 852.87 682.90 880.43 682.94
  Q 889.99 682.95 900.41 682.46
  Q 944.53 680.40 980.79 680.04
  Q 1048.72 679.38 1117.03 678.97
  Q 1138.62 678.84 1155.75 679.00
  Q 1197.69 679.40 1239.72 679.20
  C 1265.67 679.08 1291.53 680.01 1317.32 679.91
  Q 1380.74 679.66 1444.24 680.64
  C 1463.51 680.94 1484.50 680.55 1502.27 678.91
  Q 1528.57 676.47 1544.73 675.61
  Q 1569.20 674.29 1597.15 676.41
  C 1601.83 676.77 1607.65 679.00 1611.98 676.79
  Z"
/>
<path fill="#00c7fa" d="
  M 1612.02 827.71
  L 1612.04 1214.20
  Q 1612.75 1215.06 1611.09 1215.44
  Q 1611.12 1213.95 1610.32 1212.48
  A 2.01 2.00 -20.5 0 0 1608.12 1211.48
  Q 1580.48 1217.69 1553.67 1221.02
  Q 1551.95 1221.23 1550.19 1221.33
  A 1.87 1.86 -9.6 0 1 1548.28 1219.98
  Q 1528.29 1150.65 1499.45 1085.23
  C 1482.58 1046.96 1464.12 1010.62 1439.58 977.61
  C 1418.82 949.69 1389.40 921.67 1353.03 919.71
  C 1317.28 917.79 1285.93 936.84 1263.53 963.47
  Q 1249.54 980.10 1239.25 998.58
  Q 1235.89 1004.61 1232.77 1010.44
  Q 1229.43 1016.68 1226.76 1022.42
  Q 1204.90 1069.34 1188.94 1119.51
  A 0.60 0.60 0.0 0 1 1188.14 1119.88
  C 1157.07 1106.82 1126.09 1095.06 1092.88 1085.05
  Q 1027.21 1065.25 960.08 1060.90
  A 1.34 1.33 -12.3 0 1 959.00 1060.21
  C 943.94 1032.61 927.19 1006.39 907.24 982.58
  Q 896.90 970.22 885.33 962.84
  Q 874.53 955.95 862.42 954.47
  Q 858.59 954.01 854.79 954.46
  C 833.17 957.04 815.46 976.41 803.23 994.31
  Q 793.84 1008.04 786.28 1024.19
  A 0.51 0.50 43.1 0 1 785.38 1024.22
  Q 755.41 969.22 719.09 921.07
  Q 704.00 901.06 686.87 883.75
  C 663.61 860.25 631.41 836.75 596.84 840.73
  C 571.96 843.59 548.09 857.52 527.58 872.92
  Q 494.89 897.47 465.23 932.57
  Q 438.20 964.55 412.00 1001.56
  A 0.58 0.57 40.7 0 1 411.11 1001.62
  Q 391.12 980.86 370.18 964.09
  Q 355.23 952.13 335.06 941.95
  Q 316.90 932.78 297.63 930.90
  Q 290.04 929.00 281.94 930.50
  C 255.82 932.06 231.45 942.82 211.76 960.08
  Q 197.72 972.38 186.35 986.56
  C 163.74 1014.74 147.22 1043.00 127.12 1078.65
  Q 108.44 1111.76 97.87 1131.64
  Q 83.39 1158.86 68.27 1187.54
  C 67.07 1189.83 66.39 1192.30 64.81 1194.29
  A 1.60 1.59 -76.6 0 1 63.92 1194.84
  C 62.10 1195.23 60.15 1195.27 58.35 1195.76
  Q 30.05 1203.37 1.95 1212.99
  L 1.94 869.29
  Q 4.42 868.67 5.40 867.59
  Q 7.95 864.78 10.54 862.21
  C 15.63 857.16 23.06 855.88 29.92 855.50
  Q 49.96 854.37 72.83 853.25
  C 78.77 852.96 84.99 851.83 90.87 850.30
  C 104.96 846.62 118.77 842.74 133.26 840.13
  Q 148.42 837.40 163.83 835.06
  C 179.56 832.67 194.65 828.93 210.31 826.85
  Q 278.21 817.85 345.73 811.14
  Q 354.21 810.29 365.10 809.61
  Q 411.66 806.67 448.43 803.30
  Q 456.84 802.53 472.73 802.06
  C 491.33 801.52 509.60 799.81 528.39 798.47
  C 565.65 795.81 601.95 795.16 639.36 793.70
  Q 648.95 793.32 659.32 793.11
  C 675.63 792.76 692.13 792.08 708.72 791.82
  Q 753.08 791.11 797.37 790.22
  Q 827.91 789.60 868.03 791.58
  C 876.90 792.01 885.70 791.93 894.50 791.81
  Q 936.00 791.21 968.79 791.52
  Q 978.74 791.61 988.79 791.47
  Q 1019.27 791.01 1049.64 790.17
  C 1075.76 789.44 1101.89 790.26 1128.04 789.43
  Q 1145.26 788.89 1151.54 789.07
  Q 1207.46 790.70 1262.03 793.18
  C 1284.51 794.20 1305.50 797.56 1327.73 800.45
  C 1342.43 802.36 1360.48 801.57 1376.13 802.68
  C 1402.34 804.53 1427.45 806.44 1452.38 810.01
  Q 1471.51 812.75 1488.77 814.92
  Q 1512.42 817.90 1538.24 816.37
  Q 1545.54 815.93 1564.60 816.47
  Q 1586.10 817.07 1606.43 826.07
  Q 1607.96 826.74 1612.02 827.71
  Z"
/>
<path fill="#000000" d="
  M 1611.09 1215.44
  Q 1610.36 1216.85 1608.90 1217.19
  C 1589.89 1221.68 1569.87 1225.01 1550.20 1227.42
  Q 1488.98 1234.92 1428.46 1221.88
  C 1423.68 1220.53 1418.78 1219.75 1413.97 1218.61
  C 1376.64 1209.74 1339.67 1196.37 1303.59 1181.08
  Q 1294.48 1177.22 1285.62 1173.10
  C 1259.09 1160.76 1231.95 1147.18 1206.90 1134.93
  Q 1198.45 1130.81 1188.71 1126.53
  Q 1147.11 1108.25 1102.14 1093.84
  C 1038.23 1073.35 970.49 1062.65 903.43 1066.96
  C 845.10 1070.72 785.46 1084.45 730.33 1104.39
  Q 660.26 1129.73 588.77 1164.99
  Q 587.88 1165.43 588.85 1165.66
  Q 625.80 1174.31 662.35 1185.71
  Q 754.50 1214.45 842.17 1256.21
  Q 852.85 1261.28 863.99 1266.73
  Q 888.00 1278.49 911.55 1291.75
  Q 913.75 1292.99 913.34 1295.48
  Q 913.19 1296.41 912.23 1296.86
  Q 910.59 1297.63 909.01 1296.75
  Q 861.78 1270.54 812.29 1248.85
  L 801.29 1244.13
  Q 799.42 1242.98 795.85 1241.42
  Q 709.94 1204.04 620.57 1179.51
  C 608.44 1176.17 596.15 1173.45 583.98 1170.54
  Q 506.44 1151.99 426.59 1149.42
  C 343.89 1146.76 258.82 1156.21 176.84 1173.31
  Q 88.35 1191.77 1.98 1219.06
  L 1.95 1212.99
  Q 30.05 1203.37 58.35 1195.76
  C 60.15 1195.27 62.10 1195.23 63.92 1194.84
  A 1.60 1.59 -76.6 0 0 64.81 1194.29
  C 66.39 1192.30 67.07 1189.83 68.27 1187.54
  Q 83.39 1158.86 97.87 1131.64
  Q 108.44 1111.76 127.12 1078.65
  C 147.22 1043.00 163.74 1014.74 186.35 986.56
  Q 197.72 972.38 211.76 960.08
  C 231.45 942.82 255.82 932.06 281.94 930.50
  L 297.63 930.90
  Q 316.90 932.78 335.06 941.95
  Q 355.23 952.13 370.18 964.09
  Q 391.12 980.86 411.11 1001.62
  A 0.58 0.57 40.7 0 0 412.00 1001.56
  Q 438.20 964.55 465.23 932.57
  Q 494.89 897.47 527.58 872.92
  C 548.09 857.52 571.96 843.59 596.84 840.73
  C 631.41 836.75 663.61 860.25 686.87 883.75
  Q 704.00 901.06 719.09 921.07
  Q 755.41 969.22 785.38 1024.22
  A 0.51 0.50 43.1 0 0 786.28 1024.19
  Q 793.84 1008.04 803.23 994.31
  C 815.46 976.41 833.17 957.04 854.79 954.46
  Q 858.59 954.01 862.42 954.47
  Q 874.53 955.95 885.33 962.84
  Q 896.90 970.22 907.24 982.58
  C 927.19 1006.39 943.94 1032.61 959.00 1060.21
  A 1.34 1.33 -12.3 0 0 960.08 1060.90
  Q 1027.21 1065.25 1092.88 1085.05
  C 1126.09 1095.06 1157.07 1106.82 1188.14 1119.88
  A 0.60 0.60 0.0 0 0 1188.94 1119.51
  Q 1204.90 1069.34 1226.76 1022.42
  Q 1229.43 1016.68 1232.77 1010.44
  Q 1235.89 1004.61 1239.25 998.58
  Q 1249.54 980.10 1263.53 963.47
  C 1285.93 936.84 1317.28 917.79 1353.03 919.71
  C 1389.40 921.67 1418.82 949.69 1439.58 977.61
  C 1464.12 1010.62 1482.58 1046.96 1499.45 1085.23
  Q 1528.29 1150.65 1548.28 1219.98
  A 1.87 1.86 -9.6 0 0 1550.19 1221.33
  Q 1551.95 1221.23 1553.67 1221.02
  Q 1580.48 1217.69 1608.12 1211.48
  A 2.01 2.00 -20.5 0 1 1610.32 1212.48
  Q 1611.12 1213.95 1611.09 1215.44
  Z
  M 675.14 938.19
  C 677.06 935.68 680.02 936.97 681.02 939.46
  Q 684.21 947.36 688.06 954.50
  C 695.93 969.06 712.46 984.50 730.51 980.76
  C 738.30 979.15 742.84 972.56 742.59 964.72
  Q 742.57 964.20 742.29 963.77
  Q 724.55 936.85 705.90 913.71
  Q 691.28 895.56 675.84 881.17
  C 660.19 866.59 643.26 854.51 623.37 848.80
  Q 600.68 842.28 577.37 851.30
  Q 565.16 856.03 559.50 859.17
  C 525.99 877.74 497.46 903.56 472.40 933.22
  A 1.07 1.07 0.0 0 0 472.45 934.65
  C 481.04 943.37 490.01 948.74 502.83 944.67
  Q 511.18 942.02 517.37 938.66
  C 520.35 937.04 527.57 935.11 527.49 940.73
  Q 527.45 944.06 525.99 947.25
  Q 516.84 967.11 522.22 987.77
  C 526.99 1006.13 541.85 1019.56 561.04 1020.84
  C 580.14 1022.11 596.33 1012.92 603.66 995.23
  C 609.02 982.31 610.11 968.47 610.32 953.96
  Q 610.35 951.82 612.22 950.77
  Q 612.76 950.46 613.33 950.60
  Q 616.13 951.32 616.38 954.21
  Q 616.81 959.18 618.44 964.01
  C 622.99 977.45 637.83 983.52 651.02 981.25
  Q 660.79 979.57 667.98 971.95
  C 676.16 963.28 676.22 951.66 674.69 939.85
  A 2.26 2.23 -30.1 0 1 675.14 938.19
  Z
  M 1302.61 975.13
  C 1304.84 971.80 1310.16 972.03 1309.42 977.01
  C 1308.06 986.16 1306.91 994.75 1308.43 1004.02
  C 1310.09 1014.16 1315.50 1022.43 1326.07 1024.25
  C 1348.02 1028.02 1351.97 999.87 1352.31 984.57
  C 1352.42 979.40 1357.96 978.72 1359.09 984.08
  C 1360.87 992.48 1364.10 1001.06 1370.89 1006.33
  C 1381.18 1014.32 1395.98 1010.95 1400.82 998.85
  C 1403.41 992.37 1402.28 984.01 1400.73 976.97
  C 1399.76 972.58 1404.70 969.93 1407.04 974.10
  C 1412.09 983.11 1417.42 992.04 1425.04 999.32
  C 1432.69 1006.63 1441.08 1009.21 1451.15 1005.62
  A 0.44 0.43 64.1 0 0 1451.37 1004.97
  C 1433.92 977.69 1413.48 950.09 1384.33 934.41
  Q 1364.80 923.91 1342.03 925.54
  C 1306.97 928.07 1279.36 950.88 1259.08 978.33
  Q 1257.46 980.52 1256.46 983.06
  C 1254.48 988.10 1252.07 993.53 1255.52 998.48
  Q 1259.02 1003.49 1265.42 1003.95
  C 1280.82 1005.04 1295.08 986.38 1302.61 975.13
  Z
  M 198.82 1015.56
  Q 203.40 1015.81 202.88 1020.21
  Q 202.42 1024.07 201.06 1028.57
  C 198.20 1038.02 199.02 1048.04 203.37 1056.90
  C 209.72 1069.82 222.65 1075.48 236.19 1070.69
  Q 256.62 1063.48 266.29 1042.42
  Q 270.34 1033.62 273.94 1020.13
  C 275.13 1015.67 280.22 1017.69 280.59 1021.71
  C 281.58 1032.57 285.33 1041.82 293.75 1048.58
  C 301.68 1054.95 312.28 1056.58 320.63 1050.38
  C 332.27 1041.74 336.58 1026.57 334.86 1012.01
  C 334.64 1010.20 335.35 1008.20 337.30 1007.73
  A 2.61 2.60 75.2 0 1 340.42 1009.55
  C 343.28 1019.57 347.03 1029.73 354.16 1036.87
  C 358.80 1041.52 365.40 1043.88 371.48 1041.02
  C 383.06 1035.58 386.24 1023.24 383.64 1011.56
  Q 382.89 1008.18 381.92 1004.94
  C 380.70 1000.89 385.93 999.00 387.73 1003.47
  C 390.05 1009.24 393.91 1014.07 400.96 1010.97
  C 403.04 1010.05 404.74 1008.16 406.12 1006.38
  Q 406.86 1005.43 406.01 1004.57
  Q 391.95 990.24 377.28 977.46
  C 358.12 960.75 335.58 945.62 312.11 939.25
  Q 287.24 932.49 261.38 939.53
  C 218.52 951.18 190.47 987.54 166.87 1023.24
  C 166.07 1024.46 165.31 1025.06 165.81 1026.64
  C 166.75 1029.56 169.15 1034.74 172.94 1033.65
  Q 178.83 1031.96 183.97 1027.24
  Q 189.74 1021.95 196.43 1016.35
  Q 197.47 1015.48 198.82 1015.56
  Z
  M 452.88 956.59
  Q 440.18 972.59 431.82 984.09
  Q 373.34 1064.59 315.38 1146.12
  A 0.60 0.59 14.6 0 0 315.93 1147.05
  Q 327.41 1145.94 339.31 1144.96
  Q 349.24 1144.14 358.93 1143.86
  C 374.13 1143.42 389.98 1142.96 405.87 1143.20
  C 449.32 1143.89 492.57 1147.46 535.47 1154.69
  Q 556.84 1158.29 576.72 1163.00
  Q 578.76 1163.48 580.67 1162.55
  Q 616.52 1144.99 651.87 1129.25
  C 657.42 1126.78 663.34 1124.59 668.89 1122.08
  C 672.80 1120.30 676.86 1118.98 680.75 1117.21
  C 689.36 1113.29 698.59 1110.10 707.27 1106.78
  Q 754.85 1088.57 804.64 1076.26
  A 0.86 0.86 0.0 0 0 805.20 1075.04
  L 788.47 1042.24
  Q 788.44 1041.81 788.26 1041.47
  Q 769.47 1006.08 747.84 972.23
  A 0.43 0.43 0.0 0 0 747.07 972.34
  C 743.97 982.64 735.14 987.11 724.99 987.03
  Q 717.57 986.98 711.03 984.31
  Q 691.92 974.79 682.66 956.14
  Q 681.36 953.51 680.96 956.42
  C 680.54 959.55 679.93 963.15 678.52 966.25
  Q 677.52 968.44 676.73 970.06
  Q 666.29 985.63 648.20 987.45
  Q 627.78 988.60 615.88 972.34
  A 0.46 0.46 0.0 0 0 615.05 972.53
  L 612.38 987.58
  Q 611.31 991.55 609.80 995.54
  Q 603.09 1013.26 587.21 1021.41
  C 577.62 1026.33 564.25 1028.13 553.98 1025.95
  Q 543.46 1023.72 535.50 1017.51
  Q 529.76 1013.03 524.25 1006.79
  Q 522.92 1003.85 521.51 1001.23
  C 512.07 983.80 512.87 963.17 520.38 945.17
  Q 521.18 943.25 519.31 944.16
  C 510.58 948.40 501.91 951.91 492.07 951.90
  Q 489.88 951.90 483.46 950.02
  Q 475.15 945.67 468.76 938.91
  A 0.87 0.86 -46.9 0 0 467.46 938.96
  L 452.88 956.59
  Z
  M 887.67 996.03
  C 889.46 994.20 892.16 995.16 892.91 997.49
  C 895.12 1004.34 898.25 1010.10 905.47 1012.54
  C 911.53 1014.58 915.33 1010.65 917.19 1005.53
  A 1.20 1.19 37.1 0 0 917.03 1004.41
  Q 910.63 995.95 904.43 988.14
  C 891.55 971.94 870.04 954.13 847.57 961.93
  C 832.62 967.13 819.93 980.60 810.62 993.90
  Q 810.06 994.69 809.97 995.58
  C 809.55 999.63 808.72 1004.78 810.37 1008.63
  C 812.79 1014.33 819.52 1016.22 825.22 1014.99
  C 832.90 1013.34 836.86 1006.20 839.85 999.32
  Q 840.54 997.71 841.69 996.42
  C 843.23 994.69 846.07 995.17 847.16 997.07
  Q 847.96 998.47 848.09 1000.14
  C 848.94 1010.66 852.46 1024.16 864.45 1025.64
  C 875.76 1027.04 884.85 1019.53 886.52 1008.53
  Q 887.29 1003.44 886.92 998.07
  A 2.67 2.66 65.3 0 1 887.67 996.03
  Z
  M 1235.99 1017.17
  L 1231.57 1025.26
  Q 1210.06 1072.86 1194.24 1121.58
  A 1.14 1.13 21.7 0 0 1194.84 1122.96
  C 1216.78 1133.33 1238.82 1143.85 1260.59 1154.80
  C 1304.16 1176.72 1351.63 1195.75 1397.97 1208.67
  Q 1431.10 1217.91 1466.11 1222.22
  Q 1476.30 1223.48 1486.49 1223.99
  Q 1513.34 1225.33 1541.82 1222.69
  A 0.94 0.94 0.0 0 0 1542.63 1221.47
  L 1528.90 1177.45
  Q 1512.41 1127.48 1488.99 1076.24
  Q 1473.25 1041.81 1456.49 1013.15
  C 1455.83 1011.84 1454.74 1010.39 1453.17 1010.94
  Q 1437.10 1016.51 1424.76 1006.51
  C 1418.19 1001.19 1413.18 995.03 1408.72 987.89
  Q 1408.23 987.12 1408.14 988.03
  C 1407.68 992.49 1407.85 995.75 1406.30 1000.93
  C 1400.28 1014.68 1386.01 1019.32 1372.25 1014.65
  Q 1369.79 1012.97 1367.13 1011.43
  C 1365.86 1010.70 1365.07 1009.46 1363.91 1008.52
  C 1361.24 1006.34 1359.27 1002.24 1357.83 999.13
  Q 1357.18 997.72 1356.86 999.24
  L 1355.39 1006.19
  Q 1353.93 1010.07 1353.03 1012.59
  C 1349.14 1023.38 1340.15 1031.04 1328.21 1030.17
  C 1310.07 1028.85 1302.93 1014.68 1302.00 998.19
  L 1302.40 987.37
  Q 1302.48 985.23 1301.00 986.77
  C 1299.77 988.05 1298.66 990.06 1297.59 991.35
  Q 1290.89 999.48 1281.88 1005.09
  C 1270.85 1011.97 1257.05 1012.12 1249.69 999.97
  C 1248.98 998.78 1248.90 997.32 1248.44 996.02
  A 0.60 0.60 0.0 0 0 1247.34 995.94
  L 1235.99 1017.17
  Z
  M 863.41 1065.25
  L 867.63 1064.57
  L 902.00 1060.88
  L 945.72 1060.47
  L 952.14 1060.53
  A 0.28 0.28 0.0 0 0 952.38 1060.12
  Q 939.65 1037.22 924.81 1015.58
  L 921.71 1010.90
  A 0.49 0.49 0.0 0 0 920.86 1010.95
  Q 917.43 1017.87 909.84 1018.93
  Q 898.83 1018.35 892.62 1010.08
  A 0.26 0.26 0.0 0 0 892.16 1010.18
  Q 891.14 1015.50 888.02 1019.82
  Q 886.49 1021.93 885.40 1023.54
  Q 878.17 1031.56 866.37 1031.51
  Q 854.31 1031.40 848.04 1020.52
  Q 844.41 1014.21 843.53 1007.86
  Q 843.17 1005.29 842.00 1007.60
  C 836.49 1018.47 825.01 1024.16 813.37 1019.17
  C 807.86 1016.81 804.33 1011.71 803.93 1005.63
  A 0.50 0.49 70.9 0 0 803.16 1005.25
  Q 802.73 1005.55 802.47 1006.00
  Q 795.77 1017.50 790.25 1029.17
  Q 789.21 1031.37 790.36 1033.46
  Q 800.43 1051.77 809.71 1071.54
  C 810.43 1073.07 811.00 1074.94 813.23 1074.41
  C 829.76 1070.48 846.53 1067.88 863.41 1065.25
  Z
  M 214.65 1076.20
  Q 196.76 1066.25 193.90 1045.20
  Q 193.24 1035.28 195.90 1025.49
  Q 195.97 1025.24 195.89 1024.97
  Q 195.78 1024.62 195.35 1024.60
  A 0.52 0.51 23.3 0 0 194.96 1024.75
  C 189.79 1030.06 182.71 1036.33 175.97 1038.75
  Q 170.64 1040.66 164.57 1037.05
  L 162.13 1032.47
  A 0.81 0.81 0.0 0 0 160.72 1032.43
  Q 142.23 1062.92 125.32 1093.80
  C 115.76 1111.27 106.13 1128.37 96.46 1146.13
  L 72.75 1190.57
  A 0.79 0.74 69.6 0 0 72.65 1190.81
  Q 72.12 1192.50 73.21 1192.22
  Q 122.37 1179.36 160.98 1170.97
  Q 177.55 1167.36 183.29 1165.81
  Q 198.98 1163.59 214.18 1159.89
  Q 216.43 1160.13 219.00 1158.88
  C 220.91 1157.96 223.60 1158.79 225.65 1158.47
  C 252.03 1154.30 278.85 1150.15 305.60 1147.89
  A 3.26 3.23 -74.2 0 0 307.97 1146.55
  L 399.68 1018.72
  Q 400.74 1017.23 398.93 1017.50
  C 395.95 1017.94 393.57 1017.22 390.87 1016.07
  A 0.56 0.55 12.5 0 0 390.10 1016.56
  Q 390.02 1019.00 389.88 1021.45
  Q 389.14 1034.57 379.79 1042.36
  C 363.53 1055.89 347.79 1042.83 340.95 1027.55
  Q 340.86 1027.37 340.67 1027.40
  Q 340.53 1027.42 340.38 1027.41
  Q 340.16 1027.40 340.13 1027.61
  Q 337.52 1044.20 325.27 1053.85
  Q 311.16 1064.97 294.77 1056.13
  C 286.05 1051.42 280.20 1043.23 277.07 1033.58
  Q 276.50 1031.83 275.94 1033.59
  C 271.70 1047.02 265.07 1058.79 253.92 1067.30
  C 245.45 1073.76 237.40 1077.32 227.92 1078.08
  C 222.91 1078.48 219.16 1076.92 214.65 1076.20
  Z"
/>
<path fill="#edf6ff" d="
  M 675.14 938.19
  A 2.26 2.23 -30.1 0 0 674.69 939.85
  C 676.22 951.66 676.16 963.28 667.98 971.95
  Q 660.79 979.57 651.02 981.25
  C 637.83 983.52 622.99 977.45 618.44 964.01
  Q 616.81 959.18 616.38 954.21
  Q 616.13 951.32 613.33 950.60
  Q 612.76 950.46 612.22 950.77
  Q 610.35 951.82 610.32 953.96
  C 610.11 968.47 609.02 982.31 603.66 995.23
  C 596.33 1012.92 580.14 1022.11 561.04 1020.84
  C 541.85 1019.56 526.99 1006.13 522.22 987.77
  Q 516.84 967.11 525.99 947.25
  Q 527.45 944.06 527.49 940.73
  C 527.57 935.11 520.35 937.04 517.37 938.66
  Q 511.18 942.02 502.83 944.67
  C 490.01 948.74 481.04 943.37 472.45 934.65
  A 1.07 1.07 0.0 0 1 472.40 933.22
  C 497.46 903.56 525.99 877.74 559.50 859.17
  Q 565.16 856.03 577.37 851.30
  Q 600.68 842.28 623.37 848.80
  C 643.26 854.51 660.19 866.59 675.84 881.17
  Q 691.28 895.56 705.90 913.71
  Q 724.55 936.85 742.29 963.77
  Q 742.57 964.20 742.59 964.72
  C 742.84 972.56 738.30 979.15 730.51 980.76
  C 712.46 984.50 695.93 969.06 688.06 954.50
  Q 684.21 947.36 681.02 939.46
  C 680.02 936.97 677.06 935.68 675.14 938.19
  Z
  M 594.94 876.45
  C 593.40 867.56 584.12 866.16 577.33 869.88
  C 568.25 874.85 556.59 885.47 555.70 896.39
  C 554.91 905.95 561.76 911.09 570.81 909.28
  C 583.00 906.83 597.09 888.81 594.94 876.45
  Z
  M 623.7630 900.7972
  A 11.25 9.97 52.6 0 0 624.8503 885.8045
  A 11.25 9.97 52.6 0 0 610.0970 882.9228
  A 11.25 9.97 52.6 0 0 609.0097 897.9155
  A 11.25 9.97 52.6 0 0 623.7630 900.7972
  Z"
/>
<path fill="#ffffff" d="
  M 577.33 869.88
  C 584.12 866.16 593.40 867.56 594.94 876.45
  C 597.09 888.81 583.00 906.83 570.81 909.28
  C 561.76 911.09 554.91 905.95 555.70 896.39
  C 556.59 885.47 568.25 874.85 577.33 869.88
  Z"
/>
<ellipse fill="#ffffff" cx="0.00" cy="0.00" transform="translate(616.93,891.86) rotate(52.6)" rx="11.25" ry="9.97"/>
<path fill="#edf6ff" d="
  M 1309.42 977.01
  C 1310.16 972.03 1304.84 971.80 1302.61 975.13
  C 1295.08 986.38 1280.82 1005.04 1265.42 1003.95
  Q 1259.02 1003.49 1255.52 998.48
  C 1252.07 993.53 1254.48 988.10 1256.46 983.06
  Q 1257.46 980.52 1259.08 978.33
  C 1279.36 950.88 1306.97 928.07 1342.03 925.54
  Q 1364.80 923.91 1384.33 934.41
  C 1413.48 950.09 1433.92 977.69 1451.37 1004.97
  A 0.44 0.43 64.1 0 1 1451.15 1005.62
  C 1441.08 1009.21 1432.69 1006.63 1425.04 999.32
  C 1417.42 992.04 1412.09 983.11 1407.04 974.10
  C 1404.70 969.93 1399.76 972.58 1400.73 976.97
  C 1402.28 984.01 1403.41 992.37 1400.82 998.85
  C 1395.98 1010.95 1381.18 1014.32 1370.89 1006.33
  C 1364.10 1001.06 1360.87 992.48 1359.09 984.08
  C 1357.96 978.72 1352.42 979.40 1352.31 984.57
  C 1351.97 999.87 1348.02 1028.02 1326.07 1024.25
  C 1315.50 1022.43 1310.09 1014.16 1308.43 1004.02
  C 1306.91 994.75 1308.06 986.16 1309.42 977.01
  Z
  M 1380.4179 956.6007
  A 13.46 10.35 49.8 0 0 1379.6353 939.6395
  A 13.46 10.35 49.8 0 0 1363.0421 936.0393
  A 13.46 10.35 49.8 0 0 1363.8247 953.0005
  A 13.46 10.35 49.8 0 0 1380.4179 956.6007
  Z
  M 1331.4979 963.0876
  A 11.29 10.27 120.1 0 0 1346.0451 958.4705
  A 11.29 10.27 120.1 0 0 1342.8221 943.5524
  A 11.29 10.27 120.1 0 0 1328.2749 948.1695
  A 11.29 10.27 120.1 0 0 1331.4979 963.0876
  Z"
/>
<path fill="#344561" d="
  M 297.63 930.90
  L 281.94 930.50
  Q 290.04 929.00 297.63 930.90
  Z"
/>
<ellipse fill="#ffffff" cx="0.00" cy="0.00" transform="translate(1371.73,946.32) rotate(49.8)" rx="13.46" ry="10.35"/>
<path fill="#edf6ff" d="
  M 198.82 1015.56
  Q 197.47 1015.48 196.43 1016.35
  Q 189.74 1021.95 183.97 1027.24
  Q 178.83 1031.96 172.94 1033.65
  C 169.15 1034.74 166.75 1029.56 165.81 1026.64
  C 165.31 1025.06 166.07 1024.46 166.87 1023.24
  C 190.47 987.54 218.52 951.18 261.38 939.53
  Q 287.24 932.49 312.11 939.25
  C 335.58 945.62 358.12 960.75 377.28 977.46
  Q 391.95 990.24 406.01 1004.57
  Q 406.86 1005.43 406.12 1006.38
  C 404.74 1008.16 403.04 1010.05 400.96 1010.97
  C 393.91 1014.07 390.05 1009.24 387.73 1003.47
  C 385.93 999.00 380.70 1000.89 381.92 1004.94
  Q 382.89 1008.18 383.64 1011.56
  C 386.24 1023.24 383.06 1035.58 371.48 1041.02
  C 365.40 1043.88 358.80 1041.52 354.16 1036.87
  C 347.03 1029.73 343.28 1019.57 340.42 1009.55
  A 2.61 2.60 75.2 0 0 337.30 1007.73
  C 335.35 1008.20 334.64 1010.20 334.86 1012.01
  C 336.58 1026.57 332.27 1041.74 320.63 1050.38
  C 312.28 1056.58 301.68 1054.95 293.75 1048.58
  C 285.33 1041.82 281.58 1032.57 280.59 1021.71
  C 280.22 1017.69 275.13 1015.67 273.94 1020.13
  Q 270.34 1033.62 266.29 1042.42
  Q 256.62 1063.48 236.19 1070.69
  C 222.65 1075.48 209.72 1069.82 203.37 1056.90
  C 199.02 1048.04 198.20 1038.02 201.06 1028.57
  Q 202.42 1024.07 202.88 1020.21
  Q 203.40 1015.81 198.82 1015.56
  Z
  M 254.31 956.32
  Q 251.31 956.29 248.38 957.89
  C 240.31 962.30 229.43 971.14 229.87 981.25
  Q 230.14 987.36 234.84 989.97
  C 245.49 995.88 257.71 983.81 262.21 975.07
  C 266.16 967.41 265.13 956.43 254.31 956.32
  Z
  M 285.2210 988.8033
  A 12.21 10.10 93.0 0 0 295.9462 977.1386
  A 12.21 10.10 93.0 0 0 286.4990 964.4167
  A 12.21 10.10 93.0 0 0 275.7738 976.0814
  A 12.21 10.10 93.0 0 0 285.2210 988.8033
  Z"
/>
<path fill="#344561" d="
  M 483.46 950.02
  C 487.62 955.61 494.93 957.53 501.40 957.54
  A 0.79 0.78 3.5 0 1 502.18 958.42
  Q 500.72 970.13 504.43 981.61
  Q 509.70 997.93 524.25 1006.79
  Q 529.76 1013.03 535.50 1017.51
  Q 543.46 1023.72 553.98 1025.95
  C 564.25 1028.13 577.62 1026.33 587.21 1021.41
  Q 603.09 1013.26 609.80 995.54
  Q 611.31 991.55 612.38 987.58
  Q 613.71 986.49 614.58 986.89
  C 621.00 989.81 625.76 992.26 633.42 991.67
  C 638.72 991.26 643.79 990.27 648.20 987.45
  Q 666.29 985.63 676.73 970.06
  Q 690.54 985.53 711.03 984.31
  Q 717.57 986.98 724.99 987.03
  C 735.14 987.11 743.97 982.64 747.07 972.34
  A 0.43 0.43 0.0 0 1 747.84 972.23
  Q 769.47 1006.08 788.26 1041.47
  Q 788.44 1041.81 788.47 1042.24
  Q 788.15 1042.64 787.46 1042.65
  Q 786.92 1042.66 786.40 1042.75
  Q 766.28 1046.43 747.51 1051.47
  Q 706.94 1062.37 668.31 1076.32
  C 664.74 1077.61 661.67 1079.42 658.86 1081.99
  C 643.91 1095.70 627.71 1108.68 610.57 1118.34
  Q 602.36 1122.96 594.11 1126.18
  Q 557.77 1140.33 525.39 1117.80
  C 478.46 1085.13 460.63 1023.14 453.84 968.46
  C 453.38 964.78 453.28 960.60 452.88 956.59
  L 467.46 938.96
  A 0.87 0.86 -46.9 0 1 468.76 938.91
  Q 475.15 945.67 483.46 950.02
  Z
  M 508.60 1080.21
  C 511.75 1088.93 518.60 1097.49 527.56 1100.76
  C 539.66 1105.19 551.92 1096.79 549.50 1083.54
  Q 545.91 1063.90 532.37 1048.68
  C 522.98 1038.13 508.71 1041.66 506.72 1056.23
  Q 504.86 1069.83 508.60 1080.21
  Z
  M 613.35 1093.82
  C 621.20 1099.09 628.90 1093.71 634.39 1087.61
  Q 640.10 1081.24 644.25 1073.99
  C 647.24 1068.76 649.67 1062.91 646.63 1057.31
  C 642.57 1049.82 636.72 1044.68 627.82 1049.74
  C 619.47 1054.48 613.35 1063.16 609.39 1072.20
  C 606.19 1079.46 606.22 1089.03 613.35 1093.82
  Z
  M 575.2679 1081.7162
  A 14.35 11.46 55.5 0 0 576.5845 1063.3990
  A 14.35 11.46 55.5 0 0 559.0121 1058.0638
  A 14.35 11.46 55.5 0 0 557.6955 1076.3810
  A 14.35 11.46 55.5 0 0 575.2679 1081.7162
  Z"
/>
<ellipse fill="#ffffff" cx="0.00" cy="0.00" transform="translate(1337.16,953.32) rotate(120.1)" rx="11.29" ry="10.27"/>
<path fill="#132646" d="
  M 524.25 1006.79
  Q 509.70 997.93 504.43 981.61
  Q 500.72 970.13 502.18 958.42
  A 0.79 0.78 3.5 0 0 501.40 957.54
  C 494.93 957.53 487.62 955.61 483.46 950.02
  Q 489.88 951.90 492.07 951.90
  C 501.91 951.91 510.58 948.40 519.31 944.16
  Q 521.18 943.25 520.38 945.17
  C 512.87 963.17 512.07 983.80 521.51 1001.23
  Q 522.92 1003.85 524.25 1006.79
  Z"
/>
<path fill="#132646" d="
  M 711.03 984.31
  Q 690.54 985.53 676.73 970.06
  Q 677.52 968.44 678.52 966.25
  C 679.93 963.15 680.54 959.55 680.96 956.42
  Q 681.36 953.51 682.66 956.14
  Q 691.92 974.79 711.03 984.31
  Z"
/>
<path fill="#ffffff" d="
  M 254.31 956.32
  C 265.13 956.43 266.16 967.41 262.21 975.07
  C 257.71 983.81 245.49 995.88 234.84 989.97
  Q 230.14 987.36 229.87 981.25
  C 229.43 971.14 240.31 962.30 248.38 957.89
  Q 251.31 956.29 254.31 956.32
  Z"
/>
<path fill="#132646" d="
  M 452.88 956.59
  C 453.28 960.60 453.38 964.78 453.84 968.46
  C 460.63 1023.14 478.46 1085.13 525.39 1117.80
  Q 557.77 1140.33 594.11 1126.18
  Q 602.36 1122.96 610.57 1118.34
  C 627.71 1108.68 643.91 1095.70 658.86 1081.99
  C 661.67 1079.42 664.74 1077.61 668.31 1076.32
  Q 706.94 1062.37 747.51 1051.47
  Q 766.28 1046.43 786.40 1042.75
  Q 786.92 1042.66 787.46 1042.65
  Q 788.15 1042.64 788.47 1042.24
  L 805.20 1075.04
  A 0.86 0.86 0.0 0 1 804.64 1076.26
  Q 754.85 1088.57 707.27 1106.78
  C 698.59 1110.10 689.36 1113.29 680.75 1117.21
  C 676.86 1118.98 672.80 1120.30 668.89 1122.08
  C 663.34 1124.59 657.42 1126.78 651.87 1129.25
  Q 616.52 1144.99 580.67 1162.55
  Q 578.76 1163.48 576.72 1163.00
  Q 556.84 1158.29 535.47 1154.69
  C 492.57 1147.46 449.32 1143.89 405.87 1143.20
  C 389.98 1142.96 374.13 1143.42 358.93 1143.86
  Q 349.24 1144.14 339.31 1144.96
  Q 327.41 1145.94 315.93 1147.05
  A 0.60 0.59 14.6 0 1 315.38 1146.12
  Q 373.34 1064.59 431.82 984.09
  Q 440.18 972.59 452.88 956.59
  Z
  M 437.50 1116.22
  C 442.10 1111.60 442.06 1104.85 440.71 1098.77
  Q 438.32 1088.02 433.88 1080.74
  C 425.63 1067.21 408.14 1072.51 409.39 1088.45
  C 410.02 1096.59 413.71 1110.07 420.53 1116.23
  C 425.46 1120.69 432.71 1121.04 437.50 1116.22
  Z"
/>
<path fill="#edf6ff" d="
  M 887.67 996.03
  A 2.67 2.66 65.3 0 0 886.92 998.07
  Q 887.29 1003.44 886.52 1008.53
  C 884.85 1019.53 875.76 1027.04 864.45 1025.64
  C 852.46 1024.16 848.94 1010.66 848.09 1000.14
  Q 847.96 998.47 847.16 997.07
  C 846.07 995.17 843.23 994.69 841.69 996.42
  Q 840.54 997.71 839.85 999.32
  C 836.86 1006.20 832.90 1013.34 825.22 1014.99
  C 819.52 1016.22 812.79 1014.33 810.37 1008.63
  C 808.72 1004.78 809.55 999.63 809.97 995.58
  Q 810.06 994.69 810.62 993.90
  C 819.93 980.60 832.62 967.13 847.57 961.93
  C 870.04 954.13 891.55 971.94 904.43 988.14
  Q 910.63 995.95 917.03 1004.41
  A 1.20 1.19 37.1 0 1 917.19 1005.53
  C 915.33 1010.65 911.53 1014.58 905.47 1012.54
  C 898.25 1010.10 895.12 1004.34 892.91 997.49
  C 892.16 995.16 889.46 994.20 887.67 996.03
  Z
  M 884.2569 986.6014
  A 11.43 10.15 29.0 0 0 879.1808 972.1826
  A 11.43 10.15 29.0 0 0 864.2631 975.5186
  A 11.43 10.15 29.0 0 0 869.3392 989.9374
  A 11.43 10.15 29.0 0 0 884.2569 986.6014
  Z"
/>
<ellipse fill="#ffffff" cx="0.00" cy="0.00" transform="translate(285.86,976.61) rotate(93.0)" rx="12.21" ry="10.10"/>
<ellipse fill="#ffffff" cx="0.00" cy="0.00" transform="translate(874.26,981.06) rotate(29.0)" rx="11.43" ry="10.15"/>
<path fill="#132646" d="
  M 648.20 987.45
  C 643.79 990.27 638.72 991.26 633.42 991.67
  C 625.76 992.26 621.00 989.81 614.58 986.89
  Q 613.71 986.49 612.38 987.58
  L 615.05 972.53
  A 0.46 0.46 0.0 0 1 615.88 972.34
  Q 627.78 988.60 648.20 987.45
  Z"
/>
<path fill="#132646" d="
  M 1302.00 998.19
  Q 1291.84 1009.73 1280.14 1014.64
  Q 1268.19 1019.66 1256.47 1014.46
  A 0.63 0.63 0.0 0 0 1255.59 1015.14
  C 1258.03 1029.54 1261.41 1043.30 1265.88 1056.97
  Q 1287.58 1123.25 1346.76 1160.20
  Q 1359.02 1167.86 1372.77 1174.16
  Q 1415.14 1193.61 1461.11 1198.37
  Q 1464.81 1198.75 1468.15 1198.35
  Q 1484.78 1196.36 1504.92 1189.66
  Q 1518.40 1185.17 1528.90 1177.45
  L 1542.63 1221.47
  A 0.94 0.94 0.0 0 1 1541.82 1222.69
  Q 1513.34 1225.33 1486.49 1223.99
  Q 1476.30 1223.48 1466.11 1222.22
  Q 1431.10 1217.91 1397.97 1208.67
  C 1351.63 1195.75 1304.16 1176.72 1260.59 1154.80
  C 1238.82 1143.85 1216.78 1133.33 1194.84 1122.96
  A 1.14 1.13 21.7 0 1 1194.24 1121.58
  Q 1210.06 1072.86 1231.57 1025.26
  Q 1232.49 1028.67 1234.39 1040.38
  Q 1240.58 1078.38 1267.59 1110.00
  A 0.59 0.59 0.0 0 0 1268.26 1110.16
  L 1268.57 1110.04
  A 0.29 0.29 0.0 0 0 1268.70 1109.62
  Q 1256.31 1089.87 1248.49 1067.03
  Q 1240.16 1042.67 1235.99 1017.17
  L 1247.34 995.94
  A 0.60 0.60 0.0 0 1 1248.44 996.02
  C 1248.90 997.32 1248.98 998.78 1249.69 999.97
  C 1257.05 1012.12 1270.85 1011.97 1281.88 1005.09
  Q 1290.89 999.48 1297.59 991.35
  C 1298.66 990.06 1299.77 988.05 1301.00 986.77
  Q 1302.48 985.23 1302.40 987.37
  L 1302.00 998.19
  Z
  M 1279.4042 1146.8252
  A 11.78 10.68 44.9 0 0 1278.5987 1130.9449
  A 11.78 10.68 44.9 0 0 1262.7158 1130.1948
  A 11.78 10.68 44.9 0 0 1263.5213 1146.0751
  A 11.78 10.68 44.9 0 0 1279.4042 1146.8252
  Z"
/>
<path fill="#132646" d="
  M 1456.49 1013.15
  Q 1444.04 1020.28 1430.71 1017.09
  Q 1419.04 1014.29 1411.28 1005.97
  Q 1407.77 1002.20 1406.30 1000.93
  C 1407.85 995.75 1407.68 992.49 1408.14 988.03
  Q 1408.23 987.12 1408.72 987.89
  C 1413.18 995.03 1418.19 1001.19 1424.76 1006.51
  Q 1437.10 1016.51 1453.17 1010.94
  C 1454.74 1010.39 1455.83 1011.84 1456.49 1013.15
  Z"
/>
<path fill="#132646" d="
  M 1372.25 1014.65
  Q 1362.74 1015.66 1355.39 1006.19
  L 1356.86 999.24
  Q 1357.18 997.72 1357.83 999.13
  C 1359.27 1002.24 1361.24 1006.34 1363.91 1008.52
  C 1365.07 1009.46 1365.86 1010.70 1367.13 1011.43
  Q 1369.79 1012.97 1372.25 1014.65
  Z"
/>
<path fill="#344561" d="
  M 1302.00 998.19
  C 1302.93 1014.68 1310.07 1028.85 1328.21 1030.17
  C 1340.15 1031.04 1349.14 1023.38 1353.03 1012.59
  Q 1353.93 1010.07 1355.39 1006.19
  Q 1362.74 1015.66 1372.25 1014.65
  C 1386.01 1019.32 1400.28 1014.68 1406.30 1000.93
  Q 1407.77 1002.20 1411.28 1005.97
  Q 1419.04 1014.29 1430.71 1017.09
  Q 1444.04 1020.28 1456.49 1013.15
  Q 1473.25 1041.81 1488.99 1076.24
  Q 1512.41 1127.48 1528.90 1177.45
  Q 1518.40 1185.17 1504.92 1189.66
  Q 1484.78 1196.36 1468.15 1198.35
  Q 1464.81 1198.75 1461.11 1198.37
  Q 1415.14 1193.61 1372.77 1174.16
  Q 1359.02 1167.86 1346.76 1160.20
  Q 1287.58 1123.25 1265.88 1056.97
  C 1261.41 1043.30 1258.03 1029.54 1255.59 1015.14
  A 0.63 0.63 0.0 0 1 1256.47 1014.46
  Q 1268.19 1019.66 1280.14 1014.64
  Q 1291.84 1009.73 1302.00 998.19
  Z
  M 1338.57 1114.65
  C 1344.30 1126.23 1354.25 1135.91 1366.90 1138.32
  C 1375.46 1139.96 1383.69 1136.63 1385.44 1127.49
  C 1387.83 1115.04 1368.97 1096.68 1360.37 1090.42
  C 1355.22 1086.66 1347.43 1085.13 1342.10 1089.23
  C 1334.41 1095.14 1334.67 1106.76 1338.57 1114.65
  Z
  M 1402.80 1115.29
  C 1405.04 1122.83 1410.56 1131.08 1419.17 1130.43
  C 1437.42 1129.03 1432.11 1101.29 1419.71 1095.77
  C 1412.19 1092.43 1404.88 1097.97 1402.33 1104.98
  C 1401.06 1108.47 1401.78 1111.87 1402.80 1115.29
  Z"
/>
<path fill="#132646" d="
  M 866.37 1031.51
  Q 866.53 1033.97 869.19 1037.33
  Q 876.94 1047.09 886.02 1053.41
  Q 888.69 1055.26 893.58 1057.17
  Q 897.63 1058.74 902.00 1060.88
  L 867.63 1064.57
  Q 856.93 1053.72 852.51 1047.99
  Q 850.63 1045.54 846.34 1037.94
  Q 845.52 1036.48 844.03 1035.09
  Q 843.58 1034.67 843.63 1035.28
  Q 844.01 1039.89 846.50 1045.52
  Q 852.07 1058.10 863.41 1065.25
  C 846.53 1067.88 829.76 1070.48 813.23 1074.41
  C 811.00 1074.94 810.43 1073.07 809.71 1071.54
  Q 800.43 1051.77 790.36 1033.46
  Q 789.21 1031.37 790.25 1029.17
  Q 795.77 1017.50 802.47 1006.00
  Q 802.73 1005.55 803.16 1005.25
  A 0.50 0.49 70.9 0 1 803.93 1005.63
  C 804.33 1011.71 807.86 1016.81 813.37 1019.17
  C 825.01 1024.16 836.49 1018.47 842.00 1007.60
  Q 843.17 1005.29 843.53 1007.86
  Q 844.41 1014.21 848.04 1020.52
  Q 854.31 1031.40 866.37 1031.51
  Z"
/>
<path fill="#132646" d="
  M 909.84 1018.93
  Q 905.33 1023.18 899.21 1023.70
  Q 892.25 1024.29 885.40 1023.54
  Q 886.49 1021.93 888.02 1019.82
  Q 891.14 1015.50 892.16 1010.18
  A 0.26 0.26 0.0 0 1 892.62 1010.08
  Q 898.83 1018.35 909.84 1018.93
  Z"
/>
<path fill="#3e385a" d="
  M 924.81 1015.58
  C 922.10 1028.56 925.43 1043.80 934.97 1053.46
  Q 936.69 1055.21 940.20 1057.15
  Q 942.89 1058.65 945.72 1060.47
  L 902.00 1060.88
  Q 897.63 1058.74 893.58 1057.17
  Q 888.69 1055.26 886.02 1053.41
  Q 876.94 1047.09 869.19 1037.33
  Q 866.53 1033.97 866.37 1031.51
  Q 878.17 1031.56 885.40 1023.54
  Q 892.25 1024.29 899.21 1023.70
  Q 905.33 1023.18 909.84 1018.93
  Q 917.43 1017.87 920.86 1010.95
  A 0.49 0.49 0.0 0 1 921.71 1010.90
  L 924.81 1015.58
  Z
  M 905.5813 1054.7346
  A 12.18 10.42 88.3 0 0 915.6354 1042.2509
  A 12.18 10.42 88.3 0 0 904.8587 1030.3854
  A 12.18 10.42 88.3 0 0 894.8046 1042.8691
  A 12.18 10.42 88.3 0 0 905.5813 1054.7346
  Z"
/>
<path fill="#4b6284" d="
  M 924.81 1015.58
  Q 939.65 1037.22 952.38 1060.12
  A 0.28 0.28 0.0 0 1 952.14 1060.53
  L 945.72 1060.47
  Q 942.89 1058.65 940.20 1057.15
  Q 936.69 1055.21 934.97 1053.46
  C 925.43 1043.80 922.10 1028.56 924.81 1015.58
  Z"
/>
<path fill="#132646" d="
  M 214.18 1159.89
  Q 224.87 1156.53 235.41 1153.22
  C 237.29 1152.63 239.36 1151.21 241.60 1150.55
  C 249.98 1148.07 257.92 1142.50 265.16 1137.32
  Q 298.45 1113.53 323.22 1085.25
  C 328.57 1079.15 333.42 1072.63 338.48 1066.11
  A 1.69 1.69 0.0 0 0 338.16 1063.72
  L 335.84 1061.98
  A 1.72 1.71 44.1 0 0 333.73 1062.01
  C 326.73 1067.61 318.94 1071.48 309.99 1073.06
  C 298.27 1075.12 285.83 1070.95 277.72 1062.57
  A 1.50 1.50 0.0 0 0 275.39 1062.80
  C 269.62 1071.72 260.79 1078.38 251.00 1082.64
  C 243.93 1085.71 237.28 1086.31 229.86 1085.76
  C 224.39 1085.36 216.63 1081.73 214.65 1076.20
  C 219.16 1076.92 222.91 1078.48 227.92 1078.08
  C 237.40 1077.32 245.45 1073.76 253.92 1067.30
  C 265.07 1058.79 271.70 1047.02 275.94 1033.59
  Q 276.50 1031.83 277.07 1033.58
  C 280.20 1043.23 286.05 1051.42 294.77 1056.13
  Q 311.16 1064.97 325.27 1053.85
  Q 337.52 1044.20 340.13 1027.61
  Q 340.16 1027.40 340.38 1027.41
  Q 340.53 1027.42 340.67 1027.40
  Q 340.86 1027.37 340.95 1027.55
  C 347.79 1042.83 363.53 1055.89 379.79 1042.36
  Q 389.14 1034.57 389.88 1021.45
  Q 390.02 1019.00 390.10 1016.56
  A 0.56 0.55 12.5 0 1 390.87 1016.07
  C 393.57 1017.22 395.95 1017.94 398.93 1017.50
  Q 400.74 1017.23 399.68 1018.72
  L 307.97 1146.55
  A 3.26 3.23 -74.2 0 1 305.60 1147.89
  C 278.85 1150.15 252.03 1154.30 225.65 1158.47
  C 223.60 1158.79 220.91 1157.96 219.00 1158.88
  Q 216.43 1160.13 214.18 1159.89
  Z"
/>
<path fill="#344561" d="
  M 1231.57 1025.26
  L 1235.99 1017.17
  Q 1240.16 1042.67 1248.49 1067.03
  Q 1256.31 1089.87 1268.70 1109.62
  A 0.29 0.29 0.0 0 1 1268.57 1110.04
  L 1268.26 1110.16
  A 0.59 0.59 0.0 0 1 1267.59 1110.00
  Q 1240.58 1078.38 1234.39 1040.38
  Q 1232.49 1028.67 1231.57 1025.26
  Z"
/>
<path fill="#132646" d="
  M 193.90 1045.20
  Q 187.55 1047.09 185.75 1047.30
  Q 171.10 1048.99 164.57 1037.05
  Q 170.64 1040.66 175.97 1038.75
  C 182.71 1036.33 189.79 1030.06 194.96 1024.75
  A 0.52 0.51 23.3 0 1 195.35 1024.60
  Q 195.78 1024.62 195.89 1024.97
  Q 195.97 1025.24 195.90 1025.49
  Q 193.24 1035.28 193.90 1045.20
  Z"
/>
<ellipse fill="#4b6284" cx="0.00" cy="0.00" transform="translate(905.22,1042.56) rotate(88.3)" rx="12.18" ry="10.42"/>
<path fill="#3e385a" d="
  M 164.57 1037.05
  Q 171.10 1048.99 185.75 1047.30
  Q 187.55 1047.09 193.90 1045.20
  Q 196.76 1066.25 214.65 1076.20
  C 216.63 1081.73 224.39 1085.36 229.86 1085.76
  C 237.28 1086.31 243.93 1085.71 251.00 1082.64
  C 260.79 1078.38 269.62 1071.72 275.39 1062.80
  A 1.50 1.50 0.0 0 1 277.72 1062.57
  C 285.83 1070.95 298.27 1075.12 309.99 1073.06
  C 318.94 1071.48 326.73 1067.61 333.73 1062.01
  A 1.72 1.71 44.1 0 1 335.84 1061.98
  L 338.16 1063.72
  A 1.69 1.69 0.0 0 1 338.48 1066.11
  C 333.42 1072.63 328.57 1079.15 323.22 1085.25
  Q 298.45 1113.53 265.16 1137.32
  C 257.92 1142.50 249.98 1148.07 241.60 1150.55
  C 239.36 1151.21 237.29 1152.63 235.41 1153.22
  Q 224.87 1156.53 214.18 1159.89
  Q 198.98 1163.59 183.29 1165.81
  Q 175.43 1165.82 167.59 1166.27
  Q 157.03 1166.86 151.91 1166.52
  Q 139.00 1165.66 126.90 1162.35
  Q 109.52 1157.61 96.46 1146.13
  C 106.13 1128.37 115.76 1111.27 125.32 1093.80
  Q 142.23 1062.92 160.72 1032.43
  A 0.81 0.81 0.0 0 1 162.13 1032.47
  L 164.57 1037.05
  Z
  M 141.06 1099.77
  C 135.17 1108.47 121.34 1133.20 136.01 1140.78
  C 141.86 1143.79 148.72 1141.11 153.35 1136.82
  Q 165.56 1125.50 169.78 1108.48
  C 171.95 1099.74 166.68 1090.08 156.89 1090.56
  Q 146.97 1091.04 141.06 1099.77
  Z
  M 186.3356 1142.0914
  A 14.44 11.73 98.5 0 0 200.0712 1129.5438
  A 14.44 11.73 98.5 0 0 190.6044 1113.5286
  A 14.44 11.73 98.5 0 0 176.8688 1126.0762
  A 14.44 11.73 98.5 0 0 186.3356 1142.0914
  Z"
/>
<path fill="#3e385a" d="
  M 867.63 1064.57
  L 863.41 1065.25
  Q 852.07 1058.10 846.50 1045.52
  Q 844.01 1039.89 843.63 1035.28
  Q 843.58 1034.67 844.03 1035.09
  Q 845.52 1036.48 846.34 1037.94
  Q 850.63 1045.54 852.51 1047.99
  Q 856.93 1053.72 867.63 1064.57
  Z"
/>
<path fill="#4b6284" d="
  M 527.56 1100.76
  C 518.60 1097.49 511.75 1088.93 508.60 1080.21
  Q 504.86 1069.83 506.72 1056.23
  C 508.71 1041.66 522.98 1038.13 532.37 1048.68
  Q 545.91 1063.90 549.50 1083.54
  C 551.92 1096.79 539.66 1105.19 527.56 1100.76
  Z"
/>
<path fill="#4b6284" d="
  M 613.35 1093.82
  C 606.22 1089.03 606.19 1079.46 609.39 1072.20
  C 613.35 1063.16 619.47 1054.48 627.82 1049.74
  C 636.72 1044.68 642.57 1049.82 646.63 1057.31
  C 649.67 1062.91 647.24 1068.76 644.25 1073.99
  Q 640.10 1081.24 634.39 1087.61
  C 628.90 1093.71 621.20 1099.09 613.35 1093.82
  Z"
/>
<ellipse fill="#4b6284" cx="0.00" cy="0.00" transform="translate(567.14,1069.89) rotate(55.5)" rx="14.35" ry="11.46"/>
<path fill="#7ce0f5" d="
  M 1428.46 1221.88
  L 1407.13 1222.72
  A 0.90 0.90 0.0 0 0 1406.33 1223.95
  C 1408.59 1229.63 1407.26 1236.40 1400.82 1238.36
  C 1391.04 1241.34 1386.97 1230.31 1385.03 1223.34
  A 1.50 1.49 89.6 0 0 1383.98 1222.30
  L 1361.67 1216.36
  Q 1361.10 1216.20 1360.93 1216.77
  Q 1359.10 1222.94 1355.48 1228.42
  Q 1353.48 1231.45 1351.56 1232.52
  C 1345.45 1235.91 1337.38 1231.51 1337.21 1224.42
  C 1337.10 1219.92 1339.52 1215.55 1341.85 1211.84
  A 0.67 0.67 0.0 0 0 1341.45 1210.83
  Q 1325.01 1206.55 1308.61 1201.94
  Q 1305.58 1201.09 1302.86 1199.87
  Q 1255.89 1178.69 1209.25 1156.68
  Q 1175.16 1140.60 1146.22 1127.55
  C 1120.66 1116.01 1093.34 1105.67 1065.75 1098.30
  Q 984.79 1076.65 901.45 1100.11
  A 0.49 0.48 -33.8 0 0 901.28 1100.96
  C 904.06 1103.13 907.01 1106.31 907.17 1109.99
  C 907.59 1119.87 895.72 1123.11 889.22 1116.73
  C 885.85 1113.42 882.38 1110.93 877.94 1108.88
  Q 876.47 1108.21 875.01 1108.85
  Q 870.85 1110.67 866.94 1112.32
  A 0.78 0.78 0.0 0 0 866.75 1113.65
  C 871.32 1117.32 875.96 1121.98 873.30 1128.30
  Q 871.09 1133.54 864.91 1134.07
  C 859.18 1134.56 854.92 1129.92 851.31 1126.03
  A 1.16 1.16 0.0 0 0 849.80 1125.86
  C 827.63 1141.04 813.61 1160.77 813.19 1188.77
  A 1.11 1.10 87.7 0 1 812.19 1189.86
  Q 807.46 1190.30 802.88 1189.94
  C 789.16 1188.86 787.82 1208.50 801.28 1210.16
  Q 807.35 1210.91 814.47 1209.48
  A 1.28 1.27 -12.8 0 1 815.95 1210.41
  Q 819.88 1225.71 828.87 1238.88
  Q 834.05 1246.46 842.17 1256.21
  Q 754.50 1214.45 662.35 1185.71
  Q 625.80 1174.31 588.85 1165.66
  Q 587.88 1165.43 588.77 1164.99
  Q 660.26 1129.73 730.33 1104.39
  C 785.46 1084.45 845.10 1070.72 903.43 1066.96
  C 970.49 1062.65 1038.23 1073.35 1102.14 1093.84
  Q 1147.11 1108.25 1188.71 1126.53
  Q 1198.45 1130.81 1206.90 1134.93
  C 1231.95 1147.18 1259.09 1160.76 1285.62 1173.10
  Q 1294.48 1177.22 1303.59 1181.08
  C 1339.67 1196.37 1376.64 1209.74 1413.97 1218.61
  C 1418.78 1219.75 1423.68 1220.53 1428.46 1221.88
  Z
  M 749.33 1155.01
  C 760.26 1157.81 779.09 1145.50 781.91 1134.93
  Q 783.79 1127.90 779.92 1123.19
  C 770.11 1111.23 751.10 1126.41 744.37 1134.48
  C 738.46 1141.58 739.37 1152.45 749.33 1155.01
  Z
  M 778.9156 1166.1922
  A 11.39 9.97 116.4 0 0 792.9102 1160.4230
  A 11.39 9.97 116.4 0 0 789.0444 1145.7878
  A 11.39 9.97 116.4 0 0 775.0498 1151.5570
  A 11.39 9.97 116.4 0 0 778.9156 1166.1922
  Z"
/>
<path fill="#344561" d="
  M 437.50 1116.22
  C 432.71 1121.04 425.46 1120.69 420.53 1116.23
  C 413.71 1110.07 410.02 1096.59 409.39 1088.45
  C 408.14 1072.51 425.63 1067.21 433.88 1080.74
  Q 438.32 1088.02 440.71 1098.77
  C 442.06 1104.85 442.10 1111.60 437.50 1116.22
  Z"
/>
<path fill="#4b6284" d="
  M 1366.90 1138.32
  C 1354.25 1135.91 1344.30 1126.23 1338.57 1114.65
  C 1334.67 1106.76 1334.41 1095.14 1342.10 1089.23
  C 1347.43 1085.13 1355.22 1086.66 1360.37 1090.42
  C 1368.97 1096.68 1387.83 1115.04 1385.44 1127.49
  C 1383.69 1136.63 1375.46 1139.96 1366.90 1138.32
  Z"
/>
<path fill="#e8fbff" d="
  M 1428.46 1221.88
  Q 1488.98 1234.92 1550.20 1227.42
  C 1569.87 1225.01 1589.89 1221.68 1608.90 1217.19
  Q 1610.36 1216.85 1611.09 1215.44
  Q 1612.75 1215.06 1612.04 1214.20
  L 1612.03 1370.31
  L 1439.06 1370.37
  A 0.78 0.78 0.0 0 0 1438.29 1371.28
  C 1441.13 1388.13 1439.51 1408.13 1426.75 1420.22
  C 1412.00 1434.20 1390.76 1432.02 1378.35 1416.52
  A 1.85 1.84 -30.1 0 0 1376.23 1415.96
  Q 1347.17 1427.45 1318.36 1433.94
  Q 1279.93 1442.59 1244.03 1444.16
  C 1178.15 1447.06 1111.51 1440.73 1050.13 1421.35
  Q 1021.44 1412.29 998.42 1397.33
  A 1.87 1.85 -43.9 0 0 996.45 1397.30
  Q 983.96 1404.86 970.13 1411.54
  Q 950.18 1421.17 929.02 1429.22
  Q 914.66 1434.69 884.81 1444.09
  Q 878.01 1446.23 869.31 1448.36
  Q 861.13 1450.37 853.52 1452.56
  Q 827.39 1460.11 798.60 1465.06
  Q 786.82 1467.08 774.89 1469.04
  Q 769.82 1469.87 764.48 1470.43
  Q 760.18 1470.87 754.01 1471.66
  Q 737.93 1473.71 720.25 1474.35
  C 668.45 1476.22 616.52 1472.46 566.05 1463.88
  Q 527.29 1457.30 488.78 1446.29
  Q 459.67 1437.97 433.21 1426.52
  Q 403.21 1413.54 379.90 1393.64
  A 0.73 0.73 0.0 0 0 378.71 1394.02
  C 375.54 1406.94 366.29 1419.33 353.01 1422.88
  Q 339.27 1426.56 327.57 1418.11
  C 313.51 1407.96 311.42 1387.24 311.99 1371.71
  A 1.21 1.21 0.0 0 0 310.77 1370.46
  Q 287.61 1370.66 264.73 1370.52
  C 263.53 1370.52 262.55 1370.98 262.00 1372.10
  Q 251.07 1394.07 232.49 1410.69
  C 225.87 1416.62 217.47 1421.64 209.05 1422.77
  C 185.44 1425.93 170.04 1405.71 176.67 1383.17
  Q 178.40 1377.30 181.22 1371.80
  A 0.79 0.79 0.0 0 0 180.51 1370.65
  L 1.94 1370.71
  L 1.98 1219.06
  Q 88.35 1191.77 176.84 1173.31
  C 258.82 1156.21 343.89 1146.76 426.59 1149.42
  Q 506.44 1151.99 583.98 1170.54
  C 596.15 1173.45 608.44 1176.17 620.57 1179.51
  Q 709.94 1204.04 795.85 1241.42
  Q 799.42 1242.98 801.29 1244.13
  Q 805.96 1249.19 812.29 1248.85
  Q 861.78 1270.54 909.01 1296.75
  Q 910.59 1297.63 912.23 1296.86
  Q 913.19 1296.41 913.34 1295.48
  Q 913.75 1292.99 911.55 1291.75
  Q 888.00 1278.49 863.99 1266.73
  Q 852.85 1261.28 842.17 1256.21
  Q 834.05 1246.46 828.87 1238.88
  Q 819.88 1225.71 815.95 1210.41
  A 1.28 1.27 -12.8 0 0 814.47 1209.48
  Q 807.35 1210.91 801.28 1210.16
  C 787.82 1208.50 789.16 1188.86 802.88 1189.94
  Q 807.46 1190.30 812.19 1189.86
  A 1.11 1.10 87.7 0 0 813.19 1188.77
  C 813.61 1160.77 827.63 1141.04 849.80 1125.86
  A 1.16 1.16 0.0 0 1 851.31 1126.03
  C 854.92 1129.92 859.18 1134.56 864.91 1134.07
  Q 871.09 1133.54 873.30 1128.30
  C 875.96 1121.98 871.32 1117.32 866.75 1113.65
  A 0.78 0.78 0.0 0 1 866.94 1112.32
  Q 870.85 1110.67 875.01 1108.85
  Q 876.47 1108.21 877.94 1108.88
  C 882.38 1110.93 885.85 1113.42 889.22 1116.73
  C 895.72 1123.11 907.59 1119.87 907.17 1109.99
  C 907.01 1106.31 904.06 1103.13 901.28 1100.96
  A 0.49 0.48 -33.8 0 1 901.45 1100.11
  Q 984.79 1076.65 1065.75 1098.30
  C 1093.34 1105.67 1120.66 1116.01 1146.22 1127.55
  Q 1175.16 1140.60 1209.25 1156.68
  Q 1255.89 1178.69 1302.86 1199.87
  Q 1305.58 1201.09 1308.61 1201.94
  Q 1325.01 1206.55 1341.45 1210.83
  A 0.67 0.67 0.0 0 1 1341.85 1211.84
  C 1339.52 1215.55 1337.10 1219.92 1337.21 1224.42
  C 1337.38 1231.51 1345.45 1235.91 1351.56 1232.52
  Q 1353.48 1231.45 1355.48 1228.42
  Q 1359.10 1222.94 1360.93 1216.77
  Q 1361.10 1216.20 1361.67 1216.36
  L 1383.98 1222.30
  A 1.50 1.49 89.6 0 1 1385.03 1223.34
  C 1386.97 1230.31 1391.04 1241.34 1400.82 1238.36
  C 1407.26 1236.40 1408.59 1229.63 1406.33 1223.95
  A 0.90 0.90 0.0 0 1 1407.13 1222.72
  L 1428.46 1221.88
  Z
  M 972.82 1144.16
  C 953.70 1129.84 924.90 1150.13 915.01 1166.57
  C 907.77 1178.61 908.31 1196.01 919.73 1205.01
  C 931.08 1213.96 946.49 1213.09 958.74 1206.18
  Q 974.97 1197.02 981.85 1178.69
  C 986.37 1166.62 983.17 1151.92 972.82 1144.16
  Z
  M 1006.17 1190.40
  C 1004.93 1202.85 1008.35 1215.69 1019.62 1222.08
  Q 1026.18 1225.80 1034.93 1224.66
  C 1045.50 1223.28 1054.99 1214.81 1056.51 1203.70
  C 1058.07 1192.21 1055.39 1179.44 1045.64 1172.36
  C 1035.81 1165.22 1022.63 1167.05 1013.60 1175.23
  Q 1007.08 1181.14 1006.17 1190.40
  Z
  M 236.12 1227.60
  Q 226.42 1232.88 216.89 1239.74
  Q 212.09 1243.20 208.61 1246.92
  C 191.42 1265.26 201.99 1292.83 227.81 1292.81
  Q 234.36 1292.80 238.67 1291.59
  Q 273.25 1281.95 300.59 1259.35
  C 308.78 1252.58 314.20 1241.78 312.41 1231.04
  Q 309.88 1215.78 296.80 1210.60
  C 288.53 1207.32 279.39 1208.63 270.98 1211.31
  C 258.44 1215.30 247.43 1221.47 236.12 1227.60
  Z
  M 365.09 1235.44
  C 352.06 1236.74 342.82 1248.62 336.24 1259.82
  C 326.66 1276.11 334.30 1297.24 354.18 1299.44
  C 363.24 1300.44 370.70 1297.28 377.45 1291.20
  Q 384.12 1285.19 387.79 1279.07
  C 398.81 1260.69 390.31 1232.91 365.09 1235.44
  Z"
/>
<path fill="#4b6284" d="
  M 136.01 1140.78
  C 121.34 1133.20 135.17 1108.47 141.06 1099.77
  Q 146.97 1091.04 156.89 1090.56
  C 166.68 1090.08 171.95 1099.74 169.78 1108.48
  Q 165.56 1125.50 153.35 1136.82
  C 148.72 1141.11 141.86 1143.79 136.01 1140.78
  Z"
/>
<path fill="#4b6284" d="
  M 1402.80 1115.29
  C 1401.78 1111.87 1401.06 1108.47 1402.33 1104.98
  C 1404.88 1097.97 1412.19 1092.43 1419.71 1095.77
  C 1432.11 1101.29 1437.42 1129.03 1419.17 1130.43
  C 1410.56 1131.08 1405.04 1122.83 1402.80 1115.29
  Z"
/>
<ellipse fill="#4b6284" cx="0.00" cy="0.00" transform="translate(188.47,1127.81) rotate(98.5)" rx="14.44" ry="11.73"/>
<path fill="#e8fbff" d="
  M 781.91 1134.93
  C 779.09 1145.50 760.26 1157.81 749.33 1155.01
  C 739.37 1152.45 738.46 1141.58 744.37 1134.48
  C 751.10 1126.41 770.11 1111.23 779.92 1123.19
  Q 783.79 1127.90 781.91 1134.93
  Z"
/>
<ellipse fill="#344561" cx="0.00" cy="0.00" transform="translate(1271.06,1138.51) rotate(44.9)" rx="11.78" ry="10.68"/>
<path fill="#ffffff" d="
  M 915.01 1166.57
  C 924.90 1150.13 953.70 1129.84 972.82 1144.16
  C 983.17 1151.92 986.37 1166.62 981.85 1178.69
  Q 974.97 1197.02 958.74 1206.18
  C 946.49 1213.09 931.08 1213.96 919.73 1205.01
  C 908.31 1196.01 907.77 1178.61 915.01 1166.57
  Z"
/>
<ellipse fill="#e8fbff" cx="0.00" cy="0.00" transform="translate(783.98,1155.99) rotate(116.4)" rx="11.39" ry="9.97"/>
<path fill="#132646" d="
  M 96.46 1146.13
  Q 109.52 1157.61 126.90 1162.35
  Q 139.00 1165.66 151.91 1166.52
  Q 157.03 1166.86 167.59 1166.27
  Q 175.43 1165.82 183.29 1165.81
  Q 177.55 1167.36 160.98 1170.97
  Q 122.37 1179.36 73.21 1192.22
  Q 72.12 1192.50 72.65 1190.81
  A 0.79 0.74 69.6 0 1 72.75 1190.57
  L 96.46 1146.13
  Z"
/>
<path fill="#ffffff" d="
  M 1019.62 1222.08
  C 1008.35 1215.69 1004.93 1202.85 1006.17 1190.40
  Q 1007.08 1181.14 1013.60 1175.23
  C 1022.63 1167.05 1035.81 1165.22 1045.64 1172.36
  C 1055.39 1179.44 1058.07 1192.21 1056.51 1203.70
  C 1054.99 1214.81 1045.50 1223.28 1034.93 1224.66
  Q 1026.18 1225.80 1019.62 1222.08
  Z"
/>
<path fill="#ffffff" d="
  M 236.12 1227.60
  C 247.43 1221.47 258.44 1215.30 270.98 1211.31
  C 279.39 1208.63 288.53 1207.32 296.80 1210.60
  Q 309.88 1215.78 312.41 1231.04
  C 314.20 1241.78 308.78 1252.58 300.59 1259.35
  Q 273.25 1281.95 238.67 1291.59
  Q 234.36 1292.80 227.81 1292.81
  C 201.99 1292.83 191.42 1265.26 208.61 1246.92
  Q 212.09 1243.20 216.89 1239.74
  Q 226.42 1232.88 236.12 1227.60
  Z"
/>
<path fill="#ffffff" d="
  M 365.09 1235.44
  C 390.31 1232.91 398.81 1260.69 387.79 1279.07
  Q 384.12 1285.19 377.45 1291.20
  C 370.70 1297.28 363.24 1300.44 354.18 1299.44
  C 334.30 1297.24 326.66 1276.11 336.24 1259.82
  C 342.82 1248.62 352.06 1236.74 365.09 1235.44
  Z"
/>
<path fill="#7ce0f5" d="
  M 812.29 1248.85
  Q 805.96 1249.19 801.29 1244.13
  L 812.29 1248.85
  Z"
/>
<path fill="#7ce0f5" d="
  M 1612.03 1370.31
  L 1612.05 1946.95
  A 0.59 0.58 -90.0 0 1 1611.47 1947.54
  L 2.71 1947.57
  A 0.76 0.75 0.0 0 1 1.95 1946.82
  L 1.94 1370.71
  L 180.51 1370.65
  A 0.79 0.79 0.0 0 1 181.22 1371.80
  Q 178.40 1377.30 176.67 1383.17
  C 170.04 1405.71 185.44 1425.93 209.05 1422.77
  C 217.47 1421.64 225.87 1416.62 232.49 1410.69
  Q 251.07 1394.07 262.00 1372.10
  C 262.55 1370.98 263.53 1370.52 264.73 1370.52
  Q 287.61 1370.66 310.77 1370.46
  A 1.21 1.21 0.0 0 1 311.99 1371.71
  C 311.42 1387.24 313.51 1407.96 327.57 1418.11
  Q 339.27 1426.56 353.01 1422.88
  C 366.29 1419.33 375.54 1406.94 378.71 1394.02
  A 0.73 0.73 0.0 0 1 379.90 1393.64
  Q 403.21 1413.54 433.21 1426.52
  Q 459.67 1437.97 488.78 1446.29
  Q 527.29 1457.30 566.05 1463.88
  C 616.52 1472.46 668.45 1476.22 720.25 1474.35
  Q 737.93 1473.71 754.01 1471.66
  Q 760.18 1470.87 764.48 1470.43
  Q 769.82 1469.87 774.89 1469.04
  Q 786.82 1467.08 798.60 1465.06
  Q 827.39 1460.11 853.52 1452.56
  Q 861.13 1450.37 869.31 1448.36
  Q 878.01 1446.23 884.81 1444.09
  Q 914.66 1434.69 929.02 1429.22
  Q 950.18 1421.17 970.13 1411.54
  Q 983.96 1404.86 996.45 1397.30
  A 1.87 1.85 -43.9 0 1 998.42 1397.33
  Q 1021.44 1412.29 1050.13 1421.35
  C 1111.51 1440.73 1178.15 1447.06 1244.03 1444.16
  Q 1279.93 1442.59 1318.36 1433.94
  Q 1347.17 1427.45 1376.23 1415.96
  A 1.85 1.84 -30.1 0 1 1378.35 1416.52
  C 1390.76 1432.02 1412.00 1434.20 1426.75 1420.22
  C 1439.51 1408.13 1441.13 1388.13 1438.29 1371.28
  A 0.78 0.78 0.0 0 1 1439.06 1370.37
  L 1612.03 1370.31
  Z"
/>
</svg>
