<?xml version="1.0" encoding="UTF-8" standalone="no"?>
<!DOCTYPE svg PUBLIC "-//W3C//DTD SVG 1.1//EN" "http://www.w3.org/Graphics/SVG/1.1/DTD/svg11.dtd">
<svg xmlns="http://www.w3.org/2000/svg" version="1.1" viewBox="0.00 0.00 936.00 3360.00">
<g stroke-width="2.00" fill="none" stroke-linecap="butt">
<path stroke="#002f5a" vector-effect="non-scaling-stroke" d="
  M 850.84 3360.00
  L 850.28 3142.23"
/>
<path stroke="#5a6f80" vector-effect="non-scaling-stroke" d="
  M 850.28 3142.23
  L 849.62 2990.76"
/>
<path stroke="#002f5a" vector-effect="non-scaling-stroke" d="
  M 849.62 2990.76
  L 851.18 2576.71"
/>
<path stroke="#003a64" vector-effect="non-scaling-stroke" d="
  M 851.18 2576.71
  Q 851.27 2228.52 851.16 1880.33
  Q 851.15 1872.22 851.32 1863.18
  Q 851.48 1854.59 851.61 1846.00
  Q 852.69 1770.38 853.80 1694.75
  Q 854.40 1653.76 854.67 1556.46"
/>
<path stroke="#004b7b" vector-effect="non-scaling-stroke" d="
  M 854.67 1556.46
  L 855.80 617.21"
/>
<path stroke="#003a64" vector-effect="non-scaling-stroke" d="
  M 855.80 617.21
  Q 856.15 597.36 856.08 577.50
  Q 856.07 575.64 857.66 572.17
  C 859.55 568.01 858.75 563.30 854.85 560.77
  Q 853.12 559.65 848.71 559.24
  Q 783.09 553.10 717.29 556.64"
/>
<path stroke="#004b7b" vector-effect="non-scaling-stroke" d="
  M 717.29 556.64
  L 561.95 557.08"
/>
<path stroke="#5a6f80" vector-effect="non-scaling-stroke" d="
  M 561.95 557.08
  L 430.51 556.93"
/>
<path stroke="#003a64" vector-effect="non-scaling-stroke" d="
  M 430.51 556.93
  L 287.71 560.89"
/>
<path stroke="#004b7b" vector-effect="non-scaling-stroke" d="
  M 287.71 560.89
  L 124.74 562.73"
/>
<path stroke="#003a64" vector-effect="non-scaling-stroke" d="
  M 124.74 562.73
  Q 113.50 561.49 103.11 565.96
  Q 100.95 566.88 100.92 568.50
  Q 100.15 605.27 99.49 642.04"
/>
<path stroke="#004b7b" vector-effect="non-scaling-stroke" d="
  M 99.49 642.04
  Q 92.78 1060.77 96.82 1479.54"
/>
<path stroke="#003a64" vector-effect="non-scaling-stroke" d="
  M 96.82 1479.54
  Q 96.35 2191.65 95.64 2903.75
  Q 95.64 2905.93 94.38 2907.13
  C 92.55 2908.86 88.80 2913.13 92.33 2915.41
  C 93.96 2916.45 95.78 2917.75 95.73 2919.89
  A 2.12 2.07 65.9 0 1 95.26 2921.16
  Q 90.55 2926.86 96.26 2931.95
  Q 96.63 2932.28 96.53 2932.76
  L 96.02 2935.20"
/>
<path stroke="#002f5a" vector-effect="non-scaling-stroke" d="
  M 96.02 2935.20
  Q 92.90 2951.61 92.36 2959.24
  Q 88.84 3009.08 92.15 3058.98"
/>
<path stroke="#5a6f80" vector-effect="non-scaling-stroke" d="
  M 92.15 3058.98
  L 91.28 3195.91"
/>
<path stroke="#002f5a" vector-effect="non-scaling-stroke" d="
  M 91.28 3195.91
  L 90.85 3360.00"
/>
<path stroke="#5a6f80" vector-effect="non-scaling-stroke" d="
  M 28.26 300.78
  Q 28.40 414.16 28.46 528.29
  Q 28.46 536.01 29.57 538.56
  Q 32.07 544.34 40.00 544.05
  Q 80.28 542.57 120.54 541.10"
/>
<path stroke="#5a6f80" vector-effect="non-scaling-stroke" d="
  M 782.50 539.90
  Q 839.97 546.72 897.67 542.69
  C 901.51 542.42 904.75 542.57 905.27 538.51
  C 907.41 522.11 908.31 506.35 908.57 489.73
  Q 910.22 382.71 908.93 274.83"
/>
<path stroke="#757b80" vector-effect="non-scaling-stroke" d="
  M 908.93 274.83
  Q 908.58 230.09 908.09 184.48
  Q 908.03 179.22 907.08 177.16
  Q 905.33 173.35 900.38 172.57
  C 884.78 170.11 866.90 169.29 850.33 169.29
  Q 334.92 169.18 107.58 169.82
  Q 80.18 169.90 36.52 173.92
  C 34.32 174.12 31.65 175.31 31.43 177.51
  Q 25.57 234.60 28.26 300.78"
/>
<path stroke="#cfeaff" vector-effect="non-scaling-stroke" d="
  M 908.93 274.83
  Q 861.71 270.78 814.25 272.80
  Q 782.99 274.14 751.73 275.64
  Q 741.59 276.13 731.75 276.35
  C 511.84 281.39 289.56 286.71 68.48 293.44
  Q 56.35 293.81 48.62 295.28
  Q 38.37 297.22 28.26 300.78"
/>
<path stroke="#5a9eda" vector-effect="non-scaling-stroke" d="
  M 645.04 534.86
  Q 642.98 533.85 640.70 534.66"
/>
<path stroke="#cfeaff" vector-effect="non-scaling-stroke" d="
  M 283.22 457.84
  Q 300.47 443.96 313.97 426.98
  C 324.31 413.98 331.20 399.17 330.00 382.50
  C 327.88 353.21 299.79 336.44 272.51 343.18
  Q 262.47 345.66 253.23 352.97
  Q 249.27 356.11 242.85 364.02
  C 233.44 375.62 222.57 385.88 210.53 394.62
  C 198.59 403.28 191.14 415.91 189.93 430.53
  C 189.02 441.51 191.91 452.63 198.56 461.26
  C 212.20 478.97 234.21 484.07 255.05 476.26
  C 265.79 472.23 274.17 465.13 283.22 457.84"
/>
<path stroke="#cfeaff" vector-effect="non-scaling-stroke" d="
  M 395.79 454.89
  C 435.42 487.58 495.86 444.85 504.31 402.68
  C 510.61 371.23 485.78 340.84 452.68 346.37
  C 439.15 348.63 428.63 356.02 419.92 366.62
  C 414.51 373.20 406.10 378.12 399.11 382.97
  C 374.08 400.30 372.18 435.41 395.79 454.89"
/>
<path stroke="#0085df" vector-effect="non-scaling-stroke" d="
  M 855.80 617.21
  L 855.52 617.03
  Q 855.24 616.84 854.90 616.88
  Q 826.68 620.48 798.23 621.50
  Q 790.04 621.79 781.75 622.16
  Q 666.67 627.24 557.01 631.73
  Q 552.36 631.92 546.61 633.36
  Q 544.09 634.00 543.48 631.25
  C 542.94 628.86 542.90 626.19 541.37 624.13"
/>
<path stroke="#5aa9e3" vector-effect="non-scaling-stroke" d="
  M 541.37 624.13
  Q 550.61 593.26 560.73 562.02
  Q 560.92 561.41 561.82 560.89"
/>
<path stroke="#0085df" vector-effect="non-scaling-stroke" d="
  M 561.82 560.89
  L 737.43 561.15
  Q 738.77 561.15 738.87 559.81
  L 738.93 558.96
  Q 739.00 557.88 737.93 557.82
  L 717.29 556.64"
/>
<path stroke="#5aa9e3" vector-effect="non-scaling-stroke" d="
  M 430.51 556.93
  L 406.98 634.79"
/>
<path stroke="#0085df" vector-effect="non-scaling-stroke" d="
  M 406.98 634.79
  Q 398.76 634.77 391.00 634.87
  Q 238.98 636.69 118.50 635.47
  C 113.58 635.42 109.58 634.04 103.94 632.31
  Q 101.71 631.62 100.89 633.97
  Q 100.85 634.09 100.73 634.13
  Q 100.61 634.17 100.47 634.11
  Q 100.39 634.08 100.37 634.17
  C 100.02 636.33 100.67 640.38 99.49 642.04"
/>
<path stroke="#0085df" vector-effect="non-scaling-stroke" d="
  M 124.74 562.73
  Q 123.88 562.66 123.25 563.02
  Q 123.03 563.14 123.27 563.22
  Q 123.33 563.24 123.34 563.29
  Q 123.43 563.61 123.19 563.87
  Q 121.18 566.06 122.71 567.70
  A 1.55 1.51 -20.2 0 0 123.78 568.18
  Q 237.02 570.89 349.09 567.67
  Q 352.25 567.58 352.48 564.43
  L 352.52 563.94
  Q 352.68 561.70 350.44 561.67
  L 287.71 560.89"
/>
<path stroke="#5abafb" vector-effect="non-scaling-stroke" d="
  M 561.82 560.89
  Q 562.34 559.29 561.95 557.08"
/>
<path stroke="#5abafb" vector-effect="non-scaling-stroke" d="
  M 541.37 624.13
  Q 538.53 658.92 536.55 674.76
  C 535.97 679.44 531.94 682.03 527.15 682.01
  C 517.79 681.97 508.93 683.93 500.88 688.45
  Q 475.28 702.84 452.87 720.75
  Q 439.55 731.39 428.01 745.54
  C 400.71 779.05 384.00 821.62 378.10 864.32
  Q 374.63 889.47 377.07 913.55
  C 377.93 922.10 380.04 930.71 380.36 939.41
  C 380.67 948.05 379.02 956.77 378.41 965.50
  C 375.84 1002.14 381.97 1039.53 391.57 1075.99
  C 411.13 1150.28 446.52 1220.31 490.24 1282.98"
/>
<path stroke="#cfeaff" vector-effect="non-scaling-stroke" d="
  M 490.24 1282.98
  Q 486.35 1283.51 486.10 1286.45
  C 485.95 1288.13 487.34 1289.62 488.28 1290.90
  C 506.20 1315.44 526.46 1337.54 548.73 1358.57
  C 569.45 1378.12 601.34 1390.59 624.81 1368.71
  A 2.38 2.38 0.0 0 1 628.37 1369.07
  C 637.54 1381.89 644.69 1396.07 651.98 1410.45
  Q 669.46 1444.95 686.68 1486.08
  Q 695.49 1507.14 701.75 1527.34
  A 2.24 2.24 0.0 0 0 703.93 1528.91
  C 705.62 1528.88 706.13 1527.33 706.28 1525.90
  Q 706.54 1523.58 708.11 1521.93"
/>
<path stroke="#5abafb" vector-effect="non-scaling-stroke" d="
  M 708.11 1521.93
  Q 710.86 1536.58 717.26 1549.83
  C 720.69 1556.92 723.69 1564.25 722.95 1572.23
  Q 722.14 1580.95 717.83 1589.46"
/>
<path stroke="#5aa9e3" vector-effect="non-scaling-stroke" d="
  M 717.83 1589.46
  Q 640.57 1716.15 562.97 1843.46
  C 561.00 1846.69 557.45 1847.46 553.95 1846.42
  C 534.30 1840.63 512.78 1842.60 494.87 1851.09
  Q 487.96 1854.36 480.09 1859.32
  C 464.54 1869.11 450.93 1879.42 437.95 1891.84
  C 374.00 1953.07 321.72 2024.10 284.19 2103.84
  C 273.84 2125.81 266.63 2150.63 264.52 2175.04
  C 262.20 2201.83 272.44 2238.70 304.12 2243.35
  C 306.17 2243.65 307.22 2244.94 307.98 2246.78
  Q 314.67 2262.84 328.79 2295.20"
/>
<path stroke="#cfeaff" vector-effect="non-scaling-stroke" d="
  M 328.79 2295.20
  Q 325.72 2301.34 327.38 2307.94
  Q 327.64 2308.99 332.06 2319.31
  Q 381.99 2436.01 441.08 2547.62
  C 449.67 2563.86 459.50 2579.25 470.73 2592.51
  Q 478.31 2601.46 490.48 2601.70"
/>
<path stroke="#5aa9e3" vector-effect="non-scaling-stroke" d="
  M 490.48 2601.70
  L 547.74 2627.23"
/>
<path stroke="#5a9eda" vector-effect="non-scaling-stroke" d="
  M 547.74 2627.23
  Q 584.68 2641.18 619.53 2655.16
  C 650.96 2667.77 684.78 2683.44 705.15 2711.52
  C 706.93 2713.98 707.29 2716.69 705.98 2719.41
  C 695.13 2742.01 699.65 2771.98 707.03 2795.92
  C 715.80 2824.34 729.81 2848.79 748.27 2873.01
  Q 762.59 2891.79 778.07 2905.13
  C 787.08 2912.89 797.90 2919.97 808.77 2922.49
  C 811.61 2923.15 813.77 2924.77 815.16 2927.35
  Q 832.29 2959.06 849.62 2990.76"
/>
<path stroke="#5a9eda" vector-effect="non-scaling-stroke" d="
  M 850.28 3142.23
  Q 846.81 3142.14 845.52 3139.72
  Q 831.98 3114.36 818.42 3088.99
  C 816.43 3085.27 815.41 3081.63 816.60 3077.55
  C 824.78 3049.39 828.97 3020.12 819.24 2992.80
  C 813.89 2977.79 805.64 2965.14 795.43 2952.24
  C 769.92 2920.01 739.28 2891.85 704.83 2870.08
  C 697.30 2865.32 692.88 2860.88 689.44 2852.96
  Q 681.24 2834.11 673.37 2815.76
  Q 663.88 2793.63 650.63 2774.87
  C 627.88 2742.68 596.90 2724.57 556.77 2740.36
  Q 548.88 2743.47 541.35 2747.76
  C 538.74 2749.25 537.37 2749.28 534.63 2748.64
  C 522.80 2745.87 511.18 2741.86 499.85 2739.66
  Q 452.52 2730.49 412.82 2753.89
  C 391.86 2766.24 374.15 2784.85 360.21 2805.29
  Q 352.43 2816.69 345.18 2827.75
  Q 343.81 2829.83 341.60 2830.75
  C 321.28 2839.16 301.01 2849.37 284.90 2863.69
  C 274.45 2872.97 263.35 2883.83 253.02 2894.57
  Q 246.26 2901.60 240.97 2908.35
  Q 166.88 3002.96 138.15 3119.56
  C 137.07 3123.95 135.18 3129.03 133.10 3132.57
  Q 113.92 3165.15 91.28 3195.91"
/>
<path stroke="#5a9eda" vector-effect="non-scaling-stroke" d="
  M 92.15 3058.98
  Q 95.39 3055.61 98.02 3051.98
  Q 99.32 3050.19 100.03 3049.77
  C 128.75 3032.84 154.09 3010.89 174.75 2984.80
  C 220.34 2927.22 256.39 2862.77 279.79 2793.74
  C 281.09 2789.91 282.97 2785.11 284.90 2781.01
  Q 291.25 2767.50 298.72 2751.93
  Q 308.63 2731.29 309.02 2708.75
  Q 309.68 2670.50 305.25 2639.00"
/>
<path stroke="#5aa9e3" vector-effect="non-scaling-stroke" d="
  M 305.25 2639.00
  Q 304.73 2633.77 303.92 2627.52
  Q 303.01 2620.50 304.15 2612.88
  C 305.25 2605.52 309.51 2598.12 312.21 2590.83
  C 349.18 2491.37 309.36 2384.62 235.40 2314.33
  C 230.29 2309.47 226.09 2304.09 223.52 2297.51
  Q 210.25 2263.62 197.66 2223.65
  C 194.45 2213.47 193.86 2204.70 197.13 2195.26
  Q 208.25 2163.20 219.42 2127.35
  C 223.24 2115.11 229.98 2104.88 240.42 2097.45
  Q 247.02 2092.77 253.66 2087.52
  Q 294.21 2055.52 321.79 2019.23
  C 333.92 2003.26 343.92 1986.71 353.69 1968.45
  Q 392.80 1895.35 407.81 1811.56
  C 410.66 1795.70 412.57 1781.19 411.60 1765.75
  Q 411.05 1757.08 408.51 1750.92
  C 406.79 1746.76 403.29 1742.86 400.26 1739.40
  C 399.18 1738.17 398.61 1736.69 399.25 1735.08
  Q 435.01 1645.23 465.15 1541.67
  Q 466.94 1535.54 465.79 1530.47
  Q 460.90 1508.94 454.42 1486.92
  Q 449.73 1470.94 444.74 1455.21"
/>
<path stroke="#5abafb" vector-effect="non-scaling-stroke" d="
  M 444.74 1455.21
  Q 441.46 1447.63 441.62 1439.60
  C 441.73 1434.10 443.63 1428.10 445.01 1422.52
  Q 446.59 1416.13 446.64 1410.53
  Q 446.68 1403.91 446.05 1397.50
  C 445.03 1387.25 450.47 1379.06 453.46 1369.74
  C 460.68 1347.18 459.98 1321.97 455.53 1298.60
  Q 445.39 1245.36 415.05 1196.23
  C 402.74 1176.30 386.67 1162.21 363.42 1156.51
  C 360.88 1155.89 358.63 1154.28 357.88 1151.69
  Q 331.54 1060.64 308.15 976.27
  C 304.01 961.32 300.42 946.27 303.65 931.40
  Q 304.72 926.51 306.67 922.84
  Q 313.74 909.53 316.86 894.35
  Q 319.38 882.10 321.73 872.23
  C 322.64 868.44 323.77 864.59 325.24 860.94
  Q 369.19 751.35 405.61 638.87
  Q 406.18 637.11 406.98 634.79"
/>
<path stroke="#5aa9e3" vector-effect="non-scaling-stroke" d="
  M 554.87 1656.16
  C 575.56 1660.75 594.42 1656.23 610.58 1643.21
  C 649.34 1611.99 656.35 1563.08 640.24 1517.91
  C 632.29 1495.61 613.58 1480.62 589.01 1483.05
  Q 577.35 1484.21 566.59 1490.65"
/>
<path stroke="#cfeaff" vector-effect="non-scaling-stroke" d="
  M 566.59 1490.65
  Q 560.29 1484.13 552.89 1482.31
  C 533.64 1477.57 523.02 1507.57 519.13 1520.90
  Q 503.19 1575.56 512.45 1633.34
  Q 513.61 1640.62 515.68 1647.10
  C 518.06 1654.52 524.62 1661.62 531.48 1664.96
  Q 539.81 1669.01 548.72 1662.51
  Q 551.47 1660.51 554.87 1656.16"
/>
<path stroke="#75b4e3" vector-effect="non-scaling-stroke" d="
  M 566.59 1490.65
  Q 560.64 1504.11 554.84 1517.36
  Q 546.87 1535.60 543.52 1555.20
  Q 534.58 1607.65 554.87 1656.16"
/>
<path stroke="#cfeaff" vector-effect="non-scaling-stroke" d="
  M 345.29 2643.96
  C 334.05 2641.98 327.86 2651.68 326.69 2661.64
  C 324.48 2680.40 329.92 2702.04 337.98 2719.11
  C 341.71 2727.01 347.42 2736.14 355.12 2740.20
  Q 359.28 2742.40 364.65 2743.76
  Q 380.23 2747.72 382.99 2730.82"
/>
<path stroke="#5aa9e3" vector-effect="non-scaling-stroke" d="
  M 382.99 2730.82
  Q 384.88 2733.90 384.70 2736.53
  A 1.84 1.83 -87.4 0 0 386.48 2738.48
  C 411.95 2739.07 430.82 2726.94 435.21 2700.71
  C 439.15 2677.13 435.83 2652.79 420.13 2634.46
  C 409.37 2621.89 392.80 2614.68 376.43 2618.91
  C 362.51 2622.51 352.37 2631.47 345.29 2643.96"
/>
<path stroke="#75b4e3" vector-effect="non-scaling-stroke" d="
  M 382.99 2730.82
  Q 383.15 2729.61 383.47 2727.24
  C 383.79 2724.95 382.24 2722.09 380.52 2720.49
  C 370.82 2711.42 363.79 2700.50 360.97 2687.86
  C 359.33 2680.52 359.14 2672.63 358.05 2664.98
  Q 356.15 2651.57 345.29 2643.96"
/>
<path stroke="#0085df" vector-effect="non-scaling-stroke" d="
  M 854.67 1556.46
  Q 854.17 1557.22 853.47 1557.51
  Q 788.33 1583.97 717.83 1589.46"
/>
<path stroke="#75c6fb" vector-effect="non-scaling-stroke" d="
  M 708.11 1521.93
  Q 689.49 1469.33 663.57 1419.44
  Q 648.24 1389.94 629.72 1355.29
  Q 629.24 1354.40 628.29 1354.29
  A 1.18 1.17 18.7 0 0 627.14 1354.85
  Q 625.08 1358.29 622.57 1361.54
  C 583.60 1411.99 508.37 1309.90 490.24 1282.98"
/>
<path stroke="#0085df" vector-effect="non-scaling-stroke" d="
  M 444.74 1455.21
  Q 443.76 1455.02 442.87 1454.41
  Q 442.42 1454.10 441.91 1454.32
  Q 440.68 1454.83 439.37 1454.71
  Q 438.69 1454.64 438.72 1455.32
  Q 439.06 1463.22 437.39 1468.56
  Q 415.73 1537.50 388.66 1627.44
  C 385.14 1639.13 380.19 1652.23 372.77 1662.22
  C 358.87 1680.94 339.11 1694.60 315.69 1697.52
  C 290.24 1700.69 265.20 1691.29 247.22 1673.43
  C 224.85 1651.21 217.01 1619.10 225.11 1588.71
  Q 240.80 1529.91 261.06 1468.24
  Q 262.20 1464.78 259.16 1463.51
  A 3.20 3.19 -41.4 0 0 257.01 1463.38
  Q 188.53 1483.24 117.70 1475.45
  C 110.09 1474.61 103.70 1477.48 96.82 1479.54"
/>
<path stroke="#0068be" vector-effect="non-scaling-stroke" d="
  M 305.25 2639.00
  Q 289.18 2647.92 274.15 2657.81
  C 267.96 2661.88 260.71 2666.69 254.16 2669.09
  C 235.70 2675.84 222.39 2660.61 216.14 2644.81
  C 206.86 2621.31 196.11 2593.98 168.80 2588.08
  Q 154.31 2584.95 141.89 2588.07
  C 108.74 2596.39 106.33 2641.00 105.83 2668.53
  C 104.91 2719.25 104.67 2769.89 104.21 2820.75
  Q 103.69 2877.36 100.96 2933.87
  Q 100.84 2936.36 98.74 2936.81
  Q 98.23 2936.92 97.82 2936.60
  L 96.02 2935.20"
/>
<path stroke="#0068be" vector-effect="non-scaling-stroke" d="
  M 851.18 2576.71
  Q 849.79 2576.65 849.12 2576.93
  C 840.04 2580.62 828.93 2585.72 822.27 2592.29
  Q 767.59 2646.33 713.42 2691.66
  C 709.54 2694.90 704.68 2694.30 702.90 2689.55
  Q 694.29 2666.50 686.31 2651.73
  Q 680.00 2640.05 670.41 2630.88
  C 649.27 2610.66 620.72 2606.94 592.39 2612.15
  Q 568.98 2616.45 547.74 2627.23"
/>
<path stroke="#75b4e3" vector-effect="non-scaling-stroke" d="
  M 490.48 2601.70
  Q 475.87 2590.25 465.00 2576.04
  C 457.41 2566.13 451.34 2554.44 445.36 2543.38
  Q 423.52 2502.99 402.91 2458.60
  Q 398.53 2449.16 394.47 2440.50
  Q 360.80 2368.60 328.79 2295.20"
/>
</g>
<path fill="#000000" d="
  M 870.61 3360.00
  L 850.84 3360.00
  L 850.28 3142.23
  L 849.62 2990.76
  L 851.18 2576.71
  Q 851.27 2228.52 851.16 1880.33
  Q 851.15 1872.22 851.32 1863.18
  Q 851.48 1854.59 851.61 1846.00
  Q 852.69 1770.38 853.80 1694.75
  Q 854.40 1653.76 854.67 1556.46
  L 855.80 617.21
  Q 856.15 597.36 856.08 577.50
  Q 856.07 575.64 857.66 572.17
  C 859.55 568.01 858.75 563.30 854.85 560.77
  Q 853.12 559.65 848.71 559.24
  Q 783.09 553.10 717.29 556.64
  L 561.95 557.08
  L 430.51 556.93
  L 287.71 560.89
  L 124.74 562.73
  Q 113.50 561.49 103.11 565.96
  Q 100.95 566.88 100.92 568.50
  Q 100.15 605.27 99.49 642.04
  Q 92.78 1060.77 96.82 1479.54
  Q 96.35 2191.65 95.64 2903.75
  Q 95.64 2905.93 94.38 2907.13
  C 92.55 2908.86 88.80 2913.13 92.33 2915.41
  C 93.96 2916.45 95.78 2917.75 95.73 2919.89
  A 2.12 2.07 65.9 0 1 95.26 2921.16
  Q 90.55 2926.86 96.26 2931.95
  Q 96.63 2932.28 96.53 2932.76
  L 96.02 2935.20
  Q 92.90 2951.61 92.36 2959.24
  Q 88.84 3009.08 92.15 3058.98
  L 91.28 3195.91
  L 90.85 3360.00
  L 74.64 3360.00
  Q 75.41 1966.91 76.17 573.82
  C 76.17 571.48 73.89 569.67 71.61 569.54
  Q 48.43 568.26 29.51 572.49
  Q 23.72 573.78 20.66 572.94
  C 16.21 571.71 13.81 567.90 12.90 563.33
  C 10.45 551.07 9.04 541.36 9.05 528.61
  Q 9.15 346.70 9.27 170.67
  Q 9.27 163.44 16.43 159.65
  C 26.29 154.44 35.20 153.30 46.47 153.28
  Q 475.85 152.68 908.63 150.99
  C 919.25 150.95 928.29 159.64 928.20 170.26
  Q 926.61 357.50 928.02 539.90
  Q 928.08 547.24 926.79 551.51
  C 923.07 563.77 911.90 568.80 899.68 568.00
  Q 887.75 567.23 876.39 567.14
  C 872.87 567.11 871.55 569.66 871.55 572.98
  Q 871.54 582.14 871.54 591.75
  Q 871.13 1966.13 870.66 3340.50
  Q 870.65 3350.25 870.61 3360.00
  Z
  M 28.26 300.78
  Q 28.40 414.16 28.46 528.29
  Q 28.46 536.01 29.57 538.56
  Q 32.07 544.34 40.00 544.05
  Q 80.28 542.57 120.54 541.10
  Q 122.64 541.40 124.75 541.46
  Q 173.72 543.05 214.75 542.69
  Q 254.25 542.35 293.75 541.80
  Q 458.94 539.50 633.25 541.21
  Q 639.38 541.27 653.24 541.48
  Q 713.81 542.42 774.00 540.50
  Q 778.20 540.37 782.50 539.90
  Q 839.97 546.72 897.67 542.69
  C 901.51 542.42 904.75 542.57 905.27 538.51
  C 907.41 522.11 908.31 506.35 908.57 489.73
  Q 910.22 382.71 908.93 274.83
  Q 908.58 230.09 908.09 184.48
  Q 908.03 179.22 907.08 177.16
  Q 905.33 173.35 900.38 172.57
  C 884.78 170.11 866.90 169.29 850.33 169.29
  Q 334.92 169.18 107.58 169.82
  Q 80.18 169.90 36.52 173.92
  C 34.32 174.12 31.65 175.31 31.43 177.51
  Q 25.57 234.60 28.26 300.78
  Z"
/>
<path fill="#eaf5ff" d="
  M 908.93 274.83
  Q 861.71 270.78 814.25 272.80
  Q 782.99 274.14 751.73 275.64
  Q 741.59 276.13 731.75 276.35
  C 511.84 281.39 289.56 286.71 68.48 293.44
  Q 56.35 293.81 48.62 295.28
  Q 38.37 297.22 28.26 300.78
  Q 25.57 234.60 31.43 177.51
  C 31.65 175.31 34.32 174.12 36.52 173.92
  Q 80.18 169.90 107.58 169.82
  Q 334.92 169.18 850.33 169.29
  C 866.90 169.29 884.78 170.11 900.38 172.57
  Q 905.33 173.35 907.08 177.16
  Q 908.03 179.22 908.09 184.48
  Q 908.58 230.09 908.93 274.83
  Z"
/>
<path fill="#b4deff" d="
  M 908.93 274.83
  Q 910.22 382.71 908.57 489.73
  C 908.31 506.35 907.41 522.11 905.27 538.51
  C 904.75 542.57 901.51 542.42 897.67 542.69
  Q 839.97 546.72 782.50 539.90
  L 645.04 534.86
  Q 642.98 533.85 640.70 534.66
  C 467.27 528.51 293.82 532.49 120.54 541.10
  Q 80.28 542.57 40.00 544.05
  Q 32.07 544.34 29.57 538.56
  Q 28.46 536.01 28.46 528.29
  Q 28.40 414.16 28.26 300.78
  Q 38.37 297.22 48.62 295.28
  Q 56.35 293.81 68.48 293.44
  C 289.56 286.71 511.84 281.39 731.75 276.35
  Q 741.59 276.13 751.73 275.64
  Q 782.99 274.14 814.25 272.80
  Q 861.71 270.78 908.93 274.83
  Z
  M 283.22 457.84
  Q 300.47 443.96 313.97 426.98
  C 324.31 413.98 331.20 399.17 330.00 382.50
  C 327.88 353.21 299.79 336.44 272.51 343.18
  Q 262.47 345.66 253.23 352.97
  Q 249.27 356.11 242.85 364.02
  C 233.44 375.62 222.57 385.88 210.53 394.62
  C 198.59 403.28 191.14 415.91 189.93 430.53
  C 189.02 441.51 191.91 452.63 198.56 461.26
  C 212.20 478.97 234.21 484.07 255.05 476.26
  C 265.79 472.23 274.17 465.13 283.22 457.84
  Z
  M 395.79 454.89
  C 435.42 487.58 495.86 444.85 504.31 402.68
  C 510.61 371.23 485.78 340.84 452.68 346.37
  C 439.15 348.63 428.63 356.02 419.92 366.62
  C 414.51 373.20 406.10 378.12 399.11 382.97
  C 374.08 400.30 372.18 435.41 395.79 454.89
  Z"
/>
<path fill="#eaf5ff" d="
  M 283.22 457.84
  C 274.17 465.13 265.79 472.23 255.05 476.26
  C 234.21 484.07 212.20 478.97 198.56 461.26
  C 191.91 452.63 189.02 441.51 189.93 430.53
  C 191.14 415.91 198.59 403.28 210.53 394.62
  C 222.57 385.88 233.44 375.62 242.85 364.02
  Q 249.27 356.11 253.23 352.97
  Q 262.47 345.66 272.51 343.18
  C 299.79 336.44 327.88 353.21 330.00 382.50
  C 331.20 399.17 324.31 413.98 313.97 426.98
  Q 300.47 443.96 283.22 457.84
  Z"
/>
<path fill="#eaf5ff" d="
  M 504.31 402.68
  C 495.86 444.85 435.42 487.58 395.79 454.89
  C 372.18 435.41 374.08 400.30 399.11 382.97
  C 406.10 378.12 414.51 373.20 419.92 366.62
  C 428.63 356.02 439.15 348.63 452.68 346.37
  C 485.78 340.84 510.61 371.23 504.31 402.68
  Z"
/>
<path fill="#005db4" d="
  M 645.04 534.86
  L 643.86 538.88
  Q 643.71 539.38 643.19 539.37
  L 642.00 539.36
  Q 641.44 539.35 641.36 538.80
  L 640.70 534.66
  Q 642.98 533.85 645.04 534.86
  Z"
/>
<path fill="#0073c7" d="
  M 855.80 617.21
  L 855.52 617.03
  Q 855.24 616.84 854.90 616.88
  Q 826.68 620.48 798.23 621.50
  Q 790.04 621.79 781.75 622.16
  Q 666.67 627.24 557.01 631.73
  Q 552.36 631.92 546.61 633.36
  Q 544.09 634.00 543.48 631.25
  C 542.94 628.86 542.90 626.19 541.37 624.13
  Q 550.61 593.26 560.73 562.02
  Q 560.92 561.41 561.82 560.89
  L 737.43 561.15
  Q 738.77 561.15 738.87 559.81
  L 738.93 558.96
  Q 739.00 557.88 737.93 557.82
  L 717.29 556.64
  Q 783.09 553.10 848.71 559.24
  Q 853.12 559.65 854.85 560.77
  C 858.75 563.30 859.55 568.01 857.66 572.17
  Q 856.07 575.64 856.08 577.50
  Q 856.15 597.36 855.80 617.21
  Z"
/>
<path fill="#0073c7" d="
  M 430.51 556.93
  L 406.98 634.79
  Q 398.76 634.77 391.00 634.87
  Q 238.98 636.69 118.50 635.47
  C 113.58 635.42 109.58 634.04 103.94 632.31
  Q 101.71 631.62 100.89 633.97
  Q 100.85 634.09 100.73 634.13
  Q 100.61 634.17 100.47 634.11
  Q 100.39 634.08 100.37 634.17
  C 100.02 636.33 100.67 640.38 99.49 642.04
  Q 100.15 605.27 100.92 568.50
  Q 100.95 566.88 103.11 565.96
  Q 113.50 561.49 124.74 562.73
  Q 123.88 562.66 123.25 563.02
  Q 123.03 563.14 123.27 563.22
  Q 123.33 563.24 123.34 563.29
  Q 123.43 563.61 123.19 563.87
  Q 121.18 566.06 122.71 567.70
  A 1.55 1.51 -20.2 0 0 123.78 568.18
  Q 237.02 570.89 349.09 567.67
  Q 352.25 567.58 352.48 564.43
  L 352.52 563.94
  Q 352.68 561.70 350.44 561.67
  L 287.71 560.89
  L 430.51 556.93
  Z"
/>
<path fill="#0096f6" d="
  M 717.29 556.64
  L 737.93 557.82
  Q 739.00 557.88 738.93 558.96
  L 738.87 559.81
  Q 738.77 561.15 737.43 561.15
  L 561.82 560.89
  Q 562.34 559.29 561.95 557.08
  L 717.29 556.64
  Z"
/>
<path fill="#b4deff" d="
  M 561.95 557.08
  Q 562.34 559.29 561.82 560.89
  Q 560.92 561.41 560.73 562.02
  Q 550.61 593.26 541.37 624.13
  Q 538.53 658.92 536.55 674.76
  C 535.97 679.44 531.94 682.03 527.15 682.01
  C 517.79 681.97 508.93 683.93 500.88 688.45
  Q 475.28 702.84 452.87 720.75
  Q 439.55 731.39 428.01 745.54
  C 400.71 779.05 384.00 821.62 378.10 864.32
  Q 374.63 889.47 377.07 913.55
  C 377.93 922.10 380.04 930.71 380.36 939.41
  C 380.67 948.05 379.02 956.77 378.41 965.50
  C 375.84 1002.14 381.97 1039.53 391.57 1075.99
  C 411.13 1150.28 446.52 1220.31 490.24 1282.98
  Q 486.35 1283.51 486.10 1286.45
  C 485.95 1288.13 487.34 1289.62 488.28 1290.90
  C 506.20 1315.44 526.46 1337.54 548.73 1358.57
  C 569.45 1378.12 601.34 1390.59 624.81 1368.71
  A 2.38 2.38 0.0 0 1 628.37 1369.07
  C 637.54 1381.89 644.69 1396.07 651.98 1410.45
  Q 669.46 1444.95 686.68 1486.08
  Q 695.49 1507.14 701.75 1527.34
  A 2.24 2.24 0.0 0 0 703.93 1528.91
  C 705.62 1528.88 706.13 1527.33 706.28 1525.90
  Q 706.54 1523.58 708.11 1521.93
  Q 710.86 1536.58 717.26 1549.83
  C 720.69 1556.92 723.69 1564.25 722.95 1572.23
  Q 722.14 1580.95 717.83 1589.46
  Q 640.57 1716.15 562.97 1843.46
  C 561.00 1846.69 557.45 1847.46 553.95 1846.42
  C 534.30 1840.63 512.78 1842.60 494.87 1851.09
  Q 487.96 1854.36 480.09 1859.32
  C 464.54 1869.11 450.93 1879.42 437.95 1891.84
  C 374.00 1953.07 321.72 2024.10 284.19 2103.84
  C 273.84 2125.81 266.63 2150.63 264.52 2175.04
  C 262.20 2201.83 272.44 2238.70 304.12 2243.35
  C 306.17 2243.65 307.22 2244.94 307.98 2246.78
  Q 314.67 2262.84 328.79 2295.20
  Q 325.72 2301.34 327.38 2307.94
  Q 327.64 2308.99 332.06 2319.31
  Q 381.99 2436.01 441.08 2547.62
  C 449.67 2563.86 459.50 2579.25 470.73 2592.51
  Q 478.31 2601.46 490.48 2601.70
  L 547.74 2627.23
  Q 584.68 2641.18 619.53 2655.16
  C 650.96 2667.77 684.78 2683.44 705.15 2711.52
  C 706.93 2713.98 707.29 2716.69 705.98 2719.41
  C 695.13 2742.01 699.65 2771.98 707.03 2795.92
  C 715.80 2824.34 729.81 2848.79 748.27 2873.01
  Q 762.59 2891.79 778.07 2905.13
  C 787.08 2912.89 797.90 2919.97 808.77 2922.49
  C 811.61 2923.15 813.77 2924.77 815.16 2927.35
  Q 832.29 2959.06 849.62 2990.76
  L 850.28 3142.23
  Q 846.81 3142.14 845.52 3139.72
  Q 831.98 3114.36 818.42 3088.99
  C 816.43 3085.27 815.41 3081.63 816.60 3077.55
  C 824.78 3049.39 828.97 3020.12 819.24 2992.80
  C 813.89 2977.79 805.64 2965.14 795.43 2952.24
  C 769.92 2920.01 739.28 2891.85 704.83 2870.08
  C 697.30 2865.32 692.88 2860.88 689.44 2852.96
  Q 681.24 2834.11 673.37 2815.76
  Q 663.88 2793.63 650.63 2774.87
  C 627.88 2742.68 596.90 2724.57 556.77 2740.36
  Q 548.88 2743.47 541.35 2747.76
  C 538.74 2749.25 537.37 2749.28 534.63 2748.64
  C 522.80 2745.87 511.18 2741.86 499.85 2739.66
  Q 452.52 2730.49 412.82 2753.89
  C 391.86 2766.24 374.15 2784.85 360.21 2805.29
  Q 352.43 2816.69 345.18 2827.75
  Q 343.81 2829.83 341.60 2830.75
  C 321.28 2839.16 301.01 2849.37 284.90 2863.69
  C 274.45 2872.97 263.35 2883.83 253.02 2894.57
  Q 246.26 2901.60 240.97 2908.35
  Q 166.88 3002.96 138.15 3119.56
  C 137.07 3123.95 135.18 3129.03 133.10 3132.57
  Q 113.92 3165.15 91.28 3195.91
  L 92.15 3058.98
  Q 95.39 3055.61 98.02 3051.98
  Q 99.32 3050.19 100.03 3049.77
  C 128.75 3032.84 154.09 3010.89 174.75 2984.80
  C 220.34 2927.22 256.39 2862.77 279.79 2793.74
  C 281.09 2789.91 282.97 2785.11 284.90 2781.01
  Q 291.25 2767.50 298.72 2751.93
  Q 308.63 2731.29 309.02 2708.75
  Q 309.68 2670.50 305.25 2639.00
  Q 304.73 2633.77 303.92 2627.52
  Q 303.01 2620.50 304.15 2612.88
  C 305.25 2605.52 309.51 2598.12 312.21 2590.83
  C 349.18 2491.37 309.36 2384.62 235.40 2314.33
  C 230.29 2309.47 226.09 2304.09 223.52 2297.51
  Q 210.25 2263.62 197.66 2223.65
  C 194.45 2213.47 193.86 2204.70 197.13 2195.26
  Q 208.25 2163.20 219.42 2127.35
  C 223.24 2115.11 229.98 2104.88 240.42 2097.45
  Q 247.02 2092.77 253.66 2087.52
  Q 294.21 2055.52 321.79 2019.23
  C 333.92 2003.26 343.92 1986.71 353.69 1968.45
  Q 392.80 1895.35 407.81 1811.56
  C 410.66 1795.70 412.57 1781.19 411.60 1765.75
  Q 411.05 1757.08 408.51 1750.92
  C 406.79 1746.76 403.29 1742.86 400.26 1739.40
  C 399.18 1738.17 398.61 1736.69 399.25 1735.08
  Q 435.01 1645.23 465.15 1541.67
  Q 466.94 1535.54 465.79 1530.47
  Q 460.90 1508.94 454.42 1486.92
  Q 449.73 1470.94 444.74 1455.21
  Q 441.46 1447.63 441.62 1439.60
  C 441.73 1434.10 443.63 1428.10 445.01 1422.52
  Q 446.59 1416.13 446.64 1410.53
  Q 446.68 1403.91 446.05 1397.50
  C 445.03 1387.25 450.47 1379.06 453.46 1369.74
  C 460.68 1347.18 459.98 1321.97 455.53 1298.60
  Q 445.39 1245.36 415.05 1196.23
  C 402.74 1176.30 386.67 1162.21 363.42 1156.51
  C 360.88 1155.89 358.63 1154.28 357.88 1151.69
  Q 331.54 1060.64 308.15 976.27
  C 304.01 961.32 300.42 946.27 303.65 931.40
  Q 304.72 926.51 306.67 922.84
  Q 313.74 909.53 316.86 894.35
  Q 319.38 882.10 321.73 872.23
  C 322.64 868.44 323.77 864.59 325.24 860.94
  Q 369.19 751.35 405.61 638.87
  Q 406.18 637.11 406.98 634.79
  L 430.51 556.93
  L 561.95 557.08
  Z
  M 554.87 1656.16
  C 575.56 1660.75 594.42 1656.23 610.58 1643.21
  C 649.34 1611.99 656.35 1563.08 640.24 1517.91
  C 632.29 1495.61 613.58 1480.62 589.01 1483.05
  Q 577.35 1484.21 566.59 1490.65
  Q 560.29 1484.13 552.89 1482.31
  C 533.64 1477.57 523.02 1507.57 519.13 1520.90
  Q 503.19 1575.56 512.45 1633.34
  Q 513.61 1640.62 515.68 1647.10
  C 518.06 1654.52 524.62 1661.62 531.48 1664.96
  Q 539.81 1669.01 548.72 1662.51
  Q 551.47 1660.51 554.87 1656.16
  Z
  M 345.29 2643.96
  C 334.05 2641.98 327.86 2651.68 326.69 2661.64
  C 324.48 2680.40 329.92 2702.04 337.98 2719.11
  C 341.71 2727.01 347.42 2736.14 355.12 2740.20
  Q 359.28 2742.40 364.65 2743.76
  Q 380.23 2747.72 382.99 2730.82
  Q 384.88 2733.90 384.70 2736.53
  A 1.84 1.83 -87.4 0 0 386.48 2738.48
  C 411.95 2739.07 430.82 2726.94 435.21 2700.71
  C 439.15 2677.13 435.83 2652.79 420.13 2634.46
  C 409.37 2621.89 392.80 2614.68 376.43 2618.91
  C 362.51 2622.51 352.37 2631.47 345.29 2643.96
  Z"
/>
<path fill="#0096f6" d="
  M 287.71 560.89
  L 350.44 561.67
  Q 352.68 561.70 352.52 563.94
  L 352.48 564.43
  Q 352.25 567.58 349.09 567.67
  Q 237.02 570.89 123.78 568.18
  A 1.55 1.51 -20.2 0 1 122.71 567.70
  Q 121.18 566.06 123.19 563.87
  Q 123.43 563.61 123.34 563.29
  Q 123.33 563.24 123.27 563.22
  Q 123.03 563.14 123.25 563.02
  Q 123.88 562.66 124.74 562.73
  L 287.71 560.89
  Z"
/>
<path fill="#0096f6" d="
  M 855.80 617.21
  L 854.67 1556.46
  Q 854.17 1557.22 853.47 1557.51
  Q 788.33 1583.97 717.83 1589.46
  Q 722.14 1580.95 722.95 1572.23
  C 723.69 1564.25 720.69 1556.92 717.26 1549.83
  Q 710.86 1536.58 708.11 1521.93
  Q 689.49 1469.33 663.57 1419.44
  Q 648.24 1389.94 629.72 1355.29
  Q 629.24 1354.40 628.29 1354.29
  A 1.18 1.17 18.7 0 0 627.14 1354.85
  Q 625.08 1358.29 622.57 1361.54
  C 583.60 1411.99 508.37 1309.90 490.24 1282.98
  C 446.52 1220.31 411.13 1150.28 391.57 1075.99
  C 381.97 1039.53 375.84 1002.14 378.41 965.50
  C 379.02 956.77 380.67 948.05 380.36 939.41
  C 380.04 930.71 377.93 922.10 377.07 913.55
  Q 374.63 889.47 378.10 864.32
  C 384.00 821.62 400.71 779.05 428.01 745.54
  Q 439.55 731.39 452.87 720.75
  Q 475.28 702.84 500.88 688.45
  C 508.93 683.93 517.79 681.97 527.15 682.01
  C 531.94 682.03 535.97 679.44 536.55 674.76
  Q 538.53 658.92 541.37 624.13
  C 542.90 626.19 542.94 628.86 543.48 631.25
  Q 544.09 634.00 546.61 633.36
  Q 552.36 631.92 557.01 631.73
  Q 666.67 627.24 781.75 622.16
  Q 790.04 621.79 798.23 621.50
  Q 826.68 620.48 854.90 616.88
  Q 855.24 616.84 855.52 617.03
  L 855.80 617.21
  Z"
/>
<path fill="#0096f6" d="
  M 406.98 634.79
  Q 406.18 637.11 405.61 638.87
  Q 369.19 751.35 325.24 860.94
  C 323.77 864.59 322.64 868.44 321.73 872.23
  Q 319.38 882.10 316.86 894.35
  Q 313.74 909.53 306.67 922.84
  Q 304.72 926.51 303.65 931.40
  C 300.42 946.27 304.01 961.32 308.15 976.27
  Q 331.54 1060.64 357.88 1151.69
  C 358.63 1154.28 360.88 1155.89 363.42 1156.51
  C 386.67 1162.21 402.74 1176.30 415.05 1196.23
  Q 445.39 1245.36 455.53 1298.60
  C 459.98 1321.97 460.68 1347.18 453.46 1369.74
  C 450.47 1379.06 445.03 1387.25 446.05 1397.50
  Q 446.68 1403.91 446.64 1410.53
  Q 446.59 1416.13 445.01 1422.52
  C 443.63 1428.10 441.73 1434.10 441.62 1439.60
  Q 441.46 1447.63 444.74 1455.21
  Q 443.76 1455.02 442.87 1454.41
  Q 442.42 1454.10 441.91 1454.32
  Q 440.68 1454.83 439.37 1454.71
  Q 438.69 1454.64 438.72 1455.32
  Q 439.06 1463.22 437.39 1468.56
  Q 415.73 1537.50 388.66 1627.44
  C 385.14 1639.13 380.19 1652.23 372.77 1662.22
  C 358.87 1680.94 339.11 1694.60 315.69 1697.52
  C 290.24 1700.69 265.20 1691.29 247.22 1673.43
  C 224.85 1651.21 217.01 1619.10 225.11 1588.71
  Q 240.80 1529.91 261.06 1468.24
  Q 262.20 1464.78 259.16 1463.51
  A 3.20 3.19 -41.4 0 0 257.01 1463.38
  Q 188.53 1483.24 117.70 1475.45
  C 110.09 1474.61 103.70 1477.48 96.82 1479.54
  Q 92.78 1060.77 99.49 642.04
  C 100.67 640.38 100.02 636.33 100.37 634.17
  Q 100.39 634.08 100.47 634.11
  Q 100.61 634.17 100.73 634.13
  Q 100.85 634.09 100.89 633.97
  Q 101.71 631.62 103.94 632.31
  C 109.58 634.04 113.58 635.42 118.50 635.47
  Q 238.98 636.69 391.00 634.87
  Q 398.76 634.77 406.98 634.79
  Z"
/>
<path fill="#eaf5ff" d="
  M 490.24 1282.98
  C 508.37 1309.90 583.60 1411.99 622.57 1361.54
  Q 625.08 1358.29 627.14 1354.85
  A 1.18 1.17 18.7 0 1 628.29 1354.29
  Q 629.24 1354.40 629.72 1355.29
  Q 648.24 1389.94 663.57 1419.44
  Q 689.49 1469.33 708.11 1521.93
  Q 706.54 1523.58 706.28 1525.90
  C 706.13 1527.33 705.62 1528.88 703.93 1528.91
  A 2.24 2.24 0.0 0 1 701.75 1527.34
  Q 695.49 1507.14 686.68 1486.08
  Q 669.46 1444.95 651.98 1410.45
  C 644.69 1396.07 637.54 1381.89 628.37 1369.07
  A 2.38 2.38 0.0 0 0 624.81 1368.71
  C 601.34 1390.59 569.45 1378.12 548.73 1358.57
  C 526.46 1337.54 506.20 1315.44 488.28 1290.90
  C 487.34 1289.62 485.95 1288.13 486.10 1286.45
  Q 486.35 1283.51 490.24 1282.98
  Z"
/>
<path fill="#0073c7" d="
  M 444.74 1455.21
  Q 449.73 1470.94 454.42 1486.92
  Q 460.90 1508.94 465.79 1530.47
  Q 466.94 1535.54 465.15 1541.67
  Q 435.01 1645.23 399.25 1735.08
  C 398.61 1736.69 399.18 1738.17 400.26 1739.40
  C 403.29 1742.86 406.79 1746.76 408.51 1750.92
  Q 411.05 1757.08 411.60 1765.75
  C 412.57 1781.19 410.66 1795.70 407.81 1811.56
  Q 392.80 1895.35 353.69 1968.45
  C 343.92 1986.71 333.92 2003.26 321.79 2019.23
  Q 294.21 2055.52 253.66 2087.52
  Q 247.02 2092.77 240.42 2097.45
  C 229.98 2104.88 223.24 2115.11 219.42 2127.35
  Q 208.25 2163.20 197.13 2195.26
  C 193.86 2204.70 194.45 2213.47 197.66 2223.65
  Q 210.25 2263.62 223.52 2297.51
  C 226.09 2304.09 230.29 2309.47 235.40 2314.33
  C 309.36 2384.62 349.18 2491.37 312.21 2590.83
  C 309.51 2598.12 305.25 2605.52 304.15 2612.88
  Q 303.01 2620.50 303.92 2627.52
  Q 304.73 2633.77 305.25 2639.00
  Q 289.18 2647.92 274.15 2657.81
  C 267.96 2661.88 260.71 2666.69 254.16 2669.09
  C 235.70 2675.84 222.39 2660.61 216.14 2644.81
  C 206.86 2621.31 196.11 2593.98 168.80 2588.08
  Q 154.31 2584.95 141.89 2588.07
  C 108.74 2596.39 106.33 2641.00 105.83 2668.53
  C 104.91 2719.25 104.67 2769.89 104.21 2820.75
  Q 103.69 2877.36 100.96 2933.87
  Q 100.84 2936.36 98.74 2936.81
  Q 98.23 2936.92 97.82 2936.60
  L 96.02 2935.20
  L 96.53 2932.76
  Q 96.63 2932.28 96.26 2931.95
  Q 90.55 2926.86 95.26 2921.16
  A 2.12 2.07 65.9 0 0 95.73 2919.89
  C 95.78 2917.75 93.96 2916.45 92.33 2915.41
  C 88.80 2913.13 92.55 2908.86 94.38 2907.13
  Q 95.64 2905.93 95.64 2903.75
  Q 96.35 2191.65 96.82 1479.54
  C 103.70 1477.48 110.09 1474.61 117.70 1475.45
  Q 188.53 1483.24 257.01 1463.38
  A 3.20 3.19 -41.4 0 1 259.16 1463.51
  Q 262.20 1464.78 261.06 1468.24
  Q 240.80 1529.91 225.11 1588.71
  C 217.01 1619.10 224.85 1651.21 247.22 1673.43
  C 265.20 1691.29 290.24 1700.69 315.69 1697.52
  C 339.11 1694.60 358.87 1680.94 372.77 1662.22
  C 380.19 1652.23 385.14 1639.13 388.66 1627.44
  Q 415.73 1537.50 437.39 1468.56
  Q 439.06 1463.22 438.72 1455.32
  Q 438.69 1454.64 439.37 1454.71
  Q 440.68 1454.83 441.91 1454.32
  Q 442.42 1454.10 442.87 1454.41
  Q 443.76 1455.02 444.74 1455.21
  Z"
/>
<path fill="#eaf5ff" d="
  M 566.59 1490.65
  Q 560.64 1504.11 554.84 1517.36
  Q 546.87 1535.60 543.52 1555.20
  Q 534.58 1607.65 554.87 1656.16
  Q 551.47 1660.51 548.72 1662.51
  Q 539.81 1669.01 531.48 1664.96
  C 524.62 1661.62 518.06 1654.52 515.68 1647.10
  Q 513.61 1640.62 512.45 1633.34
  Q 503.19 1575.56 519.13 1520.90
  C 523.02 1507.57 533.64 1477.57 552.89 1482.31
  Q 560.29 1484.13 566.59 1490.65
  Z"
/>
<path fill="#0073c7" d="
  M 554.87 1656.16
  Q 534.58 1607.65 543.52 1555.20
  Q 546.87 1535.60 554.84 1517.36
  Q 560.64 1504.11 566.59 1490.65
  Q 577.35 1484.21 589.01 1483.05
  C 613.58 1480.62 632.29 1495.61 640.24 1517.91
  C 656.35 1563.08 649.34 1611.99 610.58 1643.21
  C 594.42 1656.23 575.56 1660.75 554.87 1656.16
  Z"
/>
<path fill="#0073c7" d="
  M 854.67 1556.46
  Q 854.40 1653.76 853.80 1694.75
  Q 852.69 1770.38 851.61 1846.00
  Q 851.48 1854.59 851.32 1863.18
  Q 851.15 1872.22 851.16 1880.33
  Q 851.27 2228.52 851.18 2576.71
  Q 849.79 2576.65 849.12 2576.93
  C 840.04 2580.62 828.93 2585.72 822.27 2592.29
  Q 767.59 2646.33 713.42 2691.66
  C 709.54 2694.90 704.68 2694.30 702.90 2689.55
  Q 694.29 2666.50 686.31 2651.73
  Q 680.00 2640.05 670.41 2630.88
  C 649.27 2610.66 620.72 2606.94 592.39 2612.15
  Q 568.98 2616.45 547.74 2627.23
  L 490.48 2601.70
  Q 475.87 2590.25 465.00 2576.04
  C 457.41 2566.13 451.34 2554.44 445.36 2543.38
  Q 423.52 2502.99 402.91 2458.60
  Q 398.53 2449.16 394.47 2440.50
  Q 360.80 2368.60 328.79 2295.20
  Q 314.67 2262.84 307.98 2246.78
  C 307.22 2244.94 306.17 2243.65 304.12 2243.35
  C 272.44 2238.70 262.20 2201.83 264.52 2175.04
  C 266.63 2150.63 273.84 2125.81 284.19 2103.84
  C 321.72 2024.10 374.00 1953.07 437.95 1891.84
  C 450.93 1879.42 464.54 1869.11 480.09 1859.32
  Q 487.96 1854.36 494.87 1851.09
  C 512.78 1842.60 534.30 1840.63 553.95 1846.42
  C 557.45 1847.46 561.00 1846.69 562.97 1843.46
  Q 640.57 1716.15 717.83 1589.46
  Q 788.33 1583.97 853.47 1557.51
  Q 854.17 1557.22 854.67 1556.46
  Z"
/>
<path fill="#eaf5ff" d="
  M 328.79 2295.20
  Q 360.80 2368.60 394.47 2440.50
  Q 398.53 2449.16 402.91 2458.60
  Q 423.52 2502.99 445.36 2543.38
  C 451.34 2554.44 457.41 2566.13 465.00 2576.04
  Q 475.87 2590.25 490.48 2601.70
  Q 478.31 2601.46 470.73 2592.51
  C 459.50 2579.25 449.67 2563.86 441.08 2547.62
  Q 381.99 2436.01 332.06 2319.31
  Q 327.64 2308.99 327.38 2307.94
  Q 325.72 2301.34 328.79 2295.20
  Z"
/>
<path fill="#005db4" d="
  M 851.18 2576.71
  L 849.62 2990.76
  Q 832.29 2959.06 815.16 2927.35
  C 813.77 2924.77 811.61 2923.15 808.77 2922.49
  C 797.90 2919.97 787.08 2912.89 778.07 2905.13
  Q 762.59 2891.79 748.27 2873.01
  C 729.81 2848.79 715.80 2824.34 707.03 2795.92
  C 699.65 2771.98 695.13 2742.01 705.98 2719.41
  C 707.29 2716.69 706.93 2713.98 705.15 2711.52
  C 684.78 2683.44 650.96 2667.77 619.53 2655.16
  Q 584.68 2641.18 547.74 2627.23
  Q 568.98 2616.45 592.39 2612.15
  C 620.72 2606.94 649.27 2610.66 670.41 2630.88
  Q 680.00 2640.05 686.31 2651.73
  Q 694.29 2666.50 702.90 2689.55
  C 704.68 2694.30 709.54 2694.90 713.42 2691.66
  Q 767.59 2646.33 822.27 2592.29
  C 828.93 2585.72 840.04 2580.62 849.12 2576.93
  Q 849.79 2576.65 851.18 2576.71
  Z"
/>
<path fill="#005db4" d="
  M 305.25 2639.00
  Q 309.68 2670.50 309.02 2708.75
  Q 308.63 2731.29 298.72 2751.93
  Q 291.25 2767.50 284.90 2781.01
  C 282.97 2785.11 281.09 2789.91 279.79 2793.74
  C 256.39 2862.77 220.34 2927.22 174.75 2984.80
  C 154.09 3010.89 128.75 3032.84 100.03 3049.77
  Q 99.32 3050.19 98.02 3051.98
  Q 95.39 3055.61 92.15 3058.98
  Q 88.84 3009.08 92.36 2959.24
  Q 92.90 2951.61 96.02 2935.20
  L 97.82 2936.60
  Q 98.23 2936.92 98.74 2936.81
  Q 100.84 2936.36 100.96 2933.87
  Q 103.69 2877.36 104.21 2820.75
  C 104.67 2769.89 104.91 2719.25 105.83 2668.53
  C 106.33 2641.00 108.74 2596.39 141.89 2588.07
  Q 154.31 2584.95 168.80 2588.08
  C 196.11 2593.98 206.86 2621.31 216.14 2644.81
  C 222.39 2660.61 235.70 2675.84 254.16 2669.09
  C 260.71 2666.69 267.96 2661.88 274.15 2657.81
  Q 289.18 2647.92 305.25 2639.00
  Z"
/>
<path fill="#0073c7" d="
  M 382.99 2730.82
  Q 383.15 2729.61 383.47 2727.24
  C 383.79 2724.95 382.24 2722.09 380.52 2720.49
  C 370.82 2711.42 363.79 2700.50 360.97 2687.86
  C 359.33 2680.52 359.14 2672.63 358.05 2664.98
  Q 356.15 2651.57 345.29 2643.96
  C 352.37 2631.47 362.51 2622.51 376.43 2618.91
  C 392.80 2614.68 409.37 2621.89 420.13 2634.46
  C 435.83 2652.79 439.15 2677.13 435.21 2700.71
  C 430.82 2726.94 411.95 2739.07 386.48 2738.48
  A 1.84 1.83 -87.4 0 1 384.70 2736.53
  Q 384.88 2733.90 382.99 2730.82
  Z"
/>
<path fill="#eaf5ff" d="
  M 345.29 2643.96
  Q 356.15 2651.57 358.05 2664.98
  C 359.14 2672.63 359.33 2680.52 360.97 2687.86
  C 363.79 2700.50 370.82 2711.42 380.52 2720.49
  C 382.24 2722.09 383.79 2724.95 383.47 2727.24
  Q 383.15 2729.61 382.99 2730.82
  Q 380.23 2747.72 364.65 2743.76
  Q 359.28 2742.40 355.12 2740.20
  C 347.42 2736.14 341.71 2727.01 337.98 2719.11
  C 329.92 2702.04 324.48 2680.40 326.69 2661.64
  C 327.86 2651.68 334.05 2641.98 345.29 2643.96
  Z"
/>
<path fill="#005db4" d="
  M 850.28 3142.23
  L 850.84 3360.00
  L 90.85 3360.00
  L 91.28 3195.91
  Q 113.92 3165.15 133.10 3132.57
  C 135.18 3129.03 137.07 3123.95 138.15 3119.56
  Q 166.88 3002.96 240.97 2908.35
  Q 246.26 2901.60 253.02 2894.57
  C 263.35 2883.83 274.45 2872.97 284.90 2863.69
  C 301.01 2849.37 321.28 2839.16 341.60 2830.75
  Q 343.81 2829.83 345.18 2827.75
  Q 352.43 2816.69 360.21 2805.29
  C 374.15 2784.85 391.86 2766.24 412.82 2753.89
  Q 452.52 2730.49 499.85 2739.66
  C 511.18 2741.86 522.80 2745.87 534.63 2748.64
  C 537.37 2749.28 538.74 2749.25 541.35 2747.76
  Q 548.88 2743.47 556.77 2740.36
  C 596.90 2724.57 627.88 2742.68 650.63 2774.87
  Q 663.88 2793.63 673.37 2815.76
  Q 681.24 2834.11 689.44 2852.96
  C 692.88 2860.88 697.30 2865.32 704.83 2870.08
  C 739.28 2891.85 769.92 2920.01 795.43 2952.24
  C 805.64 2965.14 813.89 2977.79 819.24 2992.80
  C 828.97 3020.12 824.78 3049.39 816.60 3077.55
  C 815.41 3081.63 816.43 3085.27 818.42 3088.99
  Q 831.98 3114.36 845.52 3139.72
  Q 846.81 3142.14 850.28 3142.23
  Z"
/>
</svg>
