<!DOCTYPE svg PUBLIC "-//W3C//DTD SVG 1.1//EN" "http://www.w3.org/Graphics/SVG/1.1/DTD/svg11.dtd"[]><svg xmlns="http://www.w3.org/2000/svg" version="1.1" viewBox="0.00 0.00 4431.00 709.00" height="48" width="308"><g stroke-width="2.00" fill="none" stroke-linecap="butt"><path stroke="#7e7e7e" vector-effect="non-scaling-stroke" d="   M 876.75 616.43   C 869.69 622.43 873.98 632.81 883.14 632.81   Q 2259.37 632.80 3633.07 632.81   C 3635.40 632.81 3637.75 633.41 3640.00 633.32   Q 3648.21 632.98 3650.51 633.77   Q 3657.60 636.18 3662.13 636.33   Q 3696.86 637.44 3731.24 637.29   Q 3733.30 637.28 3740.97 638.56   Q 3745.58 639.33 3754.36 639.15   C 3757.55 639.09 3760.72 640.14 3764.05 640.14   Q 3782.26 640.10 3800.51 640.10   C 3804.78 640.10 3809.06 640.71 3813.26 641.35   Q 3816.69 641.87 3820.32 641.80   C 3822.62 641.76 3824.77 642.32 3827.01 642.29   Q 3834.65 642.19 3842.68 642.38   Q 3851.35 642.59 3858.36 642.62   Q 3881.64 642.72 3905.45 642.86   C 3907.25 642.87 3909.17 643.21 3911.03 643.17   Q 3924.12 642.88 3936.08 643.56   C 3938.41 643.69 3940.49 644.48 3942.89 644.44   Q 3958.09 644.20 3972.84 645.97   C 3975.67 646.31 3978.39 645.93 3981.09 646.46   Q 3984.26 647.08 3987.54 647.07   Q 4014.82 647.05 4043.62 647.06   C 4050.97 647.06 4059.11 647.77 4066.00 647.83   Q 4106.97 648.14 4143.98 648.04   Q 4153.70 648.02 4163.33 648.77   Q 4175.97 649.76 4184.30 649.04   Q 4191.29 648.44 4196.98 648.42   Q 4236.00 648.29 4281.38 648.36   C 4283.69 648.36 4285.90 647.83 4288.22 647.89   Q 4290.85 647.95 4293.30 647.23   Q 4297.41 646.03 4301.16 645.73   C 4305.58 645.38 4309.66 643.70 4314.06 643.11   C 4317.61 642.63 4321.08 641.60 4324.63 640.96   C 4327.29 640.48 4329.49 639.18 4332.03 638.44   Q 4334.61 637.68 4336.60 635.93   Q 4344.33 629.12 4346.83 622.01   Q 4347.85 619.09 4349.76 616.20   C 4358.52 602.95 4360.75 584.16 4361.69 567.94   C 4363.12 543.38 4363.91 522.64 4363.48 500.58   C 4362.33 442.25 4360.33 378.51 4363.01 321.76   Q 4364.52 289.79 4366.52 251.57   Q 4368.44 214.96 4367.31 184.91   Q 4366.64 167.11 4365.16 155.80   Q 4363.83 145.57 4360.98 134.31   C 4357.47 120.40 4350.34 107.22 4338.45 99.11   C 4326.82 91.17 4312.95 87.22 4298.70 84.94   C 4275.38 81.22 4250.67 80.01 4226.00 80.56   Q 4144.74 82.38 4085.25 83.41   Q 3833.42 87.75 3562.26 82.62   Q 3467.21 80.82 3365.74 78.09   Q 3355.14 77.81 3345.76 77.62   Q 3115.41 72.95 2881.25 72.73   Q 2733.14 72.59 2660.25 73.15   Q 2400.34 75.15 2153.00 76.76   Q 1871.35 78.60 1724.17 77.53   Q 1303.43 74.48 887.98 71.26   Q 884.64 71.23 881.36 71.44   A 2.47 2.47 0.0 0 0 879.13 73.25   Q 878.35 76.04 878.34 78.82   Q 877.91 344.48 877.21 615.43   Q 877.21 616.04 876.75 616.43" /><path stroke="#878787" vector-effect="non-scaling-stroke" d="   M 2651.41 399.43   C 2652.21 398.95 2652.93 398.15 2653.42 397.35   Q 2655.59 393.77 2658.85 390.71   C 2660.21 389.45 2660.78 387.75 2662.46 386.79   Q 2665.36 385.14 2667.25 382.44   A 2.20 2.19 7.1 0 1 2668.28 381.64   Q 2680.70 376.91 2692.21 370.17   C 2695.87 368.03 2700.02 367.98 2703.62 365.79   C 2708.69 362.71 2714.02 360.43 2718.70 356.48   Q 2723.59 352.34 2728.19 348.57   Q 2738.29 340.28 2746.30 329.72   C 2749.35 325.71 2751.10 320.99 2754.16 317.21   Q 2756.11 314.79 2757.16 311.91   C 2758.54 308.13 2761.48 305.24 2763.05 301.45   C 2765.40 295.81 2767.59 290.63 2769.11 284.64   C 2771.46 275.34 2774.87 265.71 2775.11 255.98   Q 2775.42 243.58 2775.11 230.97   Q 2775.02 227.19 2774.10 223.62   Q 2771.76 214.51 2769.01 205.94   Q 2768.11 203.13 2766.25 200.24   Q 2763.69 196.24 2762.45 190.12   A 3.12 3.12 0.0 0 0 2761.43 188.37   Q 2758.64 185.98 2757.08 182.75   C 2756.60 181.76 2755.72 181.03 2755.08 180.16   Q 2749.04 172.00 2743.07 164.73   Q 2741.73 163.10 2740.02 161.80   C 2737.55 159.92 2735.78 157.41 2732.90 155.99   Q 2727.98 153.56 2724.19 150.76   C 2722.59 149.58 2720.84 149.02 2719.23 147.86   Q 2705.17 137.69 2691.49 137.64   Q 2662.09 137.52 2633.35 137.70   C 2624.56 137.76 2616.67 141.76 2608.17 143.31   Q 2602.73 144.30 2595.55 148.07   C 2593.42 149.19 2590.97 149.22 2588.70 150.12   Q 2581.30 153.06 2573.60 155.48   A 7.21 7.19 -75.2 0 0 2570.86 157.08   C 2568.60 159.20 2566.56 161.15 2563.55 162.33   Q 2554.74 165.79 2548.95 169.59   Q 2545.22 172.03 2541.44 177.15   C 2538.63 180.97 2536.97 185.58 2535.00 189.91   Q 2533.16 193.96 2532.98 198.66   Q 2532.46 212.65 2532.79 228.21   C 2532.95 236.02 2535.50 244.37 2537.63 252.08   C 2538.58 255.51 2538.64 258.88 2540.28 262.22   Q 2543.11 267.97 2545.60 273.78   C 2546.37 275.60 2547.61 276.94 2548.76 278.48   C 2551.62 282.29 2552.27 287.16 2555.48 290.75   Q 2556.96 292.39 2557.85 294.39   C 2558.83 296.61 2560.95 297.27 2562.36 299.04   C 2564.91 302.27 2568.04 304.58 2570.64 307.66   C 2572.61 309.99 2575.15 311.46 2577.11 313.83   Q 2578.58 315.61 2580.61 316.84   C 2582.89 318.23 2583.61 320.58 2586.28 321.67   C 2589.95 323.17 2593.15 325.38 2596.95 326.41   Q 2602.93 328.03 2611.48 328.00   Q 2622.70 327.96 2632.41 320.85   C 2634.41 319.38 2635.29 317.10 2636.85 315.23   C 2641.18 310.02 2641.57 302.31 2640.38 295.65   C 2639.80 292.42 2638.16 290.36 2636.49 287.57   C 2635.41 285.75 2634.52 284.24 2632.77 282.89   C 2630.33 281.02 2627.61 278.37 2624.64 277.73   Q 2619.52 276.62 2614.29 275.96   C 2611.86 275.65 2610.10 274.02 2608.99 271.92   A 1.74 1.74 0.0 0 0 2608.27 271.20   Q 2604.90 269.46 2603.02 266.46   Q 2602.08 264.97 2600.62 263.91   C 2597.76 261.82 2596.59 258.06 2595.12 254.91   C 2593.84 252.16 2591.44 250.31 2590.52 247.39   Q 2590.13 246.14 2589.65 244.95   Q 2582.83 228.15 2584.70 210.52   A 2.22 2.21 83.8 0 1 2586.20 208.65   Q 2592.28 206.62 2596.57 202.85   C 2599.20 200.54 2602.87 201.10 2605.96 199.68   Q 2611.08 197.33 2616.23 194.77   Q 2617.69 194.04 2619.18 193.87   C 2622.02 193.54 2624.83 193.03 2627.51 192.03   Q 2634.14 189.56 2638.65 189.54   Q 2659.76 189.44 2686.11 189.52   Q 2689.19 189.53 2691.06 191.41   Q 2692.73 193.09 2694.30 193.63   C 2697.57 194.75 2700.24 197.19 2703.11 198.99   C 2705.90 200.73 2707.40 203.79 2709.80 206.15   C 2711.95 208.25 2712.03 210.79 2714.53 212.80   C 2715.84 213.85 2716.80 215.59 2717.33 217.13   Q 2718.77 221.28 2720.49 225.35   Q 2721.20 227.02 2721.58 228.89   C 2722.24 232.13 2723.45 234.58 2723.44 238.11   Q 2723.42 243.02 2723.53 248.02   Q 2723.64 252.70 2722.49 257.62   Q 2720.92 264.36 2719.12 269.91   C 2718.36 272.24 2718.36 275.03 2717.14 277.08   Q 2714.93 280.77 2712.09 284.52   A 2.03 2.01 67.7 0 0 2711.69 285.49   C 2711.47 287.23 2711.30 288.78 2709.97 290.10   Q 2706.90 293.16 2705.29 297.41   Q 2703.93 301.00 2700.36 302.95   A 2.25 2.20 -89.7 0 0 2699.44 303.88   Q 2697.63 307.31 2694.74 308.90   C 2690.23 311.38 2687.21 315.25 2682.81 317.67   Q 2676.51 321.13 2669.91 322.56   Q 2668.67 322.83 2667.70 323.75   Q 2662.92 328.26 2657.93 329.45   Q 2655.68 329.99 2653.88 331.15   Q 2649.49 333.99 2644.97 334.80   C 2639.31 335.82 2632.11 341.97 2629.49 345.73   Q 2627.85 348.10 2625.25 350.38   Q 2620.74 354.34 2616.50 360.21   Q 2614.28 363.28 2611.70 365.66   C 2608.51 368.61 2604.24 372.78 2602.61 376.85   C 2599.55 384.51 2598.41 390.55 2598.40 399.49   Q 2598.37 423.48 2598.51 446.51   C 2598.55 453.29 2601.50 458.78 2602.15 465.23   C 2602.73 470.94 2608.30 476.76 2612.59 480.04   C 2618.88 484.84 2628.95 484.43 2636.27 482.58   Q 2638.70 481.96 2640.24 480.49   Q 2642.84 478.02 2645.72 476.21   A 4.18 4.09 -5.4 0 0 2647.35 474.28   Q 2648.44 471.64 2649.73 469.48   C 2653.89 462.56 2653.34 453.21 2651.31 445.62   Q 2650.40 442.22 2650.40 438.72   Q 2650.39 419.81 2650.42 402.74   C 2650.42 401.75 2650.41 400.04 2651.41 399.43" /><path stroke="#878787" vector-effect="non-scaling-stroke" d="   M 2647.97 548.90   C 2649.29 547.12 2651.56 546.30 2652.53 544.37   C 2655.49 538.47 2658.04 530.77 2656.04 524.34   C 2654.91 520.73 2653.75 516.47 2650.98 513.80   Q 2649.05 511.95 2647.49 509.92   C 2646.00 507.98 2643.30 507.74 2641.18 506.65   C 2636.77 504.38 2631.67 503.85 2626.78 504.78   C 2623.59 505.39 2621.05 507.03 2618.03 508.00   Q 2616.13 508.61 2614.97 510.10   C 2612.87 512.81 2610.16 514.74 2608.80 518.05   Q 2607.00 522.43 2606.24 525.92   C 2604.97 531.80 2607.30 538.20 2609.85 543.92   C 2610.88 546.22 2613.30 547.08 2614.84 549.07   C 2620.97 557.02 2641.95 557.05 2647.97 548.90" /></g><path fill="#2f2f2f" d="   M 7.46 103.81   C 8.24 101.00 9.20 99.28 9.30 96.08   Q 9.37 93.64 9.92 91.57   Q 14.21 75.56 20.24 64.07   Q 42.27 22.11 89.35 9.03   Q 109.11 3.55 128.29 2.03   Q 161.26 -0.57 193.75 1.03   Q 241.06 3.36 287.20 5.42   Q 316.38 6.73 364.03 5.53   Q 407.03 4.44 449.97 2.74   Q 491.28 1.10 550.50 1.73   Q 560.65 1.84 570.48 2.11   C 639.19 3.96 709.89 6.07 780.75 6.93   C 1039.01 10.09 1253.79 11.52 1500.74 12.87   C 1578.74 13.30 1656.75 14.34 1734.75 14.97   Q 1815.83 15.63 1960.75 15.14   Q 1970.65 15.11 1980.75 15.04   Q 2306.67 12.94 2637.00 10.69   Q 2873.20 9.09 3127.00 11.54   Q 3247.69 12.70 3301.62 13.94   Q 3427.63 16.82 3560.25 19.83   Q 3569.98 20.05 3580.25 20.21   Q 3855.91 24.45 4132.51 19.83   Q 4141.45 19.68 4152.47 19.30   C 4183.96 18.22 4215.34 17.22 4247.81 17.69   C 4282.44 18.18 4316.08 21.43 4347.88 33.04   C 4374.94 42.92 4398.17 63.20 4410.96 88.58   C 4417.39 101.34 4422.43 116.78 4425.07 131.48   C 4431.32 166.21 4431.13 197.25 4430.07 236.02   Q 4429.80 245.86 4429.25 255.98   Q 4427.04 297.22 4425.56 338.46   C 4424.87 357.78 4424.44 379.21 4424.83 399.84   Q 4425.68 445.40 4426.43 493.42   Q 4426.96 527.58 4425.27 560.25   Q 4425.01 565.37 4424.33 570.23   Q 4423.63 575.16 4423.17 580.29   Q 4422.58 586.77 4421.10 594.57   Q 4417.05 615.94 4410.68 632.59   Q 4406.70 642.99 4402.28 650.35   C 4385.94 677.56 4359.98 694.12 4329.13 701.22   C 4297.92 708.40 4265.62 708.36 4231.75 708.49   C 4138.05 708.83 4043.98 707.41 3950.50 705.13   Q 3840.94 702.45 3729.50 700.57   Q 3679.38 699.72 3620.78 697.58   C 3476.45 692.32 3330.75 686.09 3188.75 686.11   Q 3014.83 686.13 2841.25 686.66   Q 2625.74 687.31 2223.00 689.09   C 2142.09 689.45 2061.16 689.13 1980.25 689.17   Q 1910.04 689.21 1733.00 691.18   Q 1722.80 691.30 1713.00 691.48   Q 1481.10 695.82 1276.25 697.68   Q 1180.75 698.55 1043.50 697.00   Q 1033.39 696.88 1023.50 696.69   Q 753.14 691.36 536.25 691.50   C 438.46 691.56 341.90 693.45 225.51 695.80   Q 189.50 696.52 151.00 693.00   C 134.09 691.45 117.10 688.16 100.63 683.45   C 69.08 674.43 42.18 657.23 26.17 628.58   C 16.43 611.16 11.81 593.26 8.96 573.61   Q 4.88 545.49 5.37 513.72   Q 5.96 475.37 6.60 436.55   Q 6.86 420.81 6.23 395.42   C 5.87 380.69 6.92 366.13 6.48 351.46   C 5.01 302.05 2.80 253.09 0.97 206.00   C -0.08 179.12 0.38 153.88 2.93 126.96   Q 3.97 115.92 6.18 106.20   C 6.38 105.33 7.20 104.76 7.46 103.81   Z   M 65.65 168.97   Q 65.45 169.44 65.40 169.92   Q 62.15 201.28 63.27 225.74   Q 64.53 253.14 66.68 288.24   Q 68.20 313.14 67.89 348.50   C 67.75 364.71 66.86 379.96 66.16 396.31   Q 65.63 408.64 66.22 418.59   Q 67.48 440.02 68.37 461.50   C 68.82 472.36 69.53 483.59 70.05 494.52   C 70.69 507.95 69.51 521.30 68.94 534.34   Q 68.31 549.08 71.50 564.01   C 72.81 570.13 70.69 576.27 73.11 582.31   C 74.42 585.60 75.56 588.65 76.21 592.20   Q 77.30 598.14 82.24 605.15   C 83.66 607.15 86.06 607.88 87.81 609.52   Q 89.77 611.36 92.36 612.62   Q 97.86 615.30 103.06 618.34   Q 105.71 619.89 108.76 620.58   C 113.66 621.69 117.27 624.75 122.27 625.80   C 126.86 626.77 131.29 627.88 135.90 628.65   Q 143.12 629.86 150.97 631.56   C 154.88 632.41 158.57 631.99 162.42 632.61   Q 166.71 633.31 171.05 633.51   Q 186.89 634.25 203.20 634.02   Q 206.85 633.96 210.32 634.60   Q 215.72 635.59 217.52 635.56   Q 233.47 635.32 248.29 635.81   C 259.48 636.17 269.42 636.16 280.15 636.08   C 282.61 636.06 284.94 635.56 287.50 635.53   Q 314.05 635.27 343.27 634.66   C 351.89 634.49 360.67 634.35 369.33 635.13   Q 390.50 637.02 411.69 638.18   C 431.22 639.26 450.78 638.24 470.27 637.16   C 489.32 636.10 508.61 634.24 527.41 632.66   C 541.60 631.47 555.43 631.11 569.33 631.46   Q 595.87 632.13 622.13 633.59   Q 632.67 634.18 642.03 634.38   C 689.54 635.40 732.82 634.95 776.75 631.77   Q 785.16 631.16 794.20 629.78   C 796.82 629.38 799.09 629.93 801.65 630.18   C 807.79 630.78 807.30 617.75 806.57 614.11   Q 804.49 603.80 806.47 594.60   C 807.31 590.72 807.86 586.56 807.86 582.63   Q 807.88 544.62 807.71 463.47   Q 807.70 458.98 809.95 451.27   Q 810.47 449.48 810.30 443.39   C 810.27 442.04 810.95 440.76 810.95 439.35   Q 810.96 259.55 810.96 79.35   C 810.96 77.11 810.58 74.96 810.17 72.78   C 809.67 70.12 807.39 70.19 805.31 69.73   Q 803.61 69.36 802.09 69.37   Q 785.03 69.50 767.67 68.59   Q 764.24 68.41 760.99 68.34   Q 750.11 68.13 738.79 68.02   C 736.04 67.99 732.96 66.77 729.95 66.71   Q 721.47 66.57 713.96 65.72   C 702.91 64.48 692.18 64.28 681.37 64.06   C 677.57 63.99 673.78 62.95 669.99 63.24   Q 663.27 63.75 657.23 62.71   C 652.55 61.90 647.69 61.43 642.91 61.43   Q 483.46 61.42 324.00 61.41   Q 320.70 61.41 317.48 61.42   Q 233.57 61.82 166.49 61.70   C 156.88 61.68 147.17 61.92 137.63 62.02   Q 133.59 62.06 128.78 63.77   Q 125.52 64.92 122.94 64.95   C 117.34 65.01 112.10 66.01 106.81 68.15   C 104.03 69.28 101.05 70.12 98.12 70.78   C 91.63 72.25 86.39 76.01 82.21 81.52   C 78.29 86.69 74.33 92.26 73.21 98.35   Q 72.68 101.24 71.28 103.99   C 63.83 118.68 61.70 134.22 65.58 150.59   Q 67.47 158.59 65.54 167.11   Q 65.47 167.43 65.58 167.72   Q 65.64 167.89 65.69 168.05   Q 65.84 168.52 65.65 168.97   Z   M 876.75 616.43   C 869.69 622.43 873.98 632.81 883.14 632.81   Q 2259.37 632.80 3633.07 632.81   C 3635.40 632.81 3637.75 633.41 3640.00 633.32   Q 3648.21 632.98 3650.51 633.77   Q 3657.60 636.18 3662.13 636.33   Q 3696.86 637.44 3731.24 637.29   Q 3733.30 637.28 3740.97 638.56   Q 3745.58 639.33 3754.36 639.15   C 3757.55 639.09 3760.72 640.14 3764.05 640.14   Q 3782.26 640.10 3800.51 640.10   C 3804.78 640.10 3809.06 640.71 3813.26 641.35   Q 3816.69 641.87 3820.32 641.80   C 3822.62 641.76 3824.77 642.32 3827.01 642.29   Q 3834.65 642.19 3842.68 642.38   Q 3851.35 642.59 3858.36 642.62   Q 3881.64 642.72 3905.45 642.86   C 3907.25 642.87 3909.17 643.21 3911.03 643.17   Q 3924.12 642.88 3936.08 643.56   C 3938.41 643.69 3940.49 644.48 3942.89 644.44   Q 3958.09 644.20 3972.84 645.97   C 3975.67 646.31 3978.39 645.93 3981.09 646.46   Q 3984.26 647.08 3987.54 647.07   Q 4014.82 647.05 4043.62 647.06   C 4050.97 647.06 4059.11 647.77 4066.00 647.83   Q 4106.97 648.14 4143.98 648.04   Q 4153.70 648.02 4163.33 648.77   Q 4175.97 649.76 4184.30 649.04   Q 4191.29 648.44 4196.98 648.42   Q 4236.00 648.29 4281.38 648.36   C 4283.69 648.36 4285.90 647.83 4288.22 647.89   Q 4290.85 647.95 4293.30 647.23   Q 4297.41 646.03 4301.16 645.73   C 4305.58 645.38 4309.66 643.70 4314.06 643.11   C 4317.61 642.63 4321.08 641.60 4324.63 640.96   C 4327.29 640.48 4329.49 639.18 4332.03 638.44   Q 4334.61 637.68 4336.60 635.93   Q 4344.33 629.12 4346.83 622.01   Q 4347.85 619.09 4349.76 616.20   C 4358.52 602.95 4360.75 584.16 4361.69 567.94   C 4363.12 543.38 4363.91 522.64 4363.48 500.58   C 4362.33 442.25 4360.33 378.51 4363.01 321.76   Q 4364.52 289.79 4366.52 251.57   Q 4368.44 214.96 4367.31 184.91   Q 4366.64 167.11 4365.16 155.80   Q 4363.83 145.57 4360.98 134.31   C 4357.47 120.40 4350.34 107.22 4338.45 99.11   C 4326.82 91.17 4312.95 87.22 4298.70 84.94   C 4275.38 81.22 4250.67 80.01 4226.00 80.56   Q 4144.74 82.38 4085.25 83.41   Q 3833.42 87.75 3562.26 82.62   Q 3467.21 80.82 3365.74 78.09   Q 3355.14 77.81 3345.76 77.62   Q 3115.41 72.95 2881.25 72.73   Q 2733.14 72.59 2660.25 73.15   Q 2400.34 75.15 2153.00 76.76   Q 1871.35 78.60 1724.17 77.53   Q 1303.43 74.48 887.98 71.26   Q 884.64 71.23 881.36 71.44   A 2.47 2.47 0.0 0 0 879.13 73.25   Q 878.35 76.04 878.34 78.82   Q 877.91 344.48 877.21 615.43   Q 877.21 616.04 876.75 616.43   Z" /><path fill="#cdcdcd" d="   M 877.21 615.43   Q 877.91 344.48 878.34 78.82   Q 878.35 76.04 879.13 73.25   A 2.47 2.47 0.0 0 1 881.36 71.44   Q 884.64 71.23 887.98 71.26   Q 1303.43 74.48 1724.17 77.53   Q 1871.35 78.60 2153.00 76.76   Q 2400.34 75.15 2660.25 73.15   Q 2733.14 72.59 2881.25 72.73   Q 3115.41 72.95 3345.76 77.62   Q 3355.14 77.81 3365.74 78.09   Q 3467.21 80.82 3562.26 82.62   Q 3833.42 87.75 4085.25 83.41   Q 4144.74 82.38 4226.00 80.56   C 4250.67 80.01 4275.38 81.22 4298.70 84.94   C 4312.95 87.22 4326.82 91.17 4338.45 99.11   C 4350.34 107.22 4357.47 120.40 4360.98 134.31   Q 4363.83 145.57 4365.16 155.80   Q 4366.64 167.11 4367.31 184.91   Q 4368.44 214.96 4366.52 251.57   Q 4364.52 289.79 4363.01 321.76   C 4360.33 378.51 4362.33 442.25 4363.48 500.58   C 4363.91 522.64 4363.12 543.38 4361.69 567.94   C 4360.75 584.16 4358.52 602.95 4349.76 616.20   Q 4347.85 619.09 4346.83 622.01   Q 4344.33 629.12 4336.60 635.93   Q 4334.61 637.68 4332.03 638.44   C 4329.49 639.18 4327.29 640.48 4324.63 640.96   C 4321.08 641.60 4317.61 642.63 4314.06 643.11   C 4309.66 643.70 4305.58 645.38 4301.16 645.73   Q 4297.41 646.03 4293.30 647.23   Q 4290.85 647.95 4288.22 647.89   C 4285.90 647.83 4283.69 648.36 4281.38 648.36   Q 4236.00 648.29 4196.98 648.42   Q 4191.29 648.44 4184.30 649.04   Q 4175.97 649.76 4163.33 648.77   Q 4153.70 648.02 4143.98 648.04   Q 4106.97 648.14 4066.00 647.83   C 4059.11 647.77 4050.97 647.06 4043.62 647.06   Q 4014.82 647.05 3987.54 647.07   Q 3984.26 647.08 3981.09 646.46   C 3978.39 645.93 3975.67 646.31 3972.84 645.97   Q 3958.09 644.20 3942.89 644.44   C 3940.49 644.48 3938.41 643.69 3936.08 643.56   Q 3924.12 642.88 3911.03 643.17   C 3909.17 643.21 3907.25 642.87 3905.45 642.86   Q 3881.64 642.72 3858.36 642.62   Q 3851.35 642.59 3842.68 642.38   Q 3834.65 642.19 3827.01 642.29   C 3824.77 642.32 3822.62 641.76 3820.32 641.80   Q 3816.69 641.87 3813.26 641.35   C 3809.06 640.71 3804.78 640.10 3800.51 640.10   Q 3782.26 640.10 3764.05 640.14   C 3760.72 640.14 3757.55 639.09 3754.36 639.15   Q 3745.58 639.33 3740.97 638.56   Q 3733.30 637.28 3731.24 637.29   Q 3696.86 637.44 3662.13 636.33   Q 3657.60 636.18 3650.51 633.77   Q 3648.21 632.98 3640.00 633.32   C 3637.75 633.41 3635.40 632.81 3633.07 632.81   Q 2259.37 632.80 883.14 632.81   C 873.98 632.81 869.69 622.43 876.75 616.43   Q 877.21 616.04 877.21 615.43   Z   M 2651.41 399.43   C 2652.21 398.95 2652.93 398.15 2653.42 397.35   Q 2655.59 393.77 2658.85 390.71   C 2660.21 389.45 2660.78 387.75 2662.46 386.79   Q 2665.36 385.14 2667.25 382.44   A 2.20 2.19 7.1 0 1 2668.28 381.64   Q 2680.70 376.91 2692.21 370.17   C 2695.87 368.03 2700.02 367.98 2703.62 365.79   C 2708.69 362.71 2714.02 360.43 2718.70 356.48   Q 2723.59 352.34 2728.19 348.57   Q 2738.29 340.28 2746.30 329.72   C 2749.35 325.71 2751.10 320.99 2754.16 317.21   Q 2756.11 314.79 2757.16 311.91   C 2758.54 308.13 2761.48 305.24 2763.05 301.45   C 2765.40 295.81 2767.59 290.63 2769.11 284.64   C 2771.46 275.34 2774.87 265.71 2775.11 255.98   Q 2775.42 243.58 2775.11 230.97   Q 2775.02 227.19 2774.10 223.62   Q 2771.76 214.51 2769.01 205.94   Q 2768.11 203.13 2766.25 200.24   Q 2763.69 196.24 2762.45 190.12   A 3.12 3.12 0.0 0 0 2761.43 188.37   Q 2758.64 185.98 2757.08 182.75   C 2756.60 181.76 2755.72 181.03 2755.08 180.16   Q 2749.04 172.00 2743.07 164.73   Q 2741.73 163.10 2740.02 161.80   C 2737.55 159.92 2735.78 157.41 2732.90 155.99   Q 2727.98 153.56 2724.19 150.76   C 2722.59 149.58 2720.84 149.02 2719.23 147.86   Q 2705.17 137.69 2691.49 137.64   Q 2662.09 137.52 2633.35 137.70   C 2624.56 137.76 2616.67 141.76 2608.17 143.31   Q 2602.73 144.30 2595.55 148.07   C 2593.42 149.19 2590.97 149.22 2588.70 150.12   Q 2581.30 153.06 2573.60 155.48   A 7.21 7.19 -75.2 0 0 2570.86 157.08   C 2568.60 159.20 2566.56 161.15 2563.55 162.33   Q 2554.74 165.79 2548.95 169.59   Q 2545.22 172.03 2541.44 177.15   C 2538.63 180.97 2536.97 185.58 2535.00 189.91   Q 2533.16 193.96 2532.98 198.66   Q 2532.46 212.65 2532.79 228.21   C 2532.95 236.02 2535.50 244.37 2537.63 252.08   C 2538.58 255.51 2538.64 258.88 2540.28 262.22   Q 2543.11 267.97 2545.60 273.78   C 2546.37 275.60 2547.61 276.94 2548.76 278.48   C 2551.62 282.29 2552.27 287.16 2555.48 290.75   Q 2556.96 292.39 2557.85 294.39   C 2558.83 296.61 2560.95 297.27 2562.36 299.04   C 2564.91 302.27 2568.04 304.58 2570.64 307.66   C 2572.61 309.99 2575.15 311.46 2577.11 313.83   Q 2578.58 315.61 2580.61 316.84   C 2582.89 318.23 2583.61 320.58 2586.28 321.67   C 2589.95 323.17 2593.15 325.38 2596.95 326.41   Q 2602.93 328.03 2611.48 328.00   Q 2622.70 327.96 2632.41 320.85   C 2634.41 319.38 2635.29 317.10 2636.85 315.23   C 2641.18 310.02 2641.57 302.31 2640.38 295.65   C 2639.80 292.42 2638.16 290.36 2636.49 287.57   C 2635.41 285.75 2634.52 284.24 2632.77 282.89   C 2630.33 281.02 2627.61 278.37 2624.64 277.73   Q 2619.52 276.62 2614.29 275.96   C 2611.86 275.65 2610.10 274.02 2608.99 271.92   A 1.74 1.74 0.0 0 0 2608.27 271.20   Q 2604.90 269.46 2603.02 266.46   Q 2602.08 264.97 2600.62 263.91   C 2597.76 261.82 2596.59 258.06 2595.12 254.91   C 2593.84 252.16 2591.44 250.31 2590.52 247.39   Q 2590.13 246.14 2589.65 244.95   Q 2582.83 228.15 2584.70 210.52   A 2.22 2.21 83.8 0 1 2586.20 208.65   Q 2592.28 206.62 2596.57 202.85   C 2599.20 200.54 2602.87 201.10 2605.96 199.68   Q 2611.08 197.33 2616.23 194.77   Q 2617.69 194.04 2619.18 193.87   C 2622.02 193.54 2624.83 193.03 2627.51 192.03   Q 2634.14 189.56 2638.65 189.54   Q 2659.76 189.44 2686.11 189.52   Q 2689.19 189.53 2691.06 191.41   Q 2692.73 193.09 2694.30 193.63   C 2697.57 194.75 2700.24 197.19 2703.11 198.99   C 2705.90 200.73 2707.40 203.79 2709.80 206.15   C 2711.95 208.25 2712.03 210.79 2714.53 212.80   C 2715.84 213.85 2716.80 215.59 2717.33 217.13   Q 2718.77 221.28 2720.49 225.35   Q 2721.20 227.02 2721.58 228.89   C 2722.24 232.13 2723.45 234.58 2723.44 238.11   Q 2723.42 243.02 2723.53 248.02   Q 2723.64 252.70 2722.49 257.62   Q 2720.92 264.36 2719.12 269.91   C 2718.36 272.24 2718.36 275.03 2717.14 277.08   Q 2714.93 280.77 2712.09 284.52   A 2.03 2.01 67.7 0 0 2711.69 285.49   C 2711.47 287.23 2711.30 288.78 2709.97 290.10   Q 2706.90 293.16 2705.29 297.41   Q 2703.93 301.00 2700.36 302.95   A 2.25 2.20 -89.7 0 0 2699.44 303.88   Q 2697.63 307.31 2694.74 308.90   C 2690.23 311.38 2687.21 315.25 2682.81 317.67   Q 2676.51 321.13 2669.91 322.56   Q 2668.67 322.83 2667.70 323.75   Q 2662.92 328.26 2657.93 329.45   Q 2655.68 329.99 2653.88 331.15   Q 2649.49 333.99 2644.97 334.80   C 2639.31 335.82 2632.11 341.97 2629.49 345.73   Q 2627.85 348.10 2625.25 350.38   Q 2620.74 354.34 2616.50 360.21   Q 2614.28 363.28 2611.70 365.66   C 2608.51 368.61 2604.24 372.78 2602.61 376.85   C 2599.55 384.51 2598.41 390.55 2598.40 399.49   Q 2598.37 423.48 2598.51 446.51   C 2598.55 453.29 2601.50 458.78 2602.15 465.23   C 2602.73 470.94 2608.30 476.76 2612.59 480.04   C 2618.88 484.84 2628.95 484.43 2636.27 482.58   Q 2638.70 481.96 2640.24 480.49   Q 2642.84 478.02 2645.72 476.21   A 4.18 4.09 -5.4 0 0 2647.35 474.28   Q 2648.44 471.64 2649.73 469.48   C 2653.89 462.56 2653.34 453.21 2651.31 445.62   Q 2650.40 442.22 2650.40 438.72   Q 2650.39 419.81 2650.42 402.74   C 2650.42 401.75 2650.41 400.04 2651.41 399.43   Z   M 2647.97 548.90   C 2649.29 547.12 2651.56 546.30 2652.53 544.37   C 2655.49 538.47 2658.04 530.77 2656.04 524.34   C 2654.91 520.73 2653.75 516.47 2650.98 513.80   Q 2649.05 511.95 2647.49 509.92   C 2646.00 507.98 2643.30 507.74 2641.18 506.65   C 2636.77 504.38 2631.67 503.85 2626.78 504.78   C 2623.59 505.39 2621.05 507.03 2618.03 508.00   Q 2616.13 508.61 2614.97 510.10   C 2612.87 512.81 2610.16 514.74 2608.80 518.05   Q 2607.00 522.43 2606.24 525.92   C 2604.97 531.80 2607.30 538.20 2609.85 543.92   C 2610.88 546.22 2613.30 547.08 2614.84 549.07   C 2620.97 557.02 2641.95 557.05 2647.97 548.90   Z" /><path fill="#404040" d="   M 2651.41 399.43   C 2650.41 400.04 2650.42 401.75 2650.42 402.74   Q 2650.39 419.81 2650.40 438.72   Q 2650.40 442.22 2651.31 445.62   C 2653.34 453.21 2653.89 462.56 2649.73 469.48   Q 2648.44 471.64 2647.35 474.28   A 4.18 4.09 -5.4 0 1 2645.72 476.21   Q 2642.84 478.02 2640.24 480.49   Q 2638.70 481.96 2636.27 482.58   C 2628.95 484.43 2618.88 484.84 2612.59 480.04   C 2608.30 476.76 2602.73 470.94 2602.15 465.23   C 2601.50 458.78 2598.55 453.29 2598.51 446.51   Q 2598.37 423.48 2598.40 399.49   C 2598.41 390.55 2599.55 384.51 2602.61 376.85   C 2604.24 372.78 2608.51 368.61 2611.70 365.66   Q 2614.28 363.28 2616.50 360.21   Q 2620.74 354.34 2625.25 350.38   Q 2627.85 348.10 2629.49 345.73   C 2632.11 341.97 2639.31 335.82 2644.97 334.80   Q 2649.49 333.99 2653.88 331.15   Q 2655.68 329.99 2657.93 329.45   Q 2662.92 328.26 2667.70 323.75   Q 2668.67 322.83 2669.91 322.56   Q 2676.51 321.13 2682.81 317.67   C 2687.21 315.25 2690.23 311.38 2694.74 308.90   Q 2697.63 307.31 2699.44 303.88   A 2.25 2.20 -89.7 0 1 2700.36 302.95   Q 2703.93 301.00 2705.29 297.41   Q 2706.90 293.16 2709.97 290.10   C 2711.30 288.78 2711.47 287.23 2711.69 285.49   A 2.03 2.01 67.7 0 1 2712.09 284.52   Q 2714.93 280.77 2717.14 277.08   C 2718.36 275.03 2718.36 272.24 2719.12 269.91   Q 2720.92 264.36 2722.49 257.62   Q 2723.64 252.70 2723.53 248.02   Q 2723.42 243.02 2723.44 238.11   C 2723.45 234.58 2722.24 232.13 2721.58 228.89   Q 2721.20 227.02 2720.49 225.35   Q 2718.77 221.28 2717.33 217.13   C 2716.80 215.59 2715.84 213.85 2714.53 212.80   C 2712.03 210.79 2711.95 208.25 2709.80 206.15   C 2707.40 203.79 2705.90 200.73 2703.11 198.99   C 2700.24 197.19 2697.57 194.75 2694.30 193.63   Q 2692.73 193.09 2691.06 191.41   Q 2689.19 189.53 2686.11 189.52   Q 2659.76 189.44 2638.65 189.54   Q 2634.14 189.56 2627.51 192.03   C 2624.83 193.03 2622.02 193.54 2619.18 193.87   Q 2617.69 194.04 2616.23 194.77   Q 2611.08 197.33 2605.96 199.68   C 2602.87 201.10 2599.20 200.54 2596.57 202.85   Q 2592.28 206.62 2586.20 208.65   A 2.22 2.21 83.8 0 0 2584.70 210.52   Q 2582.83 228.15 2589.65 244.95   Q 2590.13 246.14 2590.52 247.39   C 2591.44 250.31 2593.84 252.16 2595.12 254.91   C 2596.59 258.06 2597.76 261.82 2600.62 263.91   Q 2602.08 264.97 2603.02 266.46   Q 2604.90 269.46 2608.27 271.20   A 1.74 1.74 0.0 0 1 2608.99 271.92   C 2610.10 274.02 2611.86 275.65 2614.29 275.96   Q 2619.52 276.62 2624.64 277.73   C 2627.61 278.37 2630.33 281.02 2632.77 282.89   C 2634.52 284.24 2635.41 285.75 2636.49 287.57   C 2638.16 290.36 2639.80 292.42 2640.38 295.65   C 2641.57 302.31 2641.18 310.02 2636.85 315.23   C 2635.29 317.10 2634.41 319.38 2632.41 320.85   Q 2622.70 327.96 2611.48 328.00   Q 2602.93 328.03 2596.95 326.41   C 2593.15 325.38 2589.95 323.17 2586.28 321.67   C 2583.61 320.58 2582.89 318.23 2580.61 316.84   Q 2578.58 315.61 2577.11 313.83   C 2575.15 311.46 2572.61 309.99 2570.64 307.66   C 2568.04 304.58 2564.91 302.27 2562.36 299.04   C 2560.95 297.27 2558.83 296.61 2557.85 294.39   Q 2556.96 292.39 2555.48 290.75   C 2552.27 287.16 2551.62 282.29 2548.76 278.48   C 2547.61 276.94 2546.37 275.60 2545.60 273.78   Q 2543.11 267.97 2540.28 262.22   C 2538.64 258.88 2538.58 255.51 2537.63 252.08   C 2535.50 244.37 2532.95 236.02 2532.79 228.21   Q 2532.46 212.65 2532.98 198.66   Q 2533.16 193.96 2535.00 189.91   C 2536.97 185.58 2538.63 180.97 2541.44 177.15   Q 2545.22 172.03 2548.95 169.59   Q 2554.74 165.79 2563.55 162.33   C 2566.56 161.15 2568.60 159.20 2570.86 157.08   A 7.21 7.19 -75.2 0 1 2573.60 155.48   Q 2581.30 153.06 2588.70 150.12   C 2590.97 149.22 2593.42 149.19 2595.55 148.07   Q 2602.73 144.30 2608.17 143.31   C 2616.67 141.76 2624.56 137.76 2633.35 137.70   Q 2662.09 137.52 2691.49 137.64   Q 2705.17 137.69 2719.23 147.86   C 2720.84 149.02 2722.59 149.58 2724.19 150.76   Q 2727.98 153.56 2732.90 155.99   C 2735.78 157.41 2737.55 159.92 2740.02 161.80   Q 2741.73 163.10 2743.07 164.73   Q 2749.04 172.00 2755.08 180.16   C 2755.72 181.03 2756.60 181.76 2757.08 182.75   Q 2758.64 185.98 2761.43 188.37   A 3.12 3.12 0.0 0 1 2762.45 190.12   Q 2763.69 196.24 2766.25 200.24   Q 2768.11 203.13 2769.01 205.94   Q 2771.76 214.51 2774.10 223.62   Q 2775.02 227.19 2775.11 230.97   Q 2775.42 243.58 2775.11 255.98   C 2774.87 265.71 2771.46 275.34 2769.11 284.64   C 2767.59 290.63 2765.40 295.81 2763.05 301.45   C 2761.48 305.24 2758.54 308.13 2757.16 311.91   Q 2756.11 314.79 2754.16 317.21   C 2751.10 320.99 2749.35 325.71 2746.30 329.72   Q 2738.29 340.28 2728.19 348.57   Q 2723.59 352.34 2718.70 356.48   C 2714.02 360.43 2708.69 362.71 2703.62 365.79   C 2700.02 367.98 2695.87 368.03 2692.21 370.17   Q 2680.70 376.91 2668.28 381.64   A 2.20 2.19 7.1 0 0 2667.25 382.44   Q 2665.36 385.14 2662.46 386.79   C 2660.78 387.75 2660.21 389.45 2658.85 390.71   Q 2655.59 393.77 2653.42 397.35   C 2652.93 398.15 2652.21 398.95 2651.41 399.43   Z" /><path fill="#404040" d="   M 2647.97 548.90   C 2641.95 557.05 2620.97 557.02 2614.84 549.07   C 2613.30 547.08 2610.88 546.22 2609.85 543.92   C 2607.30 538.20 2604.97 531.80 2606.24 525.92   Q 2607.00 522.43 2608.80 518.05   C 2610.16 514.74 2612.87 512.81 2614.97 510.10   Q 2616.13 508.61 2618.03 508.00   C 2621.05 507.03 2623.59 505.39 2626.78 504.78   C 2631.67 503.85 2636.77 504.38 2641.18 506.65   C 2643.30 507.74 2646.00 507.98 2647.49 509.92   Q 2649.05 511.95 2650.98 513.80   C 2653.75 516.47 2654.91 520.73 2656.04 524.34   C 2658.04 530.77 2655.49 538.47 2652.53 544.37   C 2651.56 546.30 2649.29 547.12 2647.97 548.90   Z" /></svg>