<?xml version="1.0" encoding="UTF-8" standalone="no"?>
<!DOCTYPE svg PUBLIC "-//W3C//DTD SVG 1.1//EN" "http://www.w3.org/Graphics/SVG/1.1/DTD/svg11.dtd">
<svg xmlns="http://www.w3.org/2000/svg" version="1.1" viewBox="0.00 0.00 1050.00 1067.00">
<path fill="#323329" d="
  M 745.75 694.86
  Q 736.88 730.72 726.19 764.40
  Q 718.11 789.89 700.67 810.80
  Q 683.03 831.96 661.50 852.33
  Q 630.59 881.60 593.53 909.36
  Q 585.85 915.11 580.47 918.40
  Q 575.47 921.46 569.53 923.55
  Q 563.35 925.73 557.97 927.66
  C 531.80 937.04 502.19 942.60 474.38 938.64
  Q 448.89 935.01 426.88 928.66
  C 420.86 926.93 415.70 919.74 412.66 914.24
  Q 407.55 904.98 402.68 893.88
  Q 392.40 870.48 385.31 853.70
  Q 382.87 847.92 376.04 838.54
  Q 366.16 824.96 361.05 808.45
  Q 355.43 790.33 349.68 775.60
  Q 338.41 746.77 327.01 716.37
  C 317.51 691.02 309.92 666.56 311.54 640.02
  Q 312.72 620.76 314.35 600.39
  Q 314.47 598.89 313.63 597.64
  C 305.33 585.28 299.10 569.46 298.26 555.03
  C 297.97 550.11 298.74 544.86 299.88 540.17
  C 301.98 531.48 304.03 523.11 305.14 514.39
  Q 305.56 511.12 304.94 508.81
  C 303.05 501.68 298.71 497.03 292.08 492.46
  Q 283.29 486.40 271.06 478.93
  Q 263.53 474.33 257.58 469.24
  C 248.32 461.31 242.35 450.47 238.22 438.41
  C 227.65 407.56 228.68 374.57 244.61 345.88
  Q 247.60 340.51 251.23 334.73
  Q 252.08 333.37 252.48 331.66
  C 263.18 285.62 288.90 249.27 327.67 222.84
  C 329.50 221.59 329.54 219.78 330.68 218.09
  Q 352.24 186.22 382.32 165.52
  Q 419.49 139.95 463.44 128.25
  Q 503.77 117.50 546.47 124.71
  C 575.60 129.62 605.06 139.15 629.35 156.06
  A 4.23 4.20 62.9 0 0 631.65 156.81
  C 652.62 157.27 673.52 162.73 693.84 169.81
  C 715.41 177.34 734.44 187.37 750.24 203.81
  C 761.20 215.22 769.31 228.20 778.01 241.30
  Q 783.66 249.81 786.99 257.24
  Q 789.70 263.32 792.39 269.32
  C 804.88 297.22 813.10 325.64 820.11 357.70
  Q 828.20 394.65 829.47 428.20
  Q 830.24 448.34 827.58 477.47
  C 827.48 478.53 827.76 479.70 827.68 480.73
  Q 826.82 491.44 822.96 501.23
  A 0.96 0.96 0.0 0 0 823.55 502.49
  C 835.19 506.38 841.02 517.19 843.71 528.90
  C 851.69 563.61 843.08 602.08 827.70 633.43
  Q 819.63 649.88 809.07 663.03
  Q 796.12 679.17 776.63 686.02
  Q 766.44 689.60 756.03 692.46
  Q 751.03 693.84 746.36 694.33
  Q 745.87 694.38 745.75 694.86
  Z
  M 324.07 601.97
  L 321.95 600.98
  A 0.32 0.32 0.0 0 0 321.49 601.26
  Q 320.46 619.86 319.04 637.75
  C 317.20 660.90 322.57 682.02 330.42 704.01
  C 339.00 728.02 348.19 751.49 357.69 775.83
  C 361.59 785.82 364.86 796.23 368.18 806.60
  Q 373.09 821.93 382.64 835.25
  Q 385.21 838.83 387.86 842.45
  Q 388.75 843.67 389.56 842.40
  Q 390.82 840.44 391.09 838.17
  C 392.16 829.07 391.95 818.86 387.63 810.37
  Q 381.99 799.26 376.17 787.49
  C 374.37 783.85 374.70 780.41 377.21 777.05
  C 386.14 765.08 395.08 754.18 405.93 741.15
  C 408.53 738.02 411.53 736.29 415.71 736.98
  Q 422.30 738.07 427.79 740.68
  A 1.39 1.37 -49.0 0 0 429.14 740.58
  Q 437.45 735.07 447.19 730.14
  C 449.39 729.02 452.24 729.73 454.67 729.65
  Q 457.27 729.57 459.79 730.29
  C 474.56 734.55 488.55 741.48 502.70 747.79
  C 513.60 752.64 525.17 756.87 536.47 761.05
  Q 545.16 764.26 550.22 767.86
  Q 555.46 771.60 560.84 775.78
  Q 562.56 777.11 563.21 779.15
  C 564.69 783.79 565.99 788.80 566.04 793.76
  Q 566.12 800.51 565.80 807.22
  C 565.72 808.78 566.17 810.44 566.91 811.81
  Q 579.75 835.59 598.60 856.24
  A 0.60 0.60 0.0 0 0 599.40 856.32
  Q 603.21 853.62 607.39 851.09
  Q 612.12 848.24 616.57 851.12
  C 621.48 854.30 628.07 859.04 631.11 864.15
  Q 632.51 866.51 630.88 869.47
  Q 630.14 870.80 631.28 869.79
  Q 641.31 860.85 651.38 851.64
  Q 677.48 827.80 697.13 803.33
  Q 708.59 789.06 714.43 774.70
  Q 720.11 760.75 725.38 742.03
  Q 731.85 719.11 738.24 694.93
  Q 738.91 692.39 741.24 691.43
  A 1.56 1.50 1.2 0 0 742.01 690.72
  C 742.81 689.18 743.01 687.70 745.05 687.31
  Q 760.80 684.23 776.82 677.98
  C 793.83 671.36 805.00 658.35 814.34 642.58
  Q 832.10 612.60 837.66 578.03
  C 840.07 563.07 839.99 546.08 836.87 531.87
  C 834.71 521.98 830.18 511.81 819.74 509.04
  Q 813.30 507.33 804.27 509.92
  Q 786.88 514.89 775.29 527.68
  Q 767.85 535.90 761.80 549.83
  C 759.56 554.99 758.70 560.69 757.09 566.16
  C 756.42 568.43 756.20 570.43 754.08 571.75
  C 748.07 575.50 742.37 578.20 735.36 579.87
  Q 730.08 581.12 724.96 582.57
  C 722.05 583.40 717.44 583.62 715.37 580.71
  C 712.10 576.13 709.24 571.96 709.20 566.29
  Q 709.11 552.01 706.63 532.20
  Q 703.95 510.79 700.83 491.97
  Q 699.75 485.49 697.11 479.05
  Q 690.19 462.19 682.31 450.33
  Q 665.73 425.35 635.30 415.68
  C 607.86 406.97 574.99 407.17 557.41 380.37
  Q 546.09 363.12 544.86 342.49
  A 0.39 0.39 0.0 0 0 544.20 342.23
  Q 527.05 359.13 501.11 359.43
  Q 490.18 359.56 479.00 358.44
  Q 459.74 356.50 440.00 354.80
  C 408.30 352.07 374.11 353.49 346.58 371.39
  C 327.04 384.09 314.26 404.52 310.33 428.27
  C 310.11 429.65 310.30 430.99 310.27 432.37
  Q 309.62 460.87 312.12 487.65
  C 313.45 501.91 313.40 514.78 310.27 527.94
  Q 307.87 538.06 305.57 548.86
  Q 305.06 551.25 306.71 549.45
  Q 310.87 544.94 318.66 543.44
  C 327.60 541.72 336.78 540.79 346.12 540.88
  Q 354.84 540.96 363.07 540.93
  C 368.72 540.91 374.20 541.74 379.69 541.39
  C 382.06 541.23 383.86 542.33 385.78 543.46
  A 0.70 0.70 0.0 0 0 386.82 543.00
  C 389.00 532.65 402.44 550.78 403.86 552.99
  C 405.22 555.08 404.10 558.54 401.45 558.57
  Q 400.19 558.58 398.89 558.46
  C 395.43 558.13 391.72 558.37 388.33 557.56
  Q 386.79 557.18 385.10 557.23
  Q 364.19 557.78 344.81 557.45
  Q 332.25 557.24 317.44 561.11
  C 314.17 561.97 311.00 563.57 308.03 565.19
  Q 307.22 565.63 307.47 566.52
  Q 311.56 580.67 319.79 593.72
  A 0.90 0.90 0.0 0 0 321.20 593.87
  Q 322.57 592.46 324.57 592.55
  A 3.22 3.21 -66.2 0 0 326.98 591.61
  Q 332.48 586.15 338.38 581.00
  Q 350.70 570.24 367.52 569.31
  C 380.30 568.60 392.48 574.67 402.59 582.17
  Q 405.24 584.12 403.33 581.44
  Q 400.62 577.63 402.58 575.26
  Q 403.86 573.71 405.77 574.08
  C 408.85 574.68 411.10 580.15 412.03 582.80
  C 413.79 587.77 410.63 592.74 405.84 594.15
  C 399.84 595.91 393.72 597.02 387.63 599.00
  C 376.20 602.70 360.13 605.22 347.93 602.51
  Q 341.55 601.09 334.46 600.16
  Q 328.66 599.40 325.50 601.81
  Q 324.83 602.32 324.07 601.97
  Z
  M 355.81 595.60
  C 353.54 592.22 351.28 585.69 352.42 581.28
  A 0.52 0.51 -7.8 0 0 351.66 580.71
  Q 344.17 584.96 337.09 592.24
  Q 336.15 593.21 337.51 593.18
  Q 339.18 593.13 340.95 593.56
  Q 348.17 595.29 355.46 596.18
  A 0.37 0.37 0.0 0 0 355.81 595.60
  Z
  M 389.09 582.10
  Q 388.21 581.54 388.42 582.56
  Q 389.27 586.56 388.64 590.63
  A 0.37 0.36 -7.0 0 0 389.15 591.02
  Q 393.11 589.39 397.22 588.90
  Q 399.37 588.64 397.54 587.48
  L 389.09 582.10
  Z
  M 487.09 826.50
  L 485.98 827.70
  Q 485.45 828.27 486.19 828.53
  Q 490.27 829.94 492.10 835.40
  C 496.47 848.39 495.10 862.20 499.75 875.03
  A 1.78 1.77 -14.5 0 0 501.70 876.17
  Q 516.97 873.77 531.67 868.90
  A 2.04 2.04 0.0 0 0 532.98 867.56
  Q 538.78 848.25 541.84 828.06
  Q 542.45 824.03 542.52 819.87
  Q 542.75 806.52 542.85 791.83
  A 2.40 2.39 -85.3 0 0 540.83 789.44
  Q 534.90 788.51 528.53 787.03
  C 526.31 786.51 524.10 787.03 521.79 786.37
  Q 504.48 781.37 497.03 779.79
  Q 475.75 775.27 451.08 774.15
  C 439.28 773.61 429.57 774.22 419.17 777.22
  Q 416.67 777.94 414.84 779.58
  Q 404.88 788.54 395.78 798.91
  A 0.90 0.90 0.0 0 0 395.68 799.96
  C 399.31 806.17 402.10 812.59 404.21 819.46
  Q 405.85 824.81 407.92 830.07
  Q 414.10 845.80 420.76 860.23
  Q 424.31 867.93 427.44 871.63
  Q 429.06 873.54 431.40 874.27
  Q 438.56 876.50 446.32 879.02
  Q 447.35 879.36 447.29 878.27
  Q 446.32 862.01 441.22 845.94
  C 439.82 841.52 439.11 836.03 443.36 832.90
  Q 445.14 831.59 442.94 831.84
  C 437.71 832.45 437.62 825.01 442.19 824.91
  Q 445.78 824.84 449.27 824.49
  Q 463.52 823.08 478.76 821.49
  C 482.20 821.14 488.08 820.65 487.56 825.47
  A 1.80 1.76 -21.1 0 1 487.09 826.50
  Z"
/>
<path fill="#323329" d="
  M 526.62 508.87
  C 544.36 501.68 563.74 500.64 582.05 506.49
  Q 586.75 508.00 587.68 508.43
  C 590.13 509.56 594.13 512.05 594.20 515.19
  C 594.29 518.52 591.19 519.26 588.52 519.06
  Q 579.79 518.40 573.99 519.07
  C 556.23 521.11 538.71 524.52 521.78 530.91
  Q 505.35 537.12 487.37 541.94
  C 477.36 544.62 469.64 544.43 462.02 536.55
  A 3.10 3.09 33.8 0 1 461.37 533.28
  C 462.62 530.06 465.65 528.80 468.93 528.39
  Q 481.08 526.88 490.70 523.15
  Q 507.34 516.69 526.62 508.87
  Z"
/>
<rect fill="#323329" x="-5.88" y="-3.65" transform="translate(599.44,511.70) rotate(41.3)" width="11.76" height="7.30" rx="3.46"/>
<path fill="#323329" d="
  M 770.70 646.26
  C 779.58 642.02 786.98 636.93 791.86 628.61
  C 797.80 618.47 802.60 601.11 800.38 589.10
  C 799.61 584.97 805.09 583.12 806.91 586.73
  Q 808.42 589.74 808.35 593.70
  Q 807.99 613.12 799.48 630.05
  C 792.46 644.01 778.30 652.76 763.44 656.03
  C 761.75 656.40 759.52 656.58 758.20 655.21
  Q 756.02 652.97 758.14 649.90
  C 763.95 641.49 781.58 620.49 771.97 610.53
  C 771.11 609.64 769.89 609.44 768.71 609.35
  C 766.40 609.18 765.61 606.37 766.21 604.52
  C 773.66 581.65 783.09 560.40 796.05 541.34
  C 798.45 537.81 802.96 531.65 807.21 530.54
  C 810.68 529.64 813.38 534.44 810.15 536.81
  Q 805.38 540.33 800.54 547.90
  Q 792.37 560.66 786.45 573.14
  Q 785.94 574.20 787.12 574.12
  Q 791.00 573.86 794.36 575.58
  C 798.72 577.81 796.13 583.90 791.82 582.35
  C 790.13 581.74 783.10 580.19 782.12 582.59
  Q 777.92 592.89 774.78 602.12
  A 1.33 1.33 0.0 0 0 775.25 603.60
  C 789.95 614.55 778.13 634.98 770.14 645.57
  Q 769.01 647.07 770.70 646.26
  Z"
/>
<path fill="#323329" d="
  M 597.15 563.21
  C 599.22 560.88 602.11 562.04 603.03 564.62
  C 604.19 567.83 605.72 573.53 601.90 574.96
  C 600.26 575.57 599.14 574.32 597.53 574.79
  Q 576.33 581.09 559.21 581.49
  Q 536.97 582.00 519.27 582.84
  Q 507.17 583.41 495.68 589.10
  Q 494.45 589.71 493.30 588.92
  Q 489.83 586.55 492.29 583.24
  Q 498.70 574.63 505.30 567.52
  C 512.71 559.55 521.00 554.22 532.28 552.12
  C 546.83 549.40 562.38 550.71 576.23 554.64
  C 583.05 556.57 589.42 559.79 595.48 563.47
  A 1.32 1.31 35.9 0 0 597.15 563.21
  Z
  M 569.30 561.19
  C 570.92 564.52 569.00 570.12 567.16 573.08
  A 0.46 0.46 0.0 0 0 567.62 573.77
  Q 578.60 572.02 589.76 569.59
  Q 590.88 569.35 589.90 568.75
  Q 580.73 563.16 569.83 560.53
  Q 568.87 560.30 569.30 561.19
  Z
  M 531.33 574.44
  Q 527.49 568.47 527.82 561.69
  A 0.76 0.76 0.0 0 0 526.75 560.96
  Q 515.19 566.29 506.80 576.84
  Q 506.10 577.73 507.17 577.37
  C 514.43 574.99 523.43 575.05 530.96 575.12
  A 0.44 0.44 0.0 0 0 531.33 574.44
  Z"
/>
<path fill="#323329" d="
  M 405.53 713.07
  C 409.81 716.95 414.89 718.97 419.96 721.34
  Q 422.93 722.74 425.24 725.44
  C 427.06 727.57 427.27 730.71 424.35 731.94
  Q 422.41 732.76 420.86 731.24
  Q 417.85 728.28 413.66 726.52
  C 397.39 719.69 388.93 708.08 390.87 689.34
  Q 391.64 681.95 394.44 673.88
  C 402.02 652.03 407.43 632.25 411.34 610.96
  Q 413.97 596.70 413.49 583.59
  Q 412.98 569.57 406.42 560.72
  C 404.86 558.61 405.82 556.05 408.19 555.08
  C 410.86 554.00 413.62 557.94 414.75 559.96
  C 417.71 565.24 419.58 571.15 420.21 577.01
  Q 421.77 591.64 419.79 604.56
  Q 415.38 633.42 405.88 662.85
  C 401.05 677.81 391.09 699.98 405.53 713.07
  Z"
/>
<rect fill="#323329" x="-3.67" y="-7.54" transform="translate(478.63,574.39) rotate(20.5)" width="7.34" height="15.08" rx="3.51"/>
<path fill="#323329" d="
  M 726.39 592.80
  C 728.91 592.13 733.01 589.58 734.70 593.29
  C 737.40 599.19 725.96 600.78 722.92 600.57
  C 718.03 600.22 717.90 593.30 723.11 593.24
  Q 724.78 593.23 726.39 592.80
  Z"
/>
<path fill="#323329" d="
  M 483.94 721.18
  C 491.97 718.40 499.45 711.42 496.06 702.40
  Q 493.36 695.24 489.82 688.35
  A 3.24 3.21 31.8 0 1 489.47 686.89
  Q 489.49 683.43 491.29 682.88
  Q 494.48 681.93 496.11 684.83
  Q 501.29 694.02 503.56 701.93
  C 507.03 714.08 496.74 725.89 485.17 728.41
  Q 482.83 728.92 481.19 726.60
  Q 480.02 724.93 482.60 722.07
  A 3.18 3.13 11.0 0 1 483.94 721.18
  Z"
/>
<path fill="#323329" d="
  M 457.38 718.96
  C 455.11 719.36 453.94 717.83 451.30 719.00
  C 446.75 721.00 443.79 714.70 448.12 712.59
  Q 454.70 709.39 462.10 706.11
  Q 467.72 703.62 472.80 703.15
  C 476.97 702.77 483.58 705.08 483.76 710.20
  Q 483.86 713.04 481.22 714.58
  C 478.87 715.95 476.74 717.12 473.93 717.23
  Q 465.39 717.57 457.38 718.96
  Z"
/>
<path fill="#323329" d="
  M 433.04 795.68
  L 432.27 793.93
  Q 431.99 793.29 432.19 792.62
  C 432.91 790.14 435.70 788.90 437.80 790.59
  Q 444.27 795.77 453.84 794.96
  Q 464.23 794.07 474.42 794.22
  A 2.52 2.46 61.4 0 1 475.75 794.63
  Q 478.99 796.75 478.37 798.56
  Q 477.41 801.36 475.14 801.40
  Q 463.89 801.62 456.53 802.22
  Q 439.02 803.65 423.49 803.95
  A 3.27 3.25 63.4 0 1 421.43 803.26
  Q 418.73 801.16 419.59 799.31
  Q 420.84 796.62 423.80 796.56
  L 432.58 796.41
  Q 433.35 796.40 433.04 795.68
  Z"
/>
<rect fill="#323329" x="-7.85" y="-3.63" transform="translate(509.47,796.43) rotate(-4.6)" width="15.70" height="7.26" rx="3.46"/>
<rect fill="#323329" x="-6.66" y="-3.66" transform="translate(637.50,846.48) rotate(39.0)" width="13.32" height="7.32" rx="3.51"/>
<ellipse fill="#323329" cx="0.00" cy="0.00" transform="translate(630.97,854.02) rotate(48.7)" rx="5.04" ry="3.81"/>
</svg>
